VotoSerifGX-ExtendedBoldDisplay.ufo
<glyph name="exclam" format="2">
  <advance width="487"/>
  <unicode hex="0021"/>
  <outline>
    <contour>
      <point x="237" y="245" type="line"/>
      <point x="251" y="245" type="line"/>
      <point x="371" y="714" type="line"/>
      <point x="118" y="714" type="line"/>
    </contour>
    <contour>
      <point x="246" y="-10" type="curve" smooth="yes"/>
      <point x="297" y="-10"/>
      <point x="343" y="14"/>
      <point x="343" y="86" type="curve" smooth="yes"/>
      <point x="343" y="160"/>
      <point x="297" y="182"/>
      <point x="246" y="182" type="curve" smooth="yes"/>
      <point x="191" y="182"/>
      <point x="149" y="160"/>
      <point x="149" y="86" type="curve" smooth="yes"/>
      <point x="149" y="14"/>
      <point x="191" y="-10"/>
    </contour>
  </outline>
</glyph>
<glyph name="percent" format="2">
  <advance width="1065"/>
  <unicode hex="0025"/>
  <outline>
    <contour>
      <point x="328" y="0" type="line"/>
      <point x="339" y="0" type="line"/>
      <point x="732" y="714" type="line"/>
      <point x="721" y="714" type="line"/>
    </contour>
    <contour>
      <point x="255" y="280" type="curve" smooth="yes"/>
      <point x="404" y="280"/>
      <point x="478" y="369"/>
      <point x="478" y="503" type="curve" smooth="yes"/>
      <point x="478" y="637"/>
      <point x="404" y="724"/>
      <point x="256" y="724" type="curve" smooth="yes"/>
      <point x="96" y="724"/>
      <point x="31" y="637"/>
      <point x="31" y="503" type="curve" smooth="yes"/>
      <point x="31" y="369"/>
      <point x="96" y="280"/>
    </contour>
    <contour>
      <point x="254" y="290" type="curve" smooth="yes"/>
      <point x="200" y="290"/>
      <point x="182" y="351"/>
      <point x="182" y="503" type="curve" smooth="yes"/>
      <point x="182" y="653"/>
      <point x="200" y="714"/>
      <point x="256" y="714" type="curve" smooth="yes"/>
      <point x="310" y="714"/>
      <point x="326" y="653"/>
      <point x="326" y="503" type="curve" smooth="yes"/>
      <point x="326" y="351"/>
      <point x="308" y="290"/>
    </contour>
    <contour>
      <point x="813" y="-10" type="curve" smooth="yes"/>
      <point x="962" y="-10"/>
      <point x="1036" y="79"/>
      <point x="1036" y="213" type="curve" smooth="yes"/>
      <point x="1036" y="347"/>
      <point x="962" y="434"/>
      <point x="814" y="434" type="curve" smooth="yes"/>
      <point x="654" y="434"/>
      <point x="589" y="347"/>
      <point x="589" y="213" type="curve" smooth="yes"/>
      <point x="589" y="79"/>
      <point x="654" y="-10"/>
    </contour>
    <contour>
      <point x="812" y="0" type="curve" smooth="yes"/>
      <point x="758" y="0"/>
      <point x="740" y="61"/>
      <point x="740" y="213" type="curve" smooth="yes"/>
      <point x="740" y="363"/>
      <point x="758" y="424"/>
      <point x="814" y="424" type="curve" smooth="yes"/>
      <point x="868" y="424"/>
      <point x="884" y="363"/>
      <point x="884" y="213" type="curve" smooth="yes"/>
      <point x="884" y="61"/>
      <point x="866" y="0"/>
    </contour>
  </outline>
</glyph>
<glyph name="asterisk" format="2">
  <advance width="587"/>
  <unicode hex="002A"/>
  <outline>
    <contour>
      <point x="223" y="355" type="line"/>
      <point x="372" y="355" type="line"/>
      <point x="303" y="545" type="line"/>
      <point x="496" y="403" type="line"/>
      <point x="558" y="530" type="line"/>
      <point x="313" y="558" type="line"/>
      <point x="558" y="585" type="line"/>
      <point x="496" y="713" type="line"/>
      <point x="303" y="573" type="line"/>
      <point x="375" y="760" type="line"/>
      <point x="223" y="760" type="line"/>
      <point x="288" y="573" type="line"/>
      <point x="97" y="715" type="line"/>
      <point x="36" y="586" type="line"/>
      <point x="283" y="558" type="line"/>
      <point x="36" y="529" type="line"/>
      <point x="97" y="402" type="line"/>
      <point x="288" y="545" type="line"/>
    </contour>
  </outline>
</glyph>
<glyph name="plus" format="2">
  <advance width="693"/>
  <unicode hex="002B"/>
  <outline>
    <contour>
      <point x="335" y="143" type="line"/>
      <point x="355" y="143" type="line"/>
      <point x="355" y="346" type="line"/>
      <point x="613" y="346" type="line"/>
      <point x="613" y="366" type="line"/>
      <point x="355" y="366" type="line"/>
      <point x="355" y="572" type="line"/>
      <point x="335" y="572" type="line"/>
      <point x="335" y="366" type="line"/>
      <point x="80" y="366" type="line"/>
      <point x="80" y="346" type="line"/>
      <point x="335" y="346" type="line"/>
    </contour>
  </outline>
</glyph>
<glyph name="comma" format="2">
  <advance width="379"/>
  <unicode hex="002C"/>
  <outline>
    <contour>
      <point x="65" y="-152" type="line"/>
      <point x="226" y="-116"/>
      <point x="287" y="-41"/>
      <point x="287" y="50" type="curve" smooth="yes"/>
      <point x="287" y="127"/>
      <point x="245" y="182"/>
      <point x="176" y="182" type="curve" smooth="yes"/>
      <point x="115" y="182"/>
      <point x="77" y="142"/>
      <point x="77" y="90" type="curve" smooth="yes"/>
      <point x="77" y="6"/>
      <point x="182" y="41"/>
      <point x="182" y="-45" type="curve" smooth="yes"/>
      <point x="182" y="-107"/>
      <point x="134" y="-119"/>
      <point x="65" y="-143" type="curve"/>
    </contour>
  </outline>
</glyph>
<glyph name="hyphen" format="2">
  <advance width="361"/>
  <unicode hex="002D"/>
  <outline>
    <contour>
      <point x="29" y="263" type="line"/>
      <point x="332" y="263" type="line"/>
      <point x="332" y="283" type="line"/>
      <point x="29" y="283" type="line"/>
    </contour>
  </outline>
</glyph>
<glyph name="three" format="2">
  <advance width="662"/>
  <unicode hex="0033"/>
  <outline>
    <contour>
      <point x="283" y="-10" type="curve" smooth="yes"/>
      <point x="526" y="-10"/>
      <point x="626" y="77"/>
      <point x="626" y="183" type="curve" smooth="yes"/>
      <point x="626" y="293"/>
      <point x="532" y="357"/>
      <point x="340" y="368" type="curve"/>
      <point x="500" y="388"/>
      <point x="598" y="423"/>
      <point x="598" y="552" type="curve" smooth="yes"/>
      <point x="598" y="653"/>
      <point x="488" y="724"/>
      <point x="309" y="724" type="curve" smooth="yes"/>
      <point x="123" y="724"/>
      <point x="43" y="642"/>
      <point x="43" y="579" type="curve" smooth="yes"/>
      <point x="43" y="504"/>
      <point x="115" y="482"/>
      <point x="206" y="482" type="curve"/>
      <point x="206" y="657"/>
      <point x="225" y="714"/>
      <point x="290" y="714" type="curve" smooth="yes"/>
      <point x="347" y="714"/>
      <point x="375" y="660"/>
      <point x="375" y="543" type="curve" smooth="yes"/>
      <point x="375" y="428"/>
      <point x="341" y="374"/>
      <point x="264" y="374" type="curve"/>
      <point x="159" y="374" type="line"/>
      <point x="159" y="364" type="line"/>
      <point x="250" y="364" type="line" smooth="yes"/>
      <point x="356" y="364"/>
      <point x="403" y="317"/>
      <point x="403" y="180" type="curve" smooth="yes"/>
      <point x="403" y="62"/>
      <point x="361" y="0"/>
      <point x="279" y="0" type="curve" smooth="yes"/>
      <point x="175" y="0"/>
      <point x="141" y="67"/>
      <point x="141" y="242" type="curve"/>
      <point x="88" y="242"/>
      <point x="24" y="211"/>
      <point x="24" y="143" type="curve" smooth="yes"/>
      <point x="24" y="49"/>
      <point x="84" y="-10"/>
    </contour>
  </outline>
</glyph>
<glyph name="five" format="2">
  <advance width="662"/>
  <unicode hex="0035"/>
  <outline>
    <contour>
      <point x="301" y="-10" type="curve" smooth="yes"/>
      <point x="532" y="-10"/>
      <point x="613" y="109"/>
      <point x="613" y="222" type="curve" smooth="yes"/>
      <point x="613" y="359"/>
      <point x="500" y="442"/>
      <point x="316" y="442" type="curve" smooth="yes"/>
      <point x="218" y="442"/>
      <point x="148" y="421"/>
      <point x="114" y="371" type="curve"/>
      <point x="133" y="569" type="line"/>
      <point x="487" y="569" type="line" smooth="yes"/>
      <point x="535" y="569"/>
      <point x="543" y="559"/>
      <point x="546" y="527" type="curve" smooth="yes"/>
      <point x="549" y="495" type="line"/>
      <point x="560" y="495" type="line"/>
      <point x="553" y="716" type="line"/>
      <point x="139" y="716" type="line"/>
      <point x="101" y="353" type="line"/>
      <point x="110" y="349" type="line"/>
      <point x="133" y="392"/>
      <point x="188" y="421"/>
      <point x="235" y="421" type="curve" smooth="yes"/>
      <point x="346" y="421"/>
      <point x="393" y="338"/>
      <point x="393" y="198" type="curve" smooth="yes"/>
      <point x="393" y="6"/>
      <point x="309" y="2"/>
      <point x="262" y="2" type="curve" smooth="yes"/>
      <point x="161" y="2"/>
      <point x="147" y="83"/>
      <point x="147" y="214" type="curve"/>
      <point x="85" y="214"/>
      <point x="39" y="189"/>
      <point x="39" y="141" type="curve" smooth="yes"/>
      <point x="39" y="35"/>
      <point x="161" y="-10"/>
    </contour>
  </outline>
</glyph>
<glyph name="seven" format="2">
  <advance width="662"/>
  <unicode hex="0037"/>
  <outline>
    <contour>
      <point x="169" y="0" type="line"/>
      <point x="300" y="0" type="line"/>
      <point x="612" y="642" type="line"/>
      <point x="612" y="716" type="line"/>
      <point x="62" y="716" type="line"/>
      <point x="53" y="470" type="line"/>
      <point x="63" y="470" type="line"/>
      <point x="67" y="511" type="line" smooth="yes"/>
      <point x="71" y="556"/>
      <point x="90" y="571"/>
      <point x="147" y="571" type="curve" smooth="yes"/>
      <point x="567" y="571" type="line"/>
    </contour>
  </outline>
</glyph>
<glyph name="nine" format="2">
  <advance width="662"/>
  <unicode hex="0039"/>
  <outline>
    <contour>
      <point x="277" y="-10" type="curve" smooth="yes"/>
      <point x="486" y="-10"/>
      <point x="618" y="120"/>
      <point x="618" y="380" type="curve" smooth="yes"/>
      <point x="618" y="617"/>
      <point x="510" y="724"/>
      <point x="309" y="724" type="curve" smooth="yes"/>
      <point x="123" y="724"/>
      <point x="32" y="620"/>
      <point x="32" y="487" type="curve" smooth="yes"/>
      <point x="32" y="351"/>
      <point x="113" y="274"/>
      <point x="263" y="274" type="curve" smooth="yes"/>
      <point x="323" y="274"/>
      <point x="361" y="278"/>
      <point x="410" y="351" type="curve"/>
      <point x="409" y="103"/>
      <point x="375" y="-1"/>
      <point x="257" y="-1" type="curve" smooth="yes"/>
      <point x="167" y="-1"/>
      <point x="126" y="61"/>
      <point x="126" y="202" type="curve"/>
      <point x="101" y="205"/>
      <point x="69" y="170"/>
      <point x="69" y="117" type="curve" smooth="yes"/>
      <point x="69" y="23"/>
      <point x="166" y="-10"/>
    </contour>
    <contour>
      <point x="316" y="299" type="curve" smooth="yes"/>
      <point x="258" y="299"/>
      <point x="238" y="344"/>
      <point x="238" y="507" type="curve" smooth="yes"/>
      <point x="238" y="661"/>
      <point x="262" y="714"/>
      <point x="328" y="714" type="curve" smooth="yes"/>
      <point x="401" y="714"/>
      <point x="410" y="654"/>
      <point x="410" y="375" type="curve"/>
      <point x="369" y="304"/>
      <point x="345" y="299"/>
    </contour>
  </outline>
</glyph>
<glyph name="equal" format="2">
  <advance width="693"/>
  <unicode hex="003D"/>
  <outline>
    <contour>
      <point x="85" y="463" type="line"/>
      <point x="609" y="463" type="line"/>
      <point x="609" y="483" type="line"/>
      <point x="85" y="483" type="line"/>
    </contour>
    <contour>
      <point x="85" y="230" type="line"/>
      <point x="609" y="230" type="line"/>
      <point x="609" y="250" type="line"/>
      <point x="85" y="250" type="line"/>
    </contour>
  </outline>
</glyph>
<glyph name="E" format="2">
  <advance width="787"/>
  <unicode hex="0045"/>
  <anchor x="394" y="0" name="bottom"/>
  <anchor x="394" y="714" name="top"/>
  <anchor x="767" y="714" name="topright"/>
  <outline>
    <contour>
      <point x="24" y="0" type="line"/>
      <point x="752" y="0" type="line"/>
      <point x="759" y="198" type="line"/>
      <point x="749" y="198" type="line"/>
      <point x="746" y="169" type="line" smooth="yes"/>
      <point x="733" y="43"/>
      <point x="702" y="10"/>
      <point x="586" y="10" type="curve" smooth="yes"/>
      <point x="363" y="10" type="line"/>
      <point x="363" y="368" type="line"/>
      <point x="619" y="368" type="line"/>
      <point x="619" y="378" type="line"/>
      <point x="363" y="378" type="line"/>
      <point x="363" y="704" type="line"/>
      <point x="546" y="704" type="line" smooth="yes"/>
      <point x="659" y="704"/>
      <point x="693" y="671"/>
      <point x="706" y="544" type="curve" smooth="yes"/>
      <point x="709" y="516" type="line"/>
      <point x="719" y="516" type="line"/>
      <point x="711" y="714" type="line"/>
      <point x="24" y="714" type="line"/>
      <point x="24" y="704" type="line"/>
      <point x="97" y="704" type="line" smooth="yes"/>
      <point x="112" y="704"/>
      <point x="132" y="698"/>
      <point x="132" y="661" type="curve" smooth="yes"/>
      <point x="132" y="48" type="line" smooth="yes"/>
      <point x="132" y="45"/>
      <point x="127" y="10"/>
      <point x="101" y="10" type="curve" smooth="yes"/>
      <point x="24" y="10" type="line"/>
    </contour>
  </outline>
</glyph>
<glyph name="L" format="2">
  <advance width="790"/>
  <unicode hex="004C"/>
  <anchor x="396" y="0" name="bottom"/>
  <anchor x="396" y="357" name="center"/>
  <anchor x="396" y="714" name="top"/>
  <anchor x="770" y="714" name="topright"/>
  <outline>
    <contour>
      <point x="24" y="0" type="line"/>
      <point x="751" y="0" type="line"/>
      <point x="759" y="235" type="line"/>
      <point x="749" y="235" type="line"/>
      <point x="749" y="230" type="line" smooth="yes"/>
      <point x="737" y="57"/>
      <point x="692" y="10"/>
      <point x="529" y="10" type="curve" smooth="yes"/>
      <point x="366" y="10" type="line"/>
      <point x="366" y="667" type="line" smooth="yes"/>
      <point x="366" y="678"/>
      <point x="357" y="704"/>
      <point x="401" y="704" type="curve" smooth="yes"/>
      <point x="473" y="704" type="line"/>
      <point x="473" y="714" type="line"/>
      <point x="24" y="714" type="line"/>
      <point x="24" y="704" type="line"/>
      <point x="89" y="704" type="line" smooth="yes"/>
      <point x="112" y="704"/>
      <point x="132" y="678"/>
      <point x="132" y="667" type="curve" smooth="yes"/>
      <point x="132" y="41" type="line" smooth="yes"/>
      <point x="132" y="36"/>
      <point x="112" y="10"/>
      <point x="105" y="10" type="curve" smooth="yes"/>
      <point x="24" y="10" type="line"/>
    </contour>
  </outline>
</glyph>
<glyph name="T" format="2">
  <advance width="795"/>
  <unicode hex="0054"/>
  <anchor x="398" y="0" name="bottom"/>
  <anchor x="398" y="357" name="center"/>
  <anchor x="398" y="714" name="top"/>
  <anchor x="816" y="714" name="topright"/>
  <outline>
    <contour>
      <point x="172" y="0" type="line"/>
      <point x="626" y="0" type="line"/>
      <point x="626" y="10" type="line"/>
      <point x="589" y="10" type="line" smooth="yes"/>
      <point x="554" y="10"/>
      <point x="516" y="8"/>
      <point x="516" y="65" type="curve" smooth="yes"/>
      <point x="516" y="704" type="line"/>
      <point x="618" y="704" type="line" smooth="yes"/>
      <point x="728" y="704"/>
      <point x="765" y="666"/>
      <point x="778" y="544" type="curve" smooth="yes"/>
      <point x="783" y="492" type="line"/>
      <point x="793" y="492" type="line"/>
      <point x="786" y="714" type="line"/>
      <point x="11" y="714" type="line"/>
      <point x="4" y="492" type="line"/>
      <point x="14" y="492" type="line"/>
      <point x="17" y="544" type="line" smooth="yes"/>
      <point x="24" y="666"/>
      <point x="69" y="704"/>
      <point x="179" y="704" type="curve" smooth="yes"/>
      <point x="281" y="704" type="line"/>
      <point x="281" y="73" type="line" smooth="yes"/>
      <point x="281" y="10"/>
      <point x="245" y="10"/>
      <point x="208" y="10" type="curve" smooth="yes"/>
      <point x="172" y="10" type="line"/>
    </contour>
  </outline>
</glyph>
<glyph name="Y" format="2">
  <advance width="866"/>
  <unicode hex="0059"/>
  <anchor x="434" y="0" name="bottom"/>
  <anchor x="434" y="714" name="top"/>
  <anchor x="846" y="714" name="topright"/>
  <outline>
    <contour>
      <point x="196" y="0" type="line"/>
      <point x="676" y="0" type="line"/>
      <point x="676" y="10" type="line"/>
      <point x="620" y="10" type="line" smooth="yes"/>
      <point x="594" y="10"/>
      <point x="553" y="14"/>
      <point x="553" y="73" type="curve" smooth="yes"/>
      <point x="553" y="216" type="line"/>
      <point x="725" y="595" type="line" smooth="yes"/>
      <point x="764" y="685"/>
      <point x="803" y="704"/>
      <point x="848" y="704" type="curve" smooth="yes"/>
      <point x="863" y="704" type="line"/>
      <point x="863" y="714" type="line"/>
      <point x="583" y="714" type="line"/>
      <point x="583" y="704" type="line"/>
      <point x="607" y="704" type="line" smooth="yes"/>
      <point x="683" y="704"/>
      <point x="722" y="687"/>
      <point x="722" y="644" type="curve" smooth="yes"/>
      <point x="722" y="625"/>
      <point x="712" y="595"/>
      <point x="701" y="570" type="curve" smooth="yes"/>
      <point x="566" y="267" type="line" smooth="yes"/>
      <point x="556" y="248"/>
      <point x="552" y="239"/>
      <point x="546" y="228" type="curve"/>
      <point x="470" y="370"/>
      <point x="466" y="377"/>
      <point x="418" y="470" type="curve" smooth="yes"/>
      <point x="351" y="557" type="line" smooth="yes"/>
      <point x="329" y="599"/>
      <point x="315" y="633"/>
      <point x="315" y="655" type="curve" smooth="yes"/>
      <point x="315" y="690"/>
      <point x="349" y="704"/>
      <point x="406" y="704" type="curve" smooth="yes"/>
      <point x="426" y="704" type="line"/>
      <point x="426" y="714" type="line"/>
      <point x="5" y="714" type="line"/>
      <point x="5" y="704" type="line"/>
      <point x="3" y="704" type="line" smooth="yes"/>
      <point x="20" y="704"/>
      <point x="46" y="689"/>
      <point x="67" y="651" type="curve" smooth="yes"/>
      <point x="319" y="181" type="line"/>
      <point x="319" y="76" type="line" smooth="yes"/>
      <point x="319" y="16"/>
      <point x="279" y="10"/>
      <point x="236" y="10" type="curve" smooth="yes"/>
      <point x="196" y="10" type="line"/>
    </contour>
  </outline>
</glyph>
<glyph name="Z" format="2">
  <advance width="841"/>
  <unicode hex="005A"/>
  <anchor x="428" y="0" name="bottom"/>
  <anchor x="428" y="714" name="top"/>
  <anchor x="828" y="714" name="topright"/>
  <outline>
    <contour>
      <point x="57" y="0" type="line"/>
      <point x="778" y="0" type="line"/>
      <point x="787" y="252" type="line"/>
      <point x="777" y="252" type="line"/>
      <point x="773" y="230" type="line" smooth="yes"/>
      <point x="753" y="57"/>
      <point x="713" y="10"/>
      <point x="553" y="10" type="curve" smooth="yes"/>
      <point x="302" y="10" type="line"/>
      <point x="755" y="704" type="line"/>
      <point x="755" y="714" type="line"/>
      <point x="85" y="714" type="line"/>
      <point x="76" y="462" type="line"/>
      <point x="85" y="462" type="line"/>
      <point x="88" y="484" type="line" smooth="yes"/>
      <point x="105" y="657"/>
      <point x="152" y="704"/>
      <point x="308" y="704" type="curve" smooth="yes"/>
      <point x="508" y="704" type="line"/>
      <point x="57" y="10" type="line"/>
    </contour>
  </outline>
</glyph>
<glyph name="grave" format="2">
  <advance width="361"/>
  <unicode hex="0060"/>
  <outline>
    <contour>
      <point x="311" y="605" type="curve"/>
      <point x="321" y="605" type="line"/>
      <point x="321" y="615" type="line"/>
      <point x="283" y="650"/>
      <point x="221" y="721"/>
      <point x="186" y="766" type="curve"/>
      <point x="40" y="766" type="line"/>
      <point x="40" y="756" type="line"/>
      <point x="77" y="721"/>
      <point x="230" y="639"/>
    </contour>
  </outline>
</glyph>
<glyph name="f" format="2">
  <advance width="507"/>
  <unicode hex="0066"/>
  <anchor x="254" y="0" name="bottom"/>
  <anchor x="344" y="767" name="top"/>
  <anchor x="597" y="767" name="topright"/>
  <outline>
    <contour>
      <point x="15" y="0" type="line"/>
      <point x="485" y="0" type="line"/>
      <point x="485" y="10" type="line"/>
      <point x="421" y="10" type="line" smooth="yes"/>
      <point x="394" y="10"/>
      <point x="348" y="17"/>
      <point x="348" y="67" type="curve" smooth="yes"/>
      <point x="348" y="526" type="line"/>
      <point x="507" y="526" type="line"/>
      <point x="507" y="536" type="line"/>
      <point x="348" y="536" type="line"/>
      <point x="348" y="646" type="line" smooth="yes"/>
      <point x="348" y="730"/>
      <point x="360" y="757"/>
      <point x="391" y="757" type="curve" smooth="yes"/>
      <point x="427" y="757"/>
      <point x="436" y="722"/>
      <point x="436" y="608" type="curve"/>
      <point x="560" y="608"/>
      <point x="587" y="649"/>
      <point x="587" y="691" type="curve" smooth="yes"/>
      <point x="587" y="722"/>
      <point x="554" y="767"/>
      <point x="382" y="767" type="curve" smooth="yes"/>
      <point x="191" y="767"/>
      <point x="122" y="687"/>
      <point x="122" y="557" type="curve" smooth="yes"/>
      <point x="122" y="536" type="line"/>
      <point x="19" y="536" type="line"/>
      <point x="19" y="526" type="line"/>
      <point x="122" y="526" type="line"/>
      <point x="122" y="67" type="line" smooth="yes"/>
      <point x="122" y="17"/>
      <point x="68" y="10"/>
      <point x="49" y="10" type="curve" smooth="yes"/>
      <point x="15" y="10" type="line"/>
    </contour>
  </outline>
</glyph>
<glyph name="m" format="2">
  <advance width="1185"/>
  <unicode hex="006D"/>
  <anchor x="592" y="0" name="bottom"/>
  <anchor x="592" y="536" name="top"/>
  <anchor x="1145" y="536" name="topright"/>
  <outline>
    <contour>
      <point x="17" y="0" type="line"/>
      <point x="407" y="0" type="line"/>
      <point x="407" y="10" type="line"/>
      <point x="402" y="10" type="line"/>
      <point x="351" y="10"/>
      <point x="327" y="21"/>
      <point x="327" y="73" type="curve" smooth="yes"/>
      <point x="327" y="318" type="line" smooth="yes"/>
      <point x="327" y="395"/>
      <point x="340" y="493"/>
      <point x="412" y="493" type="curve" smooth="yes"/>
      <point x="458" y="493"/>
      <point x="477" y="436"/>
      <point x="477" y="351" type="curve" smooth="yes"/>
      <point x="477" y="0" type="line"/>
      <point x="776" y="0" type="line"/>
      <point x="776" y="10" type="line"/>
      <point x="772" y="10" type="line" smooth="yes"/>
      <point x="719" y="10"/>
      <point x="703" y="19"/>
      <point x="703" y="80" type="curve" smooth="yes"/>
      <point x="703" y="328" type="line" smooth="yes"/>
      <point x="703" y="402"/>
      <point x="722" y="493"/>
      <point x="789" y="493" type="curve" smooth="yes"/>
      <point x="835" y="493"/>
      <point x="856" y="436"/>
      <point x="856" y="351" type="curve" smooth="yes"/>
      <point x="856" y="0" type="line"/>
      <point x="1157" y="0" type="line"/>
      <point x="1157" y="10" type="line"/>
      <point x="1152" y="10" type="line" smooth="yes"/>
      <point x="1099" y="10"/>
      <point x="1083" y="19"/>
      <point x="1083" y="80" type="curve" smooth="yes"/>
      <point x="1083" y="363" type="line" smooth="yes"/>
      <point x="1083" y="496"/>
      <point x="1010" y="552"/>
      <point x="882" y="552" type="curve" smooth="yes"/>
      <point x="780" y="552"/>
      <point x="728" y="514"/>
      <point x="698" y="401" type="curve"/>
      <point x="696" y="401" type="line"/>
      <point x="673" y="527"/>
      <point x="596" y="552"/>
      <point x="503" y="552" type="curve" smooth="yes"/>
      <point x="396" y="552"/>
      <point x="346" y="513"/>
      <point x="323" y="399" type="curve"/>
      <point x="321" y="399" type="line"/>
      <point x="321" y="536" type="line"/>
      <point x="17" y="536" type="line"/>
      <point x="17" y="526" type="line"/>
      <point x="22" y="526" type="line" smooth="yes"/>
      <point x="73" y="526"/>
      <point x="101" y="517"/>
      <point x="101" y="465" type="curve" smooth="yes"/>
      <point x="101" y="76" type="line" smooth="yes"/>
      <point x="101" y="19"/>
      <point x="74" y="10"/>
      <point x="21" y="10" type="curve" smooth="yes"/>
      <point x="17" y="10" type="line"/>
    </contour>
  </outline>
</glyph>
<glyph name="q" format="2">
  <advance width="785"/>
  <unicode hex="0071"/>
  <anchor x="393" y="-217" name="bottom"/>
  <anchor x="393" y="536" name="top"/>
  <anchor x="785" y="536" name="topright"/>
  <outline>
    <contour>
      <point x="325" y="-217" type="line"/>
      <point x="773" y="-217" type="line"/>
      <point x="773" y="-207" type="line"/>
      <point x="759" y="-207" type="line" smooth="yes"/>
      <point x="734" y="-207"/>
      <point x="675" y="-206"/>
      <point x="675" y="-148" type="curve" smooth="yes"/>
      <point x="675" y="455" type="line" smooth="yes"/>
      <point x="675" y="519"/>
      <point x="723" y="526"/>
      <point x="755" y="526" type="curve" smooth="yes"/>
      <point x="773" y="526" type="line"/>
      <point x="773" y="536" type="line"/>
      <point x="449" y="536" type="line"/>
      <point x="449" y="356" type="line"/>
      <point x="447" y="356" type="line"/>
      <point x="424" y="491"/>
      <point x="351" y="550"/>
      <point x="254" y="550" type="curve" smooth="yes"/>
      <point x="118" y="550"/>
      <point x="46" y="448"/>
      <point x="46" y="275" type="curve" smooth="yes"/>
      <point x="46" y="97"/>
      <point x="118" y="-10"/>
      <point x="267" y="-10" type="curve" smooth="yes"/>
      <point x="373" y="-10"/>
      <point x="426" y="40"/>
      <point x="447" y="167" type="curve"/>
      <point x="449" y="167" type="line"/>
      <point x="449" y="80"/>
      <point x="449" y="-6"/>
      <point x="449" y="-93" type="curve" smooth="yes"/>
      <point x="449" y="-148" type="line" smooth="yes"/>
      <point x="449" y="-206"/>
      <point x="390" y="-207"/>
      <point x="365" y="-207" type="curve" smooth="yes"/>
      <point x="325" y="-207" type="line"/>
    </contour>
    <contour>
      <point x="355" y="30" type="curve" smooth="yes"/>
      <point x="302" y="30"/>
      <point x="274" y="154"/>
      <point x="274" y="282" type="curve" smooth="yes"/>
      <point x="274" y="381"/>
      <point x="306" y="489"/>
      <point x="353" y="489" type="curve" smooth="yes"/>
      <point x="401" y="489"/>
      <point x="448" y="401"/>
      <point x="448" y="277" type="curve" smooth="yes"/>
      <point x="448" y="127"/>
      <point x="404" y="30"/>
    </contour>
  </outline>
</glyph>
<glyph name="w" format="2">
  <advance width="994"/>
  <unicode hex="0077"/>
  <anchor x="497" y="0" name="bottom"/>
  <anchor x="497" y="536" name="top"/>
  <anchor x="1004" y="536" name="topright"/>
  <outline>
    <contour>
      <point x="228" y="0" type="line"/>
      <point x="384" y="0" type="line"/>
      <point x="478" y="267" type="line"/>
      <point x="609" y="0" type="line"/>
      <point x="735" y="0" type="line"/>
      <point x="891" y="437" type="line" smooth="yes"/>
      <point x="912" y="499"/>
      <point x="938" y="526"/>
      <point x="947" y="526" type="curve" smooth="yes"/>
      <point x="996" y="526" type="line"/>
      <point x="996" y="536" type="line"/>
      <point x="775" y="536" type="line"/>
      <point x="775" y="526" type="line"/>
      <point x="844" y="526" type="line" smooth="yes"/>
      <point x="869" y="526"/>
      <point x="891" y="517"/>
      <point x="891" y="484" type="curve" smooth="yes"/>
      <point x="891" y="474"/>
      <point x="889" y="466"/>
      <point x="884" y="458" type="curve" smooth="yes"/>
      <point x="785" y="162" type="line" smooth="yes"/>
      <point x="784" y="166"/>
      <point x="776" y="145"/>
      <point x="763" y="105" type="curve"/>
      <point x="761" y="105" type="line"/>
      <point x="744" y="148"/>
      <point x="732" y="168"/>
      <point x="713" y="213" type="curve" smooth="yes"/>
      <point x="580" y="524" type="line"/>
      <point x="548" y="524" type="line"/>
      <point x="404" y="77" type="line"/>
      <point x="399" y="66"/>
      <point x="398" y="64"/>
      <point x="398" y="67" type="curve"/>
      <point x="396" y="67" type="line"/>
      <point x="380" y="131"/>
      <point x="367" y="192"/>
      <point x="354" y="237" type="curve" smooth="yes"/>
      <point x="285" y="480" type="line" smooth="yes"/>
      <point x="285" y="481"/>
      <point x="282" y="487"/>
      <point x="282" y="493" type="curve" smooth="yes"/>
      <point x="282" y="516"/>
      <point x="298" y="526"/>
      <point x="323" y="526" type="curve" smooth="yes"/>
      <point x="378" y="526" type="line"/>
      <point x="378" y="536" type="line"/>
      <point x="-7" y="536" type="line"/>
      <point x="-7" y="526" type="line"/>
      <point x="-5" y="526" type="line" smooth="yes"/>
      <point x="22" y="526"/>
      <point x="39" y="507"/>
      <point x="48" y="489" type="curve" smooth="yes"/>
    </contour>
  </outline>
</glyph>
<glyph name="y" format="2">
  <advance width="687"/>
  <unicode hex="0079"/>
  <anchor x="194" y="-217" name="bottom"/>
  <anchor x="344" y="536" name="top"/>
  <anchor x="697" y="536" name="topright"/>
  <outline>
    <contour>
      <point x="19" y="-217" type="line"/>
      <point x="26" y="-217" type="line" smooth="yes"/>
      <point x="250" y="-217"/>
      <point x="289" y="-163"/>
      <point x="381" y="22" type="curve" smooth="yes"/>
      <point x="597" y="432" type="line" smooth="yes"/>
      <point x="630" y="501"/>
      <point x="662" y="526"/>
      <point x="714" y="526" type="curve" smooth="yes"/>
      <point x="715" y="526" type="line"/>
      <point x="715" y="536" type="line"/>
      <point x="462" y="536" type="line"/>
      <point x="462" y="526" type="line"/>
      <point x="508" y="526" type="line" smooth="yes"/>
      <point x="569" y="526"/>
      <point x="597" y="514"/>
      <point x="597" y="482" type="curve" smooth="yes"/>
      <point x="597" y="466"/>
      <point x="590" y="446"/>
      <point x="577" y="417" type="curve" smooth="yes"/>
      <point x="493" y="263" type="line" smooth="yes"/>
      <point x="478" y="231"/>
      <point x="464" y="200"/>
      <point x="449" y="165" type="curve"/>
      <point x="430" y="213"/>
      <point x="411" y="246"/>
      <point x="395" y="280" type="curve" smooth="yes"/>
      <point x="300" y="456" type="line" smooth="yes"/>
      <point x="291" y="475"/>
      <point x="288" y="485"/>
      <point x="288" y="495" type="curve" smooth="yes"/>
      <point x="288" y="521"/>
      <point x="312" y="526"/>
      <point x="361" y="526" type="curve" smooth="yes"/>
      <point x="373" y="526" type="line"/>
      <point x="373" y="536" type="line"/>
      <point x="-3" y="536" type="line"/>
      <point x="-3" y="526" type="line"/>
      <point x="-11" y="526" type="line" smooth="yes"/>
      <point x="20" y="526"/>
      <point x="39" y="515"/>
      <point x="54" y="484" type="curve" smooth="yes"/>
      <point x="333" y="-69" type="line"/>
      <point x="261" y="-156"/>
      <point x="229" y="-207"/>
      <point x="19" y="-207" type="curve"/>
    </contour>
  </outline>
</glyph>
<glyph name="exclamdown" format="2">
  <advance width="487"/>
  <unicode hex="00A1"/>
  <outline>
    <contour>
      <point x="118" y="-182" type="line"/>
      <point x="371" y="-182" type="line"/>
      <point x="252" y="271" type="line"/>
      <point x="237" y="271" type="line"/>
    </contour>
    <contour>
      <point x="243" y="350" type="curve" smooth="yes"/>
      <point x="298" y="350"/>
      <point x="340" y="372"/>
      <point x="340" y="446" type="curve" smooth="yes"/>
      <point x="340" y="518"/>
      <point x="298" y="542"/>
      <point x="243" y="542" type="curve" smooth="yes"/>
      <point x="192" y="542"/>
      <point x="146" y="518"/>
      <point x="146" y="446" type="curve" smooth="yes"/>
      <point x="146" y="372"/>
      <point x="192" y="350"/>
    </contour>
  </outline>
</glyph>
<glyph name="currency" format="2">
  <advance width="652"/>
  <unicode hex="00A4"/>
  <outline>
    <contour>
      <point x="146" y="149" type="line"/>
      <point x="207" y="198" type="line"/>
      <point x="239" y="181"/>
      <point x="280" y="171"/>
      <point x="323" y="171" type="curve" smooth="yes"/>
      <point x="365" y="171"/>
      <point x="407" y="182"/>
      <point x="442" y="200" type="curve"/>
      <point x="504" y="149" type="line"/>
      <point x="569" y="209" type="line"/>
      <point x="506" y="260" type="line"/>
      <point x="526" y="287"/>
      <point x="538" y="318"/>
      <point x="538" y="354" type="curve" smooth="yes"/>
      <point x="538" y="389"/>
      <point x="525" y="422"/>
      <point x="503" y="450" type="curve"/>
      <point x="569" y="507" type="line"/>
      <point x="504" y="568" type="line"/>
      <point x="437" y="511" type="line"/>
      <point x="404" y="529"/>
      <point x="364" y="538"/>
      <point x="323" y="538" type="curve" smooth="yes"/>
      <point x="281" y="538"/>
      <point x="244" y="529"/>
      <point x="211" y="513" type="curve"/>
      <point x="146" y="567" type="line"/>
      <point x="81" y="507" type="line"/>
      <point x="145" y="454" type="line"/>
      <point x="121" y="426"/>
      <point x="109" y="389"/>
      <point x="109" y="354" type="curve" smooth="yes"/>
      <point x="109" y="318"/>
      <point x="119" y="287"/>
      <point x="140" y="260" type="curve"/>
      <point x="78" y="212" type="line"/>
    </contour>
    <contour>
      <point x="323" y="252" type="curve" smooth="yes"/>
      <point x="255" y="252"/>
      <point x="200" y="297"/>
      <point x="200" y="354" type="curve" smooth="yes"/>
      <point x="200" y="412"/>
      <point x="255" y="456"/>
      <point x="323" y="456" type="curve" smooth="yes"/>
      <point x="395" y="456"/>
      <point x="447" y="412"/>
      <point x="447" y="354" type="curve" smooth="yes"/>
      <point x="447" y="297"/>
      <point x="395" y="252"/>
    </contour>
  </outline>
</glyph>
<glyph name="dieresis" format="2">
  <advance width="673"/>
  <unicode hex="00A8"/>
  <outline>
    <contour>
      <point x="462" y="607" type="curve" smooth="yes"/>
      <point x="497" y="607"/>
      <point x="535" y="629"/>
      <point x="535" y="687" type="curve" smooth="yes"/>
      <point x="535" y="746"/>
      <point x="497" y="766"/>
      <point x="462" y="766" type="curve" smooth="yes"/>
      <point x="423" y="766"/>
      <point x="387" y="746"/>
      <point x="387" y="687" type="curve" smooth="yes"/>
      <point x="387" y="629"/>
      <point x="423" y="607"/>
    </contour>
    <contour>
      <point x="210" y="607" type="curve" smooth="yes"/>
      <point x="247" y="607"/>
      <point x="285" y="629"/>
      <point x="285" y="687" type="curve" smooth="yes"/>
      <point x="285" y="746"/>
      <point x="247" y="766"/>
      <point x="210" y="766" type="curve" smooth="yes"/>
      <point x="173" y="766"/>
      <point x="137" y="746"/>
      <point x="137" y="687" type="curve" smooth="yes"/>
      <point x="137" y="629"/>
      <point x="173" y="607"/>
    </contour>
  </outline>
</glyph>
<glyph name="copyright" format="2">
  <advance width="985"/>
  <unicode hex="00A9"/>
  <outline>
    <contour>
      <point x="491" y="-10" type="curve" smooth="yes"/>
      <point x="734" y="-10"/>
      <point x="929" y="158"/>
      <point x="929" y="356" type="curve" smooth="yes"/>
      <point x="929" y="556"/>
      <point x="734" y="725"/>
      <point x="490" y="725" type="curve" smooth="yes"/>
      <point x="249" y="725"/>
      <point x="57" y="554"/>
      <point x="57" y="358" type="curve" smooth="yes"/>
      <point x="57" y="158"/>
      <point x="251" y="-10"/>
    </contour>
    <contour>
      <point x="500" y="145" type="curve" smooth="yes"/>
      <point x="609" y="145"/>
      <point x="681" y="182"/>
      <point x="681" y="225" type="curve" smooth="yes"/>
      <point x="681" y="238"/>
      <point x="676" y="248"/>
      <point x="670" y="255" type="curve"/>
      <point x="654" y="201"/>
      <point x="590" y="155"/>
      <point x="510" y="155" type="curve" smooth="yes"/>
      <point x="421" y="155"/>
      <point x="361" y="204"/>
      <point x="361" y="357" type="curve" smooth="yes"/>
      <point x="361" y="502"/>
      <point x="387" y="557"/>
      <point x="482" y="557" type="curve" smooth="yes"/>
      <point x="546" y="557"/>
      <point x="569" y="538"/>
      <point x="569" y="474" type="curve"/>
      <point x="624" y="474"/>
      <point x="668" y="493"/>
      <point x="668" y="525" type="curve" smooth="yes"/>
      <point x="668" y="566"/>
      <point x="589" y="569"/>
      <point x="520" y="569" type="curve" smooth="yes"/>
      <point x="355" y="569"/>
      <point x="255" y="487"/>
      <point x="255" y="353" type="curve" smooth="yes"/>
      <point x="255" y="243"/>
      <point x="325" y="145"/>
    </contour>
    <contour>
      <point x="492" y="0" type="curve" smooth="yes"/>
      <point x="271" y="0"/>
      <point x="70" y="156"/>
      <point x="70" y="357" type="curve" smooth="yes"/>
      <point x="70" y="550"/>
      <point x="258" y="715"/>
      <point x="490" y="715" type="curve" smooth="yes"/>
      <point x="727" y="715"/>
      <point x="917" y="549"/>
      <point x="917" y="358" type="curve" smooth="yes"/>
      <point x="917" y="166"/>
      <point x="725" y="0"/>
    </contour>
  </outline>
</glyph>
<glyph name="micro" format="2">
  <advance width="818"/>
  <unicode hex="00B5"/>
  <outline>
    <contour>
      <point x="237" y="-240" type="curve" smooth="yes"/>
      <point x="304" y="-240"/>
      <point x="344" y="-211"/>
      <point x="344" y="-153" type="curve"/>
      <point x="180" y="-159"/>
      <point x="112" y="-153"/>
      <point x="111" y="169" type="curve"/>
      <point x="114" y="54"/>
      <point x="238" y="-10"/>
      <point x="311" y="-10" type="curve" smooth="yes"/>
      <point x="376" y="-10"/>
      <point x="474" y="33"/>
      <point x="488" y="138" type="curve"/>
      <point x="490" y="138" type="line"/>
      <point x="494" y="44"/>
      <point x="570" y="0"/>
      <point x="656" y="0" type="curve" smooth="yes"/>
      <point x="801" y="0" type="line"/>
      <point x="801" y="10" type="line"/>
      <point x="786" y="10" type="line" smooth="yes"/>
      <point x="712" y="10"/>
      <point x="706" y="28"/>
      <point x="706" y="93" type="curve" smooth="yes"/>
      <point x="706" y="536" type="line"/>
      <point x="479" y="536" type="line"/>
      <point x="479" y="188" type="line" smooth="yes"/>
      <point x="479" y="101"/>
      <point x="446" y="39"/>
      <point x="399" y="39" type="curve" smooth="yes"/>
      <point x="342" y="39"/>
      <point x="331" y="127"/>
      <point x="331" y="163" type="curve" smooth="yes"/>
      <point x="331" y="536" type="line"/>
      <point x="104" y="536" type="line"/>
      <point x="104" y="226" type="line" smooth="yes"/>
      <point x="104" y="58"/>
      <point x="91" y="-11"/>
      <point x="91" y="-91" type="curve" smooth="yes"/>
      <point x="91" y="-173"/>
      <point x="135" y="-240"/>
    </contour>
  </outline>
</glyph>
<glyph name="ae" format="2">
  <advance width="1049"/>
  <unicode hex="00E6"/>
  <anchor x="524" y="0" name="bottom"/>
  <anchor x="524" y="536" name="top"/>
  <outline>
    <contour>
      <point x="248" y="-10" type="curve" smooth="yes"/>
      <point x="336" y="-10"/>
      <point x="398" y="7"/>
      <point x="446" y="108" type="curve"/>
      <point x="500" y="34"/>
      <point x="603" y="-10"/>
      <point x="734" y="-10" type="curve" smooth="yes"/>
      <point x="870" y="-10"/>
      <point x="985" y="26"/>
      <point x="985" y="117" type="curve" smooth="yes"/>
      <point x="985" y="161"/>
      <point x="959" y="179"/>
      <point x="913" y="187" type="curve"/>
      <point x="918" y="72"/>
      <point x="889" y="4"/>
      <point x="794" y="4" type="curve" smooth="yes"/>
      <point x="676" y="4"/>
      <point x="631" y="92"/>
      <point x="629" y="285" type="curve"/>
      <point x="1007" y="285" type="line"/>
      <point x="1007" y="310" type="line" smooth="yes"/>
      <point x="1007" y="470"/>
      <point x="895" y="552"/>
      <point x="712" y="552" type="curve" smooth="yes"/>
      <point x="641" y="552"/>
      <point x="577" y="532"/>
      <point x="527" y="507" type="curve"/>
      <point x="499" y="538"/>
      <point x="450" y="552"/>
      <point x="359" y="552" type="curve" smooth="yes"/>
      <point x="215" y="552"/>
      <point x="97" y="524"/>
      <point x="97" y="444" type="curve" smooth="yes"/>
      <point x="97" y="390"/>
      <point x="155" y="372"/>
      <point x="278" y="372" type="curve"/>
      <point x="278" y="501"/>
      <point x="292" y="542"/>
      <point x="341" y="542" type="curve" smooth="yes"/>
      <point x="386" y="542"/>
      <point x="400" y="517"/>
      <point x="400" y="440" type="curve" smooth="yes"/>
      <point x="400" y="296" type="line"/>
      <point x="306" y="293" type="line" smooth="yes"/>
      <point x="133" y="288"/>
      <point x="48" y="237"/>
      <point x="48" y="138" type="curve" smooth="yes"/>
      <point x="48" y="44"/>
      <point x="120" y="-10"/>
    </contour>
    <contour>
      <point x="329" y="13" type="curve" smooth="yes"/>
      <point x="286" y="13"/>
      <point x="278" y="50"/>
      <point x="278" y="154" type="curve" smooth="yes"/>
      <point x="278" y="246"/>
      <point x="297" y="280"/>
      <point x="363" y="284" type="curve" smooth="yes"/>
      <point x="402" y="286" type="line"/>
      <point x="402" y="178" type="line" smooth="yes"/>
      <point x="402" y="67"/>
      <point x="378" y="13"/>
    </contour>
    <contour>
      <point x="629" y="295" type="line"/>
      <point x="629" y="473"/>
      <point x="658" y="542"/>
      <point x="711" y="542" type="curve" smooth="yes"/>
      <point x="767" y="542"/>
      <point x="785" y="473"/>
      <point x="785" y="295" type="curve"/>
    </contour>
  </outline>
</glyph>
<glyph name="thorn" format="2">
  <advance width="779"/>
  <unicode hex="00FE"/>
  <anchor x="389" y="-240" name="bottom"/>
  <anchor x="389" y="760" name="top"/>
  <outline>
    <contour>
      <point x="11" y="-202" type="line"/>
      <point x="451" y="-202" type="line"/>
      <point x="451" y="-192" type="line"/>
      <point x="412" y="-192" type="line" smooth="yes"/>
      <point x="387" y="-192"/>
      <point x="328" y="-191"/>
      <point x="328" y="-133" type="curve" smooth="yes"/>
      <point x="328" y="53" type="line" smooth="yes"/>
      <point x="328" y="90"/>
      <point x="328" y="130"/>
      <point x="328" y="167" type="curve"/>
      <point x="330" y="167" type="line"/>
      <point x="353" y="40"/>
      <point x="404" y="-10"/>
      <point x="510" y="-10" type="curve" smooth="yes"/>
      <point x="659" y="-10"/>
      <point x="729" y="97"/>
      <point x="729" y="275" type="curve" smooth="yes"/>
      <point x="729" y="448"/>
      <point x="659" y="550"/>
      <point x="523" y="550" type="curve" smooth="yes"/>
      <point x="426" y="550"/>
      <point x="353" y="491"/>
      <point x="330" y="356" type="curve"/>
      <point x="328" y="356" type="line"/>
      <point x="328" y="404"/>
      <point x="328" y="453"/>
      <point x="328" y="501" type="curve" smooth="yes"/>
      <point x="328" y="760" type="line"/>
      <point x="35" y="760" type="line"/>
      <point x="35" y="750" type="line"/>
      <point x="34" y="750" type="line" smooth="yes"/>
      <point x="104" y="750"/>
      <point x="102" y="725"/>
      <point x="102" y="679" type="curve" smooth="yes"/>
      <point x="102" y="-133" type="line" smooth="yes"/>
      <point x="102" y="-191"/>
      <point x="43" y="-192"/>
      <point x="18" y="-192" type="curve" smooth="yes"/>
      <point x="11" y="-192" type="line"/>
    </contour>
    <contour>
      <point x="422" y="30" type="curve" smooth="yes"/>
      <point x="373" y="30"/>
      <point x="329" y="127"/>
      <point x="329" y="277" type="curve" smooth="yes"/>
      <point x="329" y="401"/>
      <point x="376" y="489"/>
      <point x="424" y="489" type="curve" smooth="yes"/>
      <point x="471" y="489"/>
      <point x="503" y="381"/>
      <point x="503" y="282" type="curve" smooth="yes"/>
      <point x="503" y="154"/>
      <point x="475" y="30"/>
    </contour>
  </outline>
</glyph>
<glyph name="OE" format="2">
  <advance width="1239"/>
  <unicode hex="0152"/>
  <anchor x="620" y="0" name="bottom"/>
  <anchor x="620" y="714" name="top"/>
  <outline>
    <contour>
      <point x="479" y="-10" type="curve" smooth="yes"/>
      <point x="519" y="-10"/>
      <point x="565" y="-6"/>
      <point x="600" y="0" type="curve"/>
      <point x="1203" y="0" type="line"/>
      <point x="1210" y="198" type="line"/>
      <point x="1200" y="198" type="line"/>
      <point x="1197" y="169" type="line" smooth="yes"/>
      <point x="1184" y="43"/>
      <point x="1153" y="10"/>
      <point x="1037" y="10" type="curve" smooth="yes"/>
      <point x="815" y="10" type="line"/>
      <point x="815" y="368" type="line"/>
      <point x="1070" y="368" type="line"/>
      <point x="1070" y="378" type="line"/>
      <point x="815" y="378" type="line"/>
      <point x="815" y="704" type="line"/>
      <point x="997" y="704" type="line" smooth="yes"/>
      <point x="1110" y="704"/>
      <point x="1144" y="671"/>
      <point x="1157" y="544" type="curve" smooth="yes"/>
      <point x="1160" y="516" type="line"/>
      <point x="1170" y="516" type="line"/>
      <point x="1162" y="714" type="line"/>
      <point x="606" y="714" type="line"/>
      <point x="570" y="721"/>
      <point x="521" y="725"/>
      <point x="480" y="725" type="curve" smooth="yes"/>
      <point x="200" y="725"/>
      <point x="63" y="580"/>
      <point x="63" y="359" type="curve" smooth="yes"/>
      <point x="63" y="137"/>
      <point x="200" y="-10"/>
    </contour>
    <contour>
      <point x="479" y="0" type="curve" smooth="yes"/>
      <point x="356" y="0"/>
      <point x="307" y="67"/>
      <point x="307" y="357" type="curve" smooth="yes"/>
      <point x="307" y="646"/>
      <point x="356" y="715"/>
      <point x="480" y="715" type="curve" smooth="yes"/>
      <point x="527" y="715"/>
      <point x="561" y="710"/>
      <point x="583" y="688" type="curve"/>
      <point x="583" y="18" type="line"/>
      <point x="555" y="5"/>
      <point x="524" y="0"/>
    </contour>
  </outline>
</glyph>
<glyph name="uni0183" format="2">
  <advance width="788"/>
  <unicode hex="0183"/>
  <anchor x="395" y="0" name="bottom"/>
  <anchor x="395" y="760" name="top"/>
  <outline>
    <contour>
      <point x="518" y="-10" type="curve" smooth="yes"/>
      <point x="667" y="-10"/>
      <point x="737" y="97"/>
      <point x="737" y="275" type="curve" smooth="yes"/>
      <point x="737" y="448"/>
      <point x="667" y="550"/>
      <point x="531" y="550" type="curve" smooth="yes"/>
      <point x="434" y="550"/>
      <point x="361" y="491"/>
      <point x="338" y="356" type="curve"/>
      <point x="336" y="356" type="line"/>
      <point x="337" y="451"/>
      <point x="337" y="563"/>
      <point x="337" y="610" type="curve" smooth="yes"/>
      <point x="337" y="750" type="line"/>
      <point x="484" y="750" type="line" smooth="yes"/>
      <point x="616" y="750"/>
      <point x="661" y="717"/>
      <point x="668" y="616" type="curve" smooth="yes"/>
      <point x="670" y="585" type="line"/>
      <point x="679" y="585" type="line"/>
      <point x="685" y="760" type="line"/>
      <point x="19" y="760" type="line"/>
      <point x="19" y="750" type="line"/>
      <point x="25" y="750" type="line" smooth="yes"/>
      <point x="76" y="750"/>
      <point x="110" y="735"/>
      <point x="110" y="679" type="curve" smooth="yes"/>
      <point x="110" y="69" type="line" smooth="yes"/>
      <point x="110" y="11"/>
      <point x="51" y="10"/>
      <point x="26" y="10" type="curve" smooth="yes"/>
      <point x="19" y="10" type="line"/>
      <point x="19" y="0" type="line"/>
      <point x="336" y="0" type="line"/>
      <point x="336" y="167" type="line"/>
      <point x="338" y="167" type="line"/>
      <point x="359" y="40"/>
      <point x="412" y="-10"/>
    </contour>
    <contour>
      <point x="430" y="30" type="curve" smooth="yes"/>
      <point x="381" y="30"/>
      <point x="337" y="127"/>
      <point x="337" y="277" type="curve" smooth="yes"/>
      <point x="337" y="401"/>
      <point x="384" y="489"/>
      <point x="432" y="489" type="curve" smooth="yes"/>
      <point x="479" y="489"/>
      <point x="511" y="381"/>
      <point x="511" y="282" type="curve" smooth="yes"/>
      <point x="511" y="154"/>
      <point x="483" y="30"/>
    </contour>
  </outline>
</glyph>
<glyph name="uni0188" format="2">
  <advance width="644"/>
  <unicode hex="0188"/>
  <anchor x="323" y="0" name="bottom"/>
  <anchor x="323" y="760" name="top"/>
  <outline>
    <contour>
      <point x="354" y="-10" type="curve" smooth="yes"/>
      <point x="514" y="-10"/>
      <point x="599" y="61"/>
      <point x="599" y="121" type="curve" smooth="yes"/>
      <point x="599" y="146"/>
      <point x="582" y="167"/>
      <point x="561" y="179" type="curve"/>
      <point x="542" y="57"/>
      <point x="469" y="2"/>
      <point x="391" y="2" type="curve" smooth="yes"/>
      <point x="303" y="2"/>
      <point x="276" y="66"/>
      <point x="276" y="269" type="curve" smooth="yes"/>
      <point x="276" y="466"/>
      <point x="295" y="542"/>
      <point x="352" y="542" type="curve" smooth="yes"/>
      <point x="404" y="542"/>
      <point x="419" y="481"/>
      <point x="419" y="333" type="curve"/>
      <point x="579" y="333"/>
      <point x="604" y="400"/>
      <point x="604" y="437" type="curve" smooth="yes"/>
      <point x="604" y="575" type="line" smooth="yes"/>
      <point x="604" y="635"/>
      <point x="633" y="659"/>
      <point x="710" y="659" type="curve" smooth="yes"/>
      <point x="746" y="659"/>
      <point x="776" y="653"/>
      <point x="814" y="641" type="curve"/>
      <point x="825" y="656"/>
      <point x="831" y="671"/>
      <point x="831" y="689" type="curve" smooth="yes"/>
      <point x="831" y="733"/>
      <point x="780" y="760"/>
      <point x="710" y="760" type="curve" smooth="yes"/>
      <point x="626" y="760"/>
      <point x="594" y="727"/>
      <point x="594" y="666" type="curve" smooth="yes"/>
      <point x="594" y="474" type="line"/>
      <point x="570" y="514"/>
      <point x="502" y="552"/>
      <point x="345" y="552" type="curve" smooth="yes"/>
      <point x="189" y="552"/>
      <point x="48" y="485"/>
      <point x="48" y="268" type="curve" smooth="yes"/>
      <point x="48" y="51"/>
      <point x="171" y="-10"/>
    </contour>
  </outline>
</glyph>
<glyph name="uni0194" format="2">
  <advance width="834"/>
  <unicode hex="0194"/>
  <anchor x="418" y="-240" name="bottom"/>
  <anchor x="418" y="714" name="top"/>
  <outline>
    <contour>
      <point x="429" y="-240" type="curve" smooth="yes"/>
      <point x="589" y="-240"/>
      <point x="623" y="-150"/>
      <point x="623" y="-66" type="curve" smooth="yes"/>
      <point x="623" y="40"/>
      <point x="608" y="47"/>
      <point x="495" y="293" type="curve"/>
      <point x="703" y="631" type="line" smooth="yes"/>
      <point x="736" y="687"/>
      <point x="745" y="704"/>
      <point x="802" y="704" type="curve" smooth="yes"/>
      <point x="834" y="704" type="line"/>
      <point x="834" y="714" type="line"/>
      <point x="592" y="714" type="line"/>
      <point x="592" y="704" type="line"/>
      <point x="653" y="704" type="line" smooth="yes"/>
      <point x="688" y="704"/>
      <point x="705" y="692"/>
      <point x="705" y="672" type="curve" smooth="yes"/>
      <point x="705" y="659"/>
      <point x="699" y="641"/>
      <point x="686" y="621" type="curve" smooth="yes"/>
      <point x="490" y="305" type="line"/>
      <point x="333" y="628" type="line" smooth="yes"/>
      <point x="327" y="637"/>
      <point x="325" y="644"/>
      <point x="325" y="655" type="curve" smooth="yes"/>
      <point x="325" y="676"/>
      <point x="339" y="704"/>
      <point x="388" y="704" type="curve" smooth="yes"/>
      <point x="422" y="704" type="line"/>
      <point x="422" y="714" type="line"/>
      <point x="0" y="714" type="line"/>
      <point x="0" y="704" type="line"/>
      <point x="14" y="704" type="line" smooth="yes"/>
      <point x="42" y="704"/>
      <point x="68" y="694"/>
      <point x="88" y="656" type="curve" smooth="yes"/>
      <point x="356" y="117" type="line"/>
      <point x="288" y="36"/>
      <point x="246" y="-36"/>
      <point x="246" y="-101" type="curve" smooth="yes"/>
      <point x="246" y="-167"/>
      <point x="278" y="-240"/>
    </contour>
    <contour>
      <point x="368" y="-227" type="curve" smooth="yes"/>
      <point x="290" y="-227"/>
      <point x="256" y="-154"/>
      <point x="256" y="-102" type="curve" smooth="yes"/>
      <point x="256" y="-38"/>
      <point x="299" y="38"/>
      <point x="361" y="107" type="curve"/>
      <point x="407" y="15"/>
      <point x="451" y="-80"/>
      <point x="451" y="-143" type="curve" smooth="yes"/>
      <point x="451" y="-199"/>
      <point x="421" y="-227"/>
    </contour>
  </outline>
</glyph>
<glyph name="uni01A5" format="2">
  <advance width="779"/>
  <unicode hex="01A5"/>
  <anchor x="389" y="-240" name="bottom"/>
  <anchor x="389" y="769" name="top"/>
  <outline>
    <contour>
      <point x="11" y="-217" type="line"/>
      <point x="443" y="-217" type="line"/>
      <point x="443" y="-207" type="line"/>
      <point x="412" y="-207" type="line" smooth="yes"/>
      <point x="387" y="-207"/>
      <point x="328" y="-206"/>
      <point x="328" y="-148" type="curve" smooth="yes"/>
      <point x="328" y="53" type="line" smooth="yes"/>
      <point x="328" y="90"/>
      <point x="328" y="130"/>
      <point x="328" y="167" type="curve"/>
      <point x="330" y="167" type="line"/>
      <point x="353" y="40"/>
      <point x="404" y="-10"/>
      <point x="510" y="-10" type="curve" smooth="yes"/>
      <point x="659" y="-10"/>
      <point x="729" y="97"/>
      <point x="729" y="275" type="curve" smooth="yes"/>
      <point x="729" y="448"/>
      <point x="659" y="550"/>
      <point x="523" y="550" type="curve" smooth="yes"/>
      <point x="426" y="550"/>
      <point x="353" y="491"/>
      <point x="330" y="356" type="curve"/>
      <point x="328" y="356" type="line"/>
      <point x="328" y="415"/>
      <point x="328" y="477"/>
      <point x="328" y="536" type="curve" smooth="yes"/>
      <point x="328" y="647" type="line" smooth="yes"/>
      <point x="328" y="727"/>
      <point x="340" y="759"/>
      <point x="373" y="759" type="curve" smooth="yes"/>
      <point x="405" y="759"/>
      <point x="415" y="716"/>
      <point x="415" y="597" type="curve"/>
      <point x="540" y="597"/>
      <point x="566" y="634"/>
      <point x="566" y="678" type="curve" smooth="yes"/>
      <point x="566" y="719"/>
      <point x="534" y="769"/>
      <point x="361" y="769" type="curve" smooth="yes"/>
      <point x="170" y="769"/>
      <point x="102" y="686"/>
      <point x="102" y="559" type="curve" smooth="yes"/>
      <point x="102" y="-148" type="line" smooth="yes"/>
      <point x="102" y="-206"/>
      <point x="43" y="-207"/>
      <point x="18" y="-207" type="curve" smooth="yes"/>
      <point x="11" y="-207" type="line"/>
    </contour>
    <contour>
      <point x="422" y="30" type="curve" smooth="yes"/>
      <point x="373" y="30"/>
      <point x="329" y="127"/>
      <point x="329" y="277" type="curve" smooth="yes"/>
      <point x="329" y="401"/>
      <point x="376" y="489"/>
      <point x="424" y="489" type="curve" smooth="yes"/>
      <point x="471" y="489"/>
      <point x="503" y="381"/>
      <point x="503" y="282" type="curve" smooth="yes"/>
      <point x="503" y="154"/>
      <point x="475" y="30"/>
    </contour>
  </outline>
</glyph>
<glyph name="uni01A6" format="2">
  <advance width="878"/>
  <unicode hex="01A6"/>
  <anchor x="432" y="-135" name="bottom"/>
  <anchor x="435" y="714" name="top"/>
  <outline>
    <contour>
      <point x="751" y="-120" type="curve" smooth="yes"/>
      <point x="878" y="-120" type="line"/>
      <point x="878" y="-110" type="line"/>
      <point x="876" y="-110" type="line" smooth="yes"/>
      <point x="832" y="-110"/>
      <point x="798" y="-61"/>
      <point x="740" y="35" type="curve" smooth="yes"/>
      <point x="630" y="222" type="line"/>
      <point x="720" y="243"/>
      <point x="796" y="289"/>
      <point x="796" y="398" type="curve" smooth="yes"/>
      <point x="796" y="501"/>
      <point x="704" y="582"/>
      <point x="445" y="582" type="curve" smooth="yes"/>
      <point x="364" y="582" type="line"/>
      <point x="364" y="654" type="line" smooth="yes"/>
      <point x="364" y="685"/>
      <point x="375" y="704"/>
      <point x="415" y="704" type="curve" smooth="yes"/>
      <point x="473" y="704" type="line"/>
      <point x="473" y="714" type="line"/>
      <point x="24" y="714" type="line"/>
      <point x="24" y="704" type="line"/>
      <point x="66" y="704" type="line" smooth="yes"/>
      <point x="119" y="704"/>
      <point x="132" y="685"/>
      <point x="132" y="655" type="curve" smooth="yes"/>
      <point x="132" y="62" type="line" smooth="yes"/>
      <point x="132" y="16"/>
      <point x="98" y="10"/>
      <point x="68" y="10" type="curve" smooth="yes"/>
      <point x="24" y="10" type="line"/>
      <point x="24" y="0" type="line"/>
      <point x="458" y="0" type="line"/>
      <point x="458" y="10" type="line"/>
      <point x="422" y="10" type="line" smooth="yes"/>
      <point x="388" y="10"/>
      <point x="364" y="16"/>
      <point x="364" y="62" type="curve" smooth="yes"/>
      <point x="364" y="214" type="line"/>
      <point x="417" y="214" type="line"/>
      <point x="531" y="-10" type="line" smooth="yes"/>
      <point x="570" y="-88"/>
      <point x="592" y="-120"/>
    </contour>
    <contour>
      <point x="364" y="224" type="line"/>
      <point x="364" y="572" type="line"/>
      <point x="415" y="572" type="line" smooth="yes"/>
      <point x="513" y="572"/>
      <point x="548" y="524"/>
      <point x="548" y="409" type="curve" smooth="yes"/>
      <point x="548" y="271"/>
      <point x="508" y="224"/>
      <point x="417" y="224" type="curve" smooth="yes"/>
    </contour>
  </outline>
</glyph>
<glyph name="uni01A8" format="2">
  <advance width="601"/>
  <unicode hex="01A8"/>
  <anchor x="301" y="0" name="bottom"/>
  <anchor x="301" y="536" name="top"/>
  <outline>
    <contour>
      <point x="308" y="-10" type="curve" smooth="yes"/>
      <point x="483" y="-10"/>
      <point x="565" y="41"/>
      <point x="565" y="122" type="curve" smooth="yes"/>
      <point x="565" y="163"/>
      <point x="546" y="167"/>
      <point x="556" y="175" type="curve"/>
      <point x="509" y="26"/>
      <point x="433" y="0"/>
      <point x="324" y="0" type="curve" smooth="yes"/>
      <point x="240" y="0"/>
      <point x="193" y="23"/>
      <point x="193" y="78" type="curve" smooth="yes"/>
      <point x="193" y="149"/>
      <point x="264" y="175"/>
      <point x="357" y="200" type="curve" smooth="yes"/>
      <point x="483" y="236"/>
      <point x="562" y="297"/>
      <point x="562" y="394" type="curve" smooth="yes"/>
      <point x="562" y="509"/>
      <point x="465" y="552"/>
      <point x="301" y="552" type="curve" smooth="yes"/>
      <point x="144" y="552"/>
      <point x="71" y="488"/>
      <point x="71" y="431" type="curve" smooth="yes"/>
      <point x="71" y="389"/>
      <point x="110" y="376"/>
      <point x="190" y="376" type="curve"/>
      <point x="190" y="530"/>
      <point x="249" y="542"/>
      <point x="303" y="542" type="curve" smooth="yes"/>
      <point x="328" y="542"/>
      <point x="408" y="546"/>
      <point x="408" y="463" type="curve" smooth="yes"/>
      <point x="408" y="390"/>
      <point x="351" y="378"/>
      <point x="182" y="318" type="curve" smooth="yes"/>
      <point x="115" y="300"/>
      <point x="41" y="255"/>
      <point x="41" y="162" type="curve" smooth="yes"/>
      <point x="41" y="74"/>
      <point x="93" y="-10"/>
    </contour>
  </outline>
</glyph>
<glyph name="uni01B4" format="2">
  <advance width="770"/>
  <unicode hex="01B4"/>
  <anchor x="385" y="-240" name="bottom"/>
  <anchor x="385" y="536" name="top"/>
  <outline>
    <contour>
      <point x="22" y="-240" type="line"/>
      <point x="26" y="-240" type="line" smooth="yes"/>
      <point x="285" y="-240"/>
      <point x="329" y="-197"/>
      <point x="409" y="-4" type="curve" smooth="yes"/>
      <point x="550" y="335" type="line" smooth="yes"/>
      <point x="575" y="388"/>
      <point x="613" y="423"/>
      <point x="662" y="423" type="curve" smooth="yes"/>
      <point x="690" y="423"/>
      <point x="720" y="408"/>
      <point x="730" y="379" type="curve"/>
      <point x="770" y="418"/>
      <point x="774" y="452"/>
      <point x="774" y="474" type="curve" smooth="yes"/>
      <point x="774" y="519"/>
      <point x="740" y="546"/>
      <point x="681" y="546" type="curve" smooth="yes"/>
      <point x="624" y="546"/>
      <point x="597" y="508"/>
      <point x="576" y="451" type="curve" smooth="yes"/>
      <point x="495" y="239" type="line" smooth="yes"/>
      <point x="489" y="223"/>
      <point x="474" y="182"/>
      <point x="472" y="176" type="curve"/>
      <point x="467" y="182"/>
      <point x="466" y="172"/>
      <point x="457" y="182" type="curve" smooth="yes"/>
      <point x="306" y="450" type="line" smooth="yes"/>
      <point x="295" y="469"/>
      <point x="293" y="483"/>
      <point x="293" y="495" type="curve" smooth="yes"/>
      <point x="293" y="518"/>
      <point x="313" y="526"/>
      <point x="357" y="526" type="curve" smooth="yes"/>
      <point x="383" y="526" type="line"/>
      <point x="381" y="536" type="line"/>
      <point x="-3" y="536" type="line"/>
      <point x="-3" y="526" type="line"/>
      <point x="-8" y="526" type="line" smooth="yes"/>
      <point x="21" y="526"/>
      <point x="35" y="505"/>
      <point x="53" y="479" type="curve" smooth="yes"/>
      <point x="376" y="-55" type="line"/>
      <point x="330" y="-158"/>
      <point x="271" y="-230"/>
      <point x="22" y="-230" type="curve"/>
    </contour>
  </outline>
</glyph>
<glyph name="uni01B8" format="2">
  <advance width="731"/>
  <unicode hex="01B8"/>
  <anchor x="366" y="0" name="bottom"/>
  <anchor x="366" y="714" name="top"/>
  <outline>
    <contour>
      <point x="379" y="-11" type="curve" smooth="yes"/>
      <point x="576" y="-11"/>
      <point x="699" y="54"/>
      <point x="699" y="178" type="curve" smooth="yes"/>
      <point x="699" y="252"/>
      <point x="656" y="280"/>
      <point x="552" y="280" type="curve"/>
      <point x="540" y="185"/>
      <point x="569" y="-1"/>
      <point x="394" y="-1" type="curve" smooth="yes"/>
      <point x="307" y="-1"/>
      <point x="236" y="68"/>
      <point x="236" y="189" type="curve" smooth="yes"/>
      <point x="236" y="317"/>
      <point x="288" y="378"/>
      <point x="373" y="378" type="curve" smooth="yes"/>
      <point x="416" y="378" type="line"/>
      <point x="416" y="388" type="line"/>
      <point x="198" y="577" type="line"/>
      <point x="514" y="577" type="line" smooth="yes"/>
      <point x="596" y="577"/>
      <point x="622" y="522"/>
      <point x="627" y="462" type="curve" smooth="yes"/>
      <point x="629" y="438" type="line"/>
      <point x="640" y="438" type="line"/>
      <point x="629" y="714" type="line"/>
      <point x="68" y="714" type="line"/>
      <point x="68" y="678" type="line"/>
      <point x="401" y="388" type="line"/>
      <point x="127" y="388"/>
      <point x="21" y="324"/>
      <point x="21" y="194" type="curve" smooth="yes"/>
      <point x="21" y="60"/>
      <point x="142" y="-11"/>
    </contour>
  </outline>
</glyph>
<glyph name="uni01BB" format="2">
  <advance width="656"/>
  <unicode hex="01BB"/>
  <anchor x="328" y="0" name="bottom"/>
  <anchor x="328" y="760" name="top"/>
  <outline>
    <contour>
      <point x="32" y="0" type="line"/>
      <point x="613" y="0" type="line"/>
      <point x="622" y="264" type="line"/>
      <point x="611" y="264" type="line"/>
      <point x="610" y="255" type="line" smooth="yes"/>
      <point x="601" y="177"/>
      <point x="582" y="154"/>
      <point x="510" y="154" type="curve" smooth="yes"/>
      <point x="79" y="154" type="line"/>
      <point x="-43" y="13" type="line" smooth="yes"/>
      <point x="88" y="100"/>
      <point x="232" y="189"/>
      <point x="374" y="285" type="curve"/>
      <point x="612" y="285" type="line"/>
      <point x="612" y="295" type="line"/>
      <point x="392" y="295" type="line"/>
      <point x="583" y="413"/>
      <point x="605" y="453"/>
      <point x="605" y="560" type="curve" smooth="yes"/>
      <point x="605" y="696"/>
      <point x="490" y="760"/>
      <point x="299" y="760" type="curve" smooth="yes"/>
      <point x="93" y="760"/>
      <point x="32" y="667"/>
      <point x="32" y="597" type="curve" smooth="yes"/>
      <point x="32" y="508"/>
      <point x="136" y="495"/>
      <point x="208" y="495" type="curve"/>
      <point x="208" y="688"/>
      <point x="229" y="750"/>
      <point x="296" y="750" type="curve" smooth="yes"/>
      <point x="364" y="750"/>
      <point x="392" y="688"/>
      <point x="392" y="574" type="curve" smooth="yes"/>
      <point x="392" y="425"/>
      <point x="390" y="370"/>
      <point x="311" y="295" type="curve"/>
      <point x="64" y="295" type="line"/>
      <point x="64" y="285" type="line"/>
      <point x="299" y="285" type="line"/>
      <point x="276" y="273"/>
      <point x="248" y="259"/>
      <point x="212" y="241" type="curve" smooth="yes"/>
      <point x="32" y="137" type="line"/>
    </contour>
  </outline>
</glyph>
<glyph name="uni01BC" format="2">
  <advance width="685"/>
  <unicode hex="01BC"/>
  <anchor x="342" y="0" name="bottom"/>
  <anchor x="342" y="714" name="top"/>
  <outline>
    <contour>
      <point x="293" y="-10" type="curve" smooth="yes"/>
      <point x="528" y="-10"/>
      <point x="637" y="65"/>
      <point x="637" y="197" type="curve" smooth="yes"/>
      <point x="637" y="329"/>
      <point x="539" y="410"/>
      <point x="381" y="410" type="curve" smooth="yes"/>
      <point x="353" y="410" type="line"/>
      <point x="353" y="704" type="line"/>
      <point x="432" y="704" type="line" smooth="yes"/>
      <point x="557" y="704"/>
      <point x="601" y="656"/>
      <point x="604" y="550" type="curve" smooth="yes"/>
      <point x="605" y="516" type="line"/>
      <point x="616" y="516" type="line"/>
      <point x="608" y="714" type="line"/>
      <point x="38" y="714" type="line"/>
      <point x="38" y="704" type="line"/>
      <point x="70" y="704" type="line" smooth="yes"/>
      <point x="101" y="704"/>
      <point x="127" y="696"/>
      <point x="127" y="643" type="curve" smooth="yes"/>
      <point x="127" y="400" type="line"/>
      <point x="276" y="400" type="line" smooth="yes"/>
      <point x="388" y="400"/>
      <point x="423" y="353"/>
      <point x="423" y="204" type="curve" smooth="yes"/>
      <point x="423" y="45"/>
      <point x="393" y="0"/>
      <point x="295" y="0" type="curve" smooth="yes"/>
      <point x="208" y="0"/>
      <point x="177" y="56"/>
      <point x="177" y="217" type="curve"/>
      <point x="81" y="216"/>
      <point x="48" y="183"/>
      <point x="48" y="116" type="curve" smooth="yes"/>
      <point x="48" y="23"/>
      <point x="143" y="-10"/>
    </contour>
  </outline>
</glyph>
<glyph name="uni01C1" format="2">
  <advance width="649"/>
  <unicode hex="01C1"/>
  <anchor x="324" y="0" name="bottom"/>
  <anchor x="324" y="760" name="top"/>
  <outline>
    <contour>
      <point x="439" y="0" type="line"/>
      <point x="459" y="0" type="line"/>
      <point x="459" y="760" type="line"/>
      <point x="439" y="760" type="line"/>
    </contour>
    <contour>
      <point x="190" y="0" type="line"/>
      <point x="210" y="0" type="line"/>
      <point x="210" y="760" type="line"/>
      <point x="190" y="760" type="line"/>
    </contour>
  </outline>
</glyph>
<glyph name="uni01E4" format="2">
  <advance width="944"/>
  <unicode hex="01E4"/>
  <anchor x="472" y="0" name="bottom"/>
  <anchor x="472" y="714" name="top"/>
  <outline>
    <contour>
      <point x="513" y="-10" type="curve" smooth="yes"/>
      <point x="623" y="-10"/>
      <point x="720" y="11"/>
      <point x="821" y="54" type="curve"/>
      <point x="821" y="182" type="line"/>
      <point x="900" y="182" type="line"/>
      <point x="900" y="192" type="line"/>
      <point x="821" y="192" type="line"/>
      <point x="821" y="298" type="line" smooth="yes"/>
      <point x="821" y="348"/>
      <point x="832" y="377"/>
      <point x="882" y="377" type="curve" smooth="yes"/>
      <point x="892" y="377" type="line"/>
      <point x="892" y="387" type="line"/>
      <point x="492" y="387" type="line"/>
      <point x="492" y="377" type="line"/>
      <point x="515" y="377" type="line" smooth="yes"/>
      <point x="572" y="377"/>
      <point x="588" y="348"/>
      <point x="588" y="302" type="curve" smooth="yes"/>
      <point x="588" y="192" type="line"/>
      <point x="434" y="192" type="line"/>
      <point x="434" y="182" type="line"/>
      <point x="588" y="182" type="line"/>
      <point x="588" y="2" type="line"/>
      <point x="566" y="0"/>
      <point x="548" y="0"/>
      <point x="529" y="0" type="curve" smooth="yes"/>
      <point x="372" y="0"/>
      <point x="308" y="122"/>
      <point x="308" y="358" type="curve" smooth="yes"/>
      <point x="308" y="595"/>
      <point x="368" y="714"/>
      <point x="516" y="714" type="curve" smooth="yes"/>
      <point x="593" y="714"/>
      <point x="653" y="669"/>
      <point x="653" y="500" type="curve"/>
      <point x="778" y="500"/>
      <point x="834" y="551"/>
      <point x="834" y="603" type="curve" smooth="yes"/>
      <point x="834" y="670"/>
      <point x="726" y="724"/>
      <point x="518" y="724" type="curve" smooth="yes"/>
      <point x="220" y="724"/>
      <point x="63" y="574"/>
      <point x="63" y="358" type="curve" smooth="yes"/>
      <point x="63" y="137"/>
      <point x="210" y="-10"/>
    </contour>
  </outline>
</glyph>
<glyph name="uni01E5" format="2">
  <advance width="672"/>
  <unicode hex="01E5"/>
  <anchor x="336" y="-240" name="bottom"/>
  <anchor x="336" y="536" name="top"/>
  <outline>
    <contour>
      <point x="282" y="-232" type="curve" smooth="yes"/>
      <point x="463" y="-232"/>
      <point x="576" y="-189"/>
      <point x="620" y="-114" type="curve"/>
      <point x="684" y="-114" type="line"/>
      <point x="684" y="-104" type="line"/>
      <point x="626" y="-104" type="line"/>
      <point x="635" y="-83"/>
      <point x="639" y="-59"/>
      <point x="639" y="-33" type="curve" smooth="yes"/>
      <point x="639" y="77"/>
      <point x="559" y="127"/>
      <point x="392" y="127" type="curve" smooth="yes"/>
      <point x="284" y="127" type="line" smooth="yes"/>
      <point x="194" y="127"/>
      <point x="184" y="155"/>
      <point x="184" y="171" type="curve" smooth="yes"/>
      <point x="184" y="184"/>
      <point x="188" y="190"/>
      <point x="199" y="197" type="curve"/>
      <point x="229" y="189"/>
      <point x="266" y="186"/>
      <point x="306" y="186" type="curve" smooth="yes"/>
      <point x="492" y="186"/>
      <point x="575" y="260"/>
      <point x="575" y="354" type="curve" smooth="yes"/>
      <point x="575" y="419"/>
      <point x="545" y="472"/>
      <point x="490" y="508" type="curve"/>
      <point x="503" y="513"/>
      <point x="517" y="519"/>
      <point x="530" y="519" type="curve" smooth="yes"/>
      <point x="559" y="519"/>
      <point x="584" y="487"/>
      <point x="584" y="457" type="curve"/>
      <point x="631" y="457"/>
      <point x="675" y="473"/>
      <point x="675" y="522" type="curve" smooth="yes"/>
      <point x="675" y="568"/>
      <point x="645" y="592"/>
      <point x="595" y="592" type="curve" smooth="yes"/>
      <point x="547" y="592"/>
      <point x="496" y="571"/>
      <point x="477" y="516" type="curve"/>
      <point x="433" y="539"/>
      <point x="377" y="552"/>
      <point x="306" y="552" type="curve" smooth="yes"/>
      <point x="117" y="552"/>
      <point x="33" y="483"/>
      <point x="33" y="381" type="curve" smooth="yes"/>
      <point x="33" y="289"/>
      <point x="82" y="224"/>
      <point x="186" y="199" type="curve"/>
      <point x="99" y="175"/>
      <point x="50" y="138"/>
      <point x="50" y="88" type="curve" smooth="yes"/>
      <point x="50" y="35"/>
      <point x="105" y="-17"/>
      <point x="220" y="-29" type="curve"/>
      <point x="56" y="-34"/>
      <point x="-16" y="-65"/>
      <point x="-16" y="-120" type="curve" smooth="yes"/>
      <point x="-16" y="-191"/>
      <point x="101" y="-232"/>
    </contour>
    <contour>
      <point x="308" y="-222" type="curve" smooth="yes"/>
      <point x="203" y="-222"/>
      <point x="164" y="-178"/>
      <point x="164" y="-127" type="curve" smooth="yes"/>
      <point x="164" y="-101"/>
      <point x="169" y="-49"/>
      <point x="218" y="-49" type="curve" smooth="yes"/>
      <point x="373" y="-49" type="line" smooth="yes"/>
      <point x="423" y="-49"/>
      <point x="453" y="-64"/>
      <point x="456" y="-104" type="curve"/>
      <point x="287" y="-104" type="line"/>
      <point x="287" y="-114" type="line"/>
      <point x="457" y="-114" type="line"/>
      <point x="457" y="-183"/>
      <point x="398" y="-222"/>
    </contour>
    <contour>
      <point x="304" y="196" type="curve" smooth="yes"/>
      <point x="248" y="196"/>
      <point x="227" y="252"/>
      <point x="227" y="361" type="curve" smooth="yes"/>
      <point x="227" y="480"/>
      <point x="248" y="542"/>
      <point x="303" y="542" type="curve" smooth="yes"/>
      <point x="357" y="542"/>
      <point x="378" y="482"/>
      <point x="378" y="362" type="curve" smooth="yes"/>
      <point x="378" y="252"/>
      <point x="357" y="196"/>
    </contour>
  </outline>
</glyph>
<glyph name="uni021C" format="2">
  <advance width="740"/>
  <unicode hex="021C"/>
  <anchor x="368" y="-88" name="bottom"/>
  <anchor x="366" y="714" name="top"/>
  <outline>
    <contour>
      <point x="60" y="-160" type="line"/>
      <point x="445" y="-108"/>
      <point x="720" y="-15"/>
      <point x="720" y="175" type="curve" smooth="yes"/>
      <point x="720" y="337"/>
      <point x="564" y="361"/>
      <point x="444" y="371" type="curve"/>
      <point x="608" y="404"/>
      <point x="685" y="457"/>
      <point x="685" y="554" type="curve" smooth="yes"/>
      <point x="685" y="674"/>
      <point x="549" y="724"/>
      <point x="354" y="724" type="curve" smooth="yes"/>
      <point x="164" y="724"/>
      <point x="52" y="676"/>
      <point x="52" y="583" type="curve" smooth="yes"/>
      <point x="52" y="516"/>
      <point x="109" y="488"/>
      <point x="236" y="488" type="curve"/>
      <point x="236" y="650"/>
      <point x="265" y="714"/>
      <point x="340" y="714" type="curve" smooth="yes"/>
      <point x="418" y="714"/>
      <point x="447" y="666"/>
      <point x="447" y="540" type="curve" smooth="yes"/>
      <point x="447" y="430"/>
      <point x="391" y="349"/>
      <point x="209" y="321" type="curve"/>
      <point x="213" y="311" type="line"/>
      <point x="271" y="323"/>
      <point x="340" y="338"/>
      <point x="385" y="349" type="curve"/>
      <point x="419" y="336"/>
      <point x="487" y="280"/>
      <point x="487" y="169" type="curve" smooth="yes"/>
      <point x="487" y="-13"/>
      <point x="347" y="-104"/>
      <point x="60" y="-149" type="curve"/>
    </contour>
  </outline>
</glyph>
<glyph name="uni0220" format="2">
  <advance width="1008"/>
  <unicode hex="0220"/>
  <anchor x="505" y="-240" name="bottom"/>
  <anchor x="505" y="714" name="top"/>
  <outline>
    <contour>
      <point x="517" y="-240" type="line"/>
      <point x="965" y="-240" type="line"/>
      <point x="965" y="-230" type="line"/>
      <point x="927" y="-230" type="line" smooth="yes"/>
      <point x="894" y="-230"/>
      <point x="858" y="-223"/>
      <point x="858" y="-174" type="curve" smooth="yes"/>
      <point x="858" y="509" type="line" smooth="yes"/>
      <point x="858" y="651"/>
      <point x="767" y="730"/>
      <point x="600" y="730" type="curve" smooth="yes"/>
      <point x="469" y="730"/>
      <point x="393" y="670"/>
      <point x="368" y="566" type="curve"/>
      <point x="366" y="566" type="line"/>
      <point x="366" y="714" type="line"/>
      <point x="24" y="714" type="line"/>
      <point x="24" y="704" type="line"/>
      <point x="63" y="704" type="line" smooth="yes"/>
      <point x="94" y="704"/>
      <point x="132" y="695"/>
      <point x="132" y="650" type="curve" smooth="yes"/>
      <point x="132" y="73" type="line" smooth="yes"/>
      <point x="132" y="18"/>
      <point x="98" y="10"/>
      <point x="63" y="10" type="curve" smooth="yes"/>
      <point x="24" y="10" type="line"/>
      <point x="24" y="0" type="line"/>
      <point x="473" y="0" type="line"/>
      <point x="473" y="10" type="line"/>
      <point x="433" y="10" type="line" smooth="yes"/>
      <point x="397" y="10"/>
      <point x="364" y="18"/>
      <point x="364" y="73" type="curve" smooth="yes"/>
      <point x="364" y="517" type="line" smooth="yes"/>
      <point x="364" y="525"/>
      <point x="400" y="689"/>
      <point x="498" y="689" type="curve" smooth="yes"/>
      <point x="588" y="689"/>
      <point x="625" y="635"/>
      <point x="625" y="512" type="curve" smooth="yes"/>
      <point x="625" y="-167" type="line" smooth="yes"/>
      <point x="625" y="-222"/>
      <point x="593" y="-230"/>
      <point x="558" y="-230" type="curve" smooth="yes"/>
      <point x="517" y="-230" type="line"/>
    </contour>
  </outline>
</glyph>
<glyph name="uni0222" format="2">
  <advance width="918"/>
  <unicode hex="0222"/>
  <anchor x="459" y="0" name="bottom"/>
  <anchor x="459" y="714" name="top"/>
  <outline>
    <contour>
      <point x="459" y="-10" type="curve" smooth="yes"/>
      <point x="730" y="-10"/>
      <point x="855" y="92"/>
      <point x="855" y="222" type="curve" smooth="yes"/>
      <point x="855" y="325"/>
      <point x="770" y="410"/>
      <point x="580" y="427" type="curve"/>
      <point x="747" y="444"/>
      <point x="817" y="513"/>
      <point x="817" y="585" type="curve" smooth="yes"/>
      <point x="817" y="660"/>
      <point x="723" y="724"/>
      <point x="554" y="724" type="curve"/>
      <point x="566" y="697"/>
      <point x="576" y="652"/>
      <point x="576" y="592" type="curve" smooth="yes"/>
      <point x="576" y="484"/>
      <point x="539" y="434"/>
      <point x="459" y="434" type="curve" smooth="yes"/>
      <point x="382" y="434"/>
      <point x="345" y="484"/>
      <point x="345" y="592" type="curve" smooth="yes"/>
      <point x="345" y="634"/>
      <point x="356" y="697"/>
      <point x="368" y="724" type="curve"/>
      <point x="256" y="724"/>
      <point x="101" y="692"/>
      <point x="101" y="584" type="curve" smooth="yes"/>
      <point x="101" y="512"/>
      <point x="163" y="444"/>
      <point x="345" y="427" type="curve"/>
      <point x="144" y="412"/>
      <point x="63" y="325"/>
      <point x="63" y="223" type="curve" smooth="yes"/>
      <point x="63" y="63"/>
      <point x="225" y="-10"/>
    </contour>
    <contour>
      <point x="453" y="0" type="curve" smooth="yes"/>
      <point x="358" y="0"/>
      <point x="310" y="75"/>
      <point x="310" y="222" type="curve" smooth="yes"/>
      <point x="310" y="355"/>
      <point x="362" y="424"/>
      <point x="460" y="424" type="curve" smooth="yes"/>
      <point x="559" y="424"/>
      <point x="609" y="355"/>
      <point x="609" y="222" type="curve" smooth="yes"/>
      <point x="609" y="75"/>
      <point x="555" y="0"/>
    </contour>
  </outline>
</glyph>
<glyph name="uni0234" format="2">
  <advance width="533"/>
  <unicode hex="0234"/>
  <anchor x="267" y="0" name="bottom"/>
  <anchor x="267" y="760" name="top"/>
  <outline>
    <contour>
      <point x="73" y="-58" type="line"/>
      <point x="84" y="3"/>
      <point x="101" y="56"/>
      <point x="124" y="98" type="curve"/>
      <point x="145" y="26"/>
      <point x="243" y="-10"/>
      <point x="340" y="-10" type="curve" smooth="yes"/>
      <point x="448" y="-10"/>
      <point x="537" y="34"/>
      <point x="537" y="110" type="curve" smooth="yes"/>
      <point x="537" y="185"/>
      <point x="477" y="231"/>
      <point x="381" y="231" type="curve" smooth="yes"/>
      <point x="365" y="231"/>
      <point x="351" y="230"/>
      <point x="337" y="227" type="curve"/>
      <point x="337" y="760" type="line"/>
      <point x="19" y="760" type="line"/>
      <point x="19" y="750" type="line"/>
      <point x="29" y="750" type="line" smooth="yes"/>
      <point x="39" y="750"/>
      <point x="110" y="749"/>
      <point x="110" y="689" type="curve" smooth="yes"/>
      <point x="110" y="231" type="line" smooth="yes"/>
      <point x="110" y="184"/>
      <point x="114" y="140"/>
      <point x="122" y="111" type="curve"/>
      <point x="96" y="66"/>
      <point x="75" y="10"/>
      <point x="63" y="-56" type="curve"/>
    </contour>
    <contour>
      <point x="422" y="23" type="curve" smooth="yes"/>
      <point x="349" y="23"/>
      <point x="337" y="68"/>
      <point x="337" y="217" type="curve"/>
      <point x="351" y="220"/>
      <point x="365" y="221"/>
      <point x="381" y="221" type="curve" smooth="yes"/>
      <point x="469" y="221"/>
      <point x="525" y="179"/>
      <point x="525" y="110" type="curve" smooth="yes"/>
      <point x="525" y="55"/>
      <point x="483" y="23"/>
    </contour>
  </outline>
</glyph>
<glyph name="uni023E" format="2">
  <advance width="795"/>
  <unicode hex="023E"/>
  <anchor x="397" y="0" name="bottom"/>
  <anchor x="397" y="714" name="top"/>
  <anchor x="816" y="714" name="topright"/>
  <anchor x="398" y="357" name="center"/>
  <outline>
    <contour>
      <point x="65" y="-104" type="line"/>
      <point x="77" y="-104" type="line"/>
      <point x="711" y="760" type="line"/>
      <point x="699" y="760" type="line"/>
    </contour>
    <component base="T"/>
  </outline>
</glyph>
<glyph name="uni0247" format="2">
  <advance width="697"/>
  <unicode hex="0247"/>
  <anchor x="348" y="-74" name="bottom"/>
  <anchor x="348" y="714" name="top"/>
  <anchor x="677" y="536" name="topright"/>
  <outline>
    <contour>
      <point x="200" y="-74" type="line"/>
      <point x="210" y="-74" type="line"/>
      <point x="492" y="714" type="line"/>
      <point x="482" y="714" type="line"/>
    </contour>
    <component base="e"/>
  </outline>
</glyph>
<glyph name="uni024F" format="2">
  <advance width="687"/>
  <unicode hex="024F"/>
  <anchor x="344" y="-217" name="bottom"/>
  <anchor x="344" y="536" name="top"/>
  <anchor x="697" y="536" name="topright"/>
  <outline>
    <contour>
      <point x="11" y="337" type="line"/>
      <point x="676" y="337" type="line"/>
      <point x="676" y="347" type="line"/>
      <point x="11" y="347" type="line"/>
    </contour>
    <component base="y"/>
  </outline>
</glyph>
<glyph name="uni0253" format="2">
  <advance width="787"/>
  <unicode hex="0253"/>
  <anchor x="394" y="0" name="bottom"/>
  <anchor x="394" y="769" name="top"/>
  <outline>
    <contour>
      <point x="518" y="-10" type="curve" smooth="yes"/>
      <point x="667" y="-10"/>
      <point x="737" y="97"/>
      <point x="737" y="275" type="curve"/>
      <point x="737" y="448"/>
      <point x="667" y="550"/>
      <point x="531" y="550" type="curve" smooth="yes"/>
      <point x="434" y="550"/>
      <point x="361" y="491"/>
      <point x="338" y="356" type="curve"/>
      <point x="336" y="356" type="line"/>
      <point x="336" y="451"/>
      <point x="336" y="563"/>
      <point x="336" y="610" type="curve" smooth="yes"/>
      <point x="336" y="669" type="line" smooth="yes"/>
      <point x="336" y="738"/>
      <point x="348" y="759"/>
      <point x="379" y="759" type="curve" smooth="yes"/>
      <point x="414" y="759"/>
      <point x="423" y="720"/>
      <point x="423" y="597" type="curve"/>
      <point x="548" y="597"/>
      <point x="575" y="634"/>
      <point x="575" y="678" type="curve" smooth="yes"/>
      <point x="575" y="719"/>
      <point x="542" y="769"/>
      <point x="370" y="769" type="curve" smooth="yes"/>
      <point x="179" y="769"/>
      <point x="110" y="686"/>
      <point x="110" y="559" type="curve"/>
      <point x="110" y="69" type="line" smooth="yes"/>
      <point x="110" y="11"/>
      <point x="51" y="10"/>
      <point x="26" y="10" type="curve" smooth="yes"/>
      <point x="19" y="10" type="line"/>
      <point x="19" y="0" type="line"/>
      <point x="336" y="0" type="line"/>
      <point x="336" y="167" type="line"/>
      <point x="338" y="167" type="line"/>
      <point x="359" y="40"/>
      <point x="412" y="-10"/>
    </contour>
    <contour>
      <point x="430" y="30" type="curve" smooth="yes"/>
      <point x="381" y="30"/>
      <point x="337" y="127"/>
      <point x="337" y="277" type="curve" smooth="yes"/>
      <point x="337" y="401"/>
      <point x="384" y="489"/>
      <point x="432" y="489" type="curve" smooth="yes"/>
      <point x="479" y="489"/>
      <point x="511" y="381"/>
      <point x="511" y="282" type="curve" smooth="yes"/>
      <point x="511" y="154"/>
      <point x="483" y="30"/>
    </contour>
  </outline>
</glyph>
<glyph name="uni0255" format="2">
  <advance width="623"/>
  <unicode hex="0255"/>
  <anchor x="311" y="0" name="bottom"/>
  <anchor x="311" y="536" name="top"/>
  <outline>
    <contour>
      <point x="179" y="-64" type="line"/>
      <point x="181" y="-41"/>
      <point x="188" y="-21"/>
      <point x="191" y="-1" type="curve"/>
      <point x="229" y="-8"/>
      <point x="278" y="-10"/>
      <point x="337" y="-10" type="curve" smooth="yes"/>
      <point x="517" y="-10"/>
      <point x="614" y="44"/>
      <point x="614" y="131" type="curve" smooth="yes"/>
      <point x="614" y="205"/>
      <point x="559" y="244"/>
      <point x="462" y="244" type="curve" smooth="yes"/>
      <point x="391" y="244"/>
      <point x="329" y="230"/>
      <point x="277" y="196" type="curve"/>
      <point x="275" y="219"/>
      <point x="275" y="247"/>
      <point x="275" y="283" type="curve" smooth="yes"/>
      <point x="275" y="478"/>
      <point x="295" y="539"/>
      <point x="355" y="539" type="curve" smooth="yes"/>
      <point x="405" y="539"/>
      <point x="419" y="488"/>
      <point x="419" y="327" type="curve"/>
      <point x="598" y="327"/>
      <point x="604" y="385"/>
      <point x="604" y="441" type="curve" smooth="yes"/>
      <point x="604" y="519"/>
      <point x="497" y="553"/>
      <point x="321" y="553" type="curve" smooth="yes"/>
      <point x="107" y="553"/>
      <point x="48" y="430"/>
      <point x="48" y="272" type="curve" smooth="yes"/>
      <point x="48" y="124"/>
      <point x="88" y="39"/>
      <point x="181" y="2" type="curve"/>
      <point x="175" y="-16"/>
      <point x="172" y="-38"/>
      <point x="169" y="-60" type="curve"/>
    </contour>
    <contour>
      <point x="404" y="11" type="curve" smooth="yes"/>
      <point x="326" y="11"/>
      <point x="287" y="41"/>
      <point x="276" y="185" type="curve"/>
      <point x="328" y="218"/>
      <point x="389" y="234"/>
      <point x="462" y="234" type="curve" smooth="yes"/>
      <point x="548" y="234"/>
      <point x="602" y="199"/>
      <point x="602" y="132" type="curve" smooth="yes"/>
      <point x="602" y="59"/>
      <point x="532" y="11"/>
    </contour>
  </outline>
</glyph>
<glyph name="uni0257" format="2">
  <advance width="787"/>
  <unicode hex="0257"/>
  <anchor x="394" y="0" name="bottom"/>
  <anchor x="394" y="769" name="top"/>
  <outline>
    <contour>
      <point x="267" y="-10" type="curve" smooth="yes"/>
      <point x="368" y="-10"/>
      <point x="421" y="42"/>
      <point x="447" y="177" type="curve"/>
      <point x="449" y="177" type="line"/>
      <point x="449" y="0" type="line"/>
      <point x="764" y="0" type="line"/>
      <point x="764" y="10" type="line"/>
      <point x="759" y="10" type="line" smooth="yes"/>
      <point x="734" y="10"/>
      <point x="675" y="11"/>
      <point x="675" y="69" type="curve" smooth="yes"/>
      <point x="675" y="669" type="line" smooth="yes"/>
      <point x="675" y="738"/>
      <point x="686" y="759"/>
      <point x="717" y="759" type="curve" smooth="yes"/>
      <point x="752" y="759"/>
      <point x="761" y="720"/>
      <point x="761" y="597" type="curve"/>
      <point x="886" y="597"/>
      <point x="913" y="634"/>
      <point x="913" y="678" type="curve" smooth="yes"/>
      <point x="913" y="719"/>
      <point x="880" y="769"/>
      <point x="708" y="769" type="curve" smooth="yes"/>
      <point x="517" y="769"/>
      <point x="448" y="686"/>
      <point x="448" y="559" type="curve" smooth="yes"/>
      <point x="448" y="477" type="line" smooth="yes"/>
      <point x="448" y="432"/>
      <point x="448" y="451"/>
      <point x="449" y="356" type="curve"/>
      <point x="447" y="356" type="line"/>
      <point x="424" y="491"/>
      <point x="351" y="550"/>
      <point x="254" y="550" type="curve" smooth="yes"/>
      <point x="118" y="550"/>
      <point x="46" y="448"/>
      <point x="46" y="275" type="curve" smooth="yes"/>
      <point x="46" y="97"/>
      <point x="118" y="-10"/>
    </contour>
    <contour>
      <point x="352" y="30" type="curve" smooth="yes"/>
      <point x="302" y="30"/>
      <point x="274" y="154"/>
      <point x="274" y="282" type="curve" smooth="yes"/>
      <point x="274" y="381"/>
      <point x="306" y="490"/>
      <point x="353" y="490" type="curve" smooth="yes"/>
      <point x="399" y="490"/>
      <point x="448" y="401"/>
      <point x="448" y="277" type="curve" smooth="yes"/>
      <point x="448" y="127"/>
      <point x="393" y="30"/>
    </contour>
  </outline>
</glyph>
<glyph name="uni0259" format="2">
  <advance width="697"/>
  <unicode hex="0259"/>
  <anchor x="348" y="0" name="bottom"/>
  <anchor x="348" y="536" name="top"/>
  <outline>
    <contour>
      <point x="343" y="-10" type="curve" smooth="yes"/>
      <point x="541" y="-10"/>
      <point x="654" y="87"/>
      <point x="654" y="275" type="curve" smooth="yes"/>
      <point x="654" y="451"/>
      <point x="541" y="552"/>
      <point x="321" y="552" type="curve" smooth="yes"/>
      <point x="185" y="552"/>
      <point x="70" y="516"/>
      <point x="70" y="425" type="curve" smooth="yes"/>
      <point x="70" y="381"/>
      <point x="96" y="363"/>
      <point x="142" y="355" type="curve"/>
      <point x="137" y="470"/>
      <point x="166" y="538"/>
      <point x="261" y="538" type="curve" smooth="yes"/>
      <point x="379" y="538"/>
      <point x="424" y="450"/>
      <point x="426" y="257" type="curve"/>
      <point x="48" y="257" type="line"/>
      <point x="48" y="232" type="line" smooth="yes"/>
      <point x="48" y="72"/>
      <point x="160" y="-10"/>
    </contour>
    <contour>
      <point x="344" y="0" type="curve" smooth="yes"/>
      <point x="288" y="0"/>
      <point x="270" y="69"/>
      <point x="270" y="247" type="curve"/>
      <point x="426" y="247" type="line"/>
      <point x="426" y="69"/>
      <point x="397" y="0"/>
    </contour>
  </outline>
</glyph>
<glyph name="uni025E" format="2">
  <advance width="734"/>
  <unicode hex="025E"/>
  <anchor x="367" y="0" name="bottom"/>
  <anchor x="367" y="536" name="top"/>
  <outline>
    <contour>
      <point x="373" y="-10" type="curve" smooth="yes"/>
      <point x="567" y="-10"/>
      <point x="690" y="8"/>
      <point x="690" y="128" type="curve" smooth="yes"/>
      <point x="690" y="219"/>
      <point x="617" y="286"/>
      <point x="379" y="293" type="curve"/>
      <point x="379" y="295" type="line"/>
      <point x="628" y="295"/>
      <point x="683" y="344"/>
      <point x="683" y="408" type="curve" smooth="yes"/>
      <point x="683" y="542"/>
      <point x="523" y="553"/>
      <point x="410" y="553" type="curve" smooth="yes"/>
      <point x="155" y="553"/>
      <point x="48" y="453"/>
      <point x="48" y="272" type="curve" smooth="yes"/>
      <point x="48" y="102"/>
      <point x="161" y="-10"/>
    </contour>
    <contour>
      <point x="383" y="0" type="curve" smooth="yes"/>
      <point x="307" y="0"/>
      <point x="278" y="75"/>
      <point x="278" y="272" type="curve" smooth="yes"/>
      <point x="278" y="456"/>
      <point x="312" y="543"/>
      <point x="390" y="543" type="curve" smooth="yes"/>
      <point x="433" y="543"/>
      <point x="452" y="508"/>
      <point x="452" y="434" type="curve" smooth="yes"/>
      <point x="452" y="388"/>
      <point x="431" y="301"/>
      <point x="359" y="301" type="curve" smooth="yes"/>
      <point x="350" y="301" type="line"/>
      <point x="350" y="293" type="line"/>
      <point x="367" y="293" type="line" smooth="yes"/>
      <point x="428" y="293"/>
      <point x="460" y="241"/>
      <point x="460" y="151" type="curve" smooth="yes"/>
      <point x="460" y="41"/>
      <point x="439" y="0"/>
    </contour>
  </outline>
</glyph>
<glyph name="uni0260" format="2">
  <advance width="785"/>
  <unicode hex="0260"/>
  <anchor x="393" y="-228" name="bottom"/>
  <anchor x="393" y="769" name="top"/>
  <outline>
    <contour>
      <point x="330" y="-228" type="curve" smooth="yes"/>
      <point x="561" y="-228"/>
      <point x="675" y="-109"/>
      <point x="675" y="50" type="curve" smooth="yes"/>
      <point x="675" y="669" type="line" smooth="yes"/>
      <point x="675" y="736"/>
      <point x="696" y="759"/>
      <point x="719" y="759" type="curve" smooth="yes"/>
      <point x="756" y="759"/>
      <point x="761" y="712"/>
      <point x="761" y="597" type="curve"/>
      <point x="886" y="597"/>
      <point x="913" y="634"/>
      <point x="913" y="678" type="curve" smooth="yes"/>
      <point x="913" y="719"/>
      <point x="880" y="769"/>
      <point x="708" y="769" type="curve" smooth="yes"/>
      <point x="517" y="769"/>
      <point x="448" y="686"/>
      <point x="448" y="559" type="curve" smooth="yes"/>
      <point x="448" y="536" type="line" smooth="yes"/>
      <point x="448" y="477"/>
      <point x="447" y="415"/>
      <point x="449" y="356" type="curve"/>
      <point x="447" y="356" type="line"/>
      <point x="424" y="491"/>
      <point x="351" y="550"/>
      <point x="254" y="550" type="curve" smooth="yes"/>
      <point x="118" y="550"/>
      <point x="46" y="448"/>
      <point x="46" y="275" type="curve" smooth="yes"/>
      <point x="46" y="97"/>
      <point x="118" y="-10"/>
      <point x="267" y="-10" type="curve" smooth="yes"/>
      <point x="373" y="-10"/>
      <point x="426" y="40"/>
      <point x="447" y="167" type="curve"/>
      <point x="449" y="167" type="line"/>
      <point x="449" y="80"/>
      <point x="449" y="28"/>
      <point x="449" y="-7" type="curve" smooth="yes"/>
      <point x="449" y="23" type="line" smooth="yes"/>
      <point x="449" y="-177"/>
      <point x="408" y="-218"/>
      <point x="321" y="-218" type="curve" smooth="yes"/>
      <point x="248" y="-218"/>
      <point x="213" y="-206"/>
      <point x="213" y="-10" type="curve"/>
      <point x="112" y="-13"/>
      <point x="69" y="-42"/>
      <point x="69" y="-94" type="curve" smooth="yes"/>
      <point x="69" y="-200"/>
      <point x="173" y="-228"/>
    </contour>
    <contour>
      <point x="355" y="30" type="curve" smooth="yes"/>
      <point x="302" y="30"/>
      <point x="274" y="154"/>
      <point x="274" y="282" type="curve" smooth="yes"/>
      <point x="274" y="381"/>
      <point x="306" y="489"/>
      <point x="353" y="489" type="curve" smooth="yes"/>
      <point x="401" y="489"/>
      <point x="448" y="401"/>
      <point x="448" y="277" type="curve" smooth="yes"/>
      <point x="448" y="127"/>
      <point x="404" y="30"/>
    </contour>
  </outline>
</glyph>
<glyph name="uni0266" format="2">
  <advance width="806"/>
  <unicode hex="0266"/>
  <anchor x="404" y="0" name="bottom"/>
  <anchor x="404" y="769" name="top"/>
  <outline>
    <contour>
      <point x="24" y="0" type="line"/>
      <point x="415" y="0" type="line"/>
      <point x="415" y="10" type="line"/>
      <point x="410" y="10" type="line"/>
      <point x="362" y="10"/>
      <point x="337" y="14"/>
      <point x="337" y="73" type="curve" smooth="yes"/>
      <point x="337" y="332" type="line" smooth="yes"/>
      <point x="337" y="385"/>
      <point x="344" y="492"/>
      <point x="409" y="492" type="curve" smooth="yes"/>
      <point x="465" y="492"/>
      <point x="477" y="446"/>
      <point x="477" y="379" type="curve" smooth="yes"/>
      <point x="477" y="0" type="line"/>
      <point x="777" y="0" type="line"/>
      <point x="777" y="10" type="line"/>
      <point x="772" y="10" type="line" smooth="yes"/>
      <point x="719" y="10"/>
      <point x="703" y="11"/>
      <point x="703" y="80" type="curve" smooth="yes"/>
      <point x="703" y="363" type="line" smooth="yes"/>
      <point x="703" y="496"/>
      <point x="639" y="552"/>
      <point x="514" y="552" type="curve" smooth="yes"/>
      <point x="411" y="552"/>
      <point x="355" y="512"/>
      <point x="336" y="421" type="curve"/>
      <point x="334" y="421" type="line"/>
      <point x="336" y="486"/>
      <point x="336" y="533"/>
      <point x="336" y="598" type="curve" smooth="yes"/>
      <point x="336" y="673" type="line" smooth="yes"/>
      <point x="336" y="739"/>
      <point x="347" y="759"/>
      <point x="377" y="759" type="curve" smooth="yes"/>
      <point x="412" y="759"/>
      <point x="423" y="760"/>
      <point x="423" y="597" type="curve"/>
      <point x="548" y="597"/>
      <point x="575" y="634"/>
      <point x="575" y="678" type="curve" smooth="yes"/>
      <point x="575" y="719"/>
      <point x="542" y="769"/>
      <point x="370" y="769" type="curve" smooth="yes"/>
      <point x="179" y="769"/>
      <point x="110" y="686"/>
      <point x="110" y="559" type="curve" smooth="yes"/>
      <point x="110" y="76" type="line" smooth="yes"/>
      <point x="110" y="12"/>
      <point x="76" y="10"/>
      <point x="29" y="10" type="curve" smooth="yes"/>
      <point x="24" y="10" type="line"/>
    </contour>
  </outline>
</glyph>
<glyph name="uni026C" format="2">
  <advance width="534"/>
  <unicode hex="026C"/>
  <anchor x="268" y="0" name="bottom"/>
  <anchor x="268" y="760" name="top"/>
  <outline>
    <contour>
      <point x="118" y="0" type="line"/>
      <point x="517" y="0" type="line"/>
      <point x="517" y="10" type="line"/>
      <point x="513" y="10" type="line" smooth="yes"/>
      <point x="501" y="10"/>
      <point x="431" y="10"/>
      <point x="431" y="75" type="curve" smooth="yes"/>
      <point x="431" y="305" type="line"/>
      <point x="530" y="305" type="line"/>
      <point x="530" y="315" type="line"/>
      <point x="431" y="315" type="line"/>
      <point x="431" y="760" type="line"/>
      <point x="117" y="760" type="line"/>
      <point x="117" y="750" type="line"/>
      <point x="118" y="750" type="line" smooth="yes"/>
      <point x="131" y="750"/>
      <point x="204" y="749"/>
      <point x="204" y="689" type="curve" smooth="yes"/>
      <point x="204" y="459" type="line"/>
      <point x="189" y="483"/>
      <point x="159" y="496"/>
      <point x="126" y="496" type="curve" smooth="yes"/>
      <point x="69" y="496"/>
      <point x="34" y="460"/>
      <point x="34" y="401" type="curve" smooth="yes"/>
      <point x="34" y="338"/>
      <point x="81" y="305"/>
      <point x="172" y="305" type="curve" smooth="yes"/>
      <point x="204" y="305" type="line"/>
      <point x="204" y="75" type="line" smooth="yes"/>
      <point x="204" y="10"/>
      <point x="133" y="10"/>
      <point x="118" y="10" type="curve" smooth="yes"/>
      <point x="118" y="10" type="line"/>
    </contour>
    <contour>
      <point x="172" y="315" type="line" smooth="yes"/>
      <point x="90" y="315"/>
      <point x="46" y="344"/>
      <point x="46" y="401" type="curve" smooth="yes"/>
      <point x="46" y="454"/>
      <point x="77" y="486"/>
      <point x="126" y="486" type="curve" smooth="yes"/>
      <point x="174" y="486"/>
      <point x="204" y="456"/>
      <point x="204" y="423" type="curve" smooth="yes"/>
      <point x="204" y="315" type="line"/>
    </contour>
  </outline>
</glyph>
<glyph name="uni0274" format="2">
  <advance width="775"/>
  <unicode hex="0274"/>
  <anchor x="388" y="0" name="bottom"/>
  <anchor x="388" y="446" name="top"/>
  <outline>
    <contour>
      <point x="16" y="0" type="line"/>
      <point x="217" y="0" type="line"/>
      <point x="217" y="10" type="line"/>
      <point x="181" y="10" type="line" smooth="yes"/>
      <point x="126" y="10"/>
      <point x="105" y="24"/>
      <point x="105" y="45" type="curve" smooth="yes"/>
      <point x="105" y="502" type="line"/>
      <point x="529" y="0" type="line"/>
      <point x="674" y="0" type="line"/>
      <point x="674" y="471" type="line" smooth="yes"/>
      <point x="674" y="515"/>
      <point x="688" y="526"/>
      <point x="748" y="526" type="curve" smooth="yes"/>
      <point x="756" y="526" type="line"/>
      <point x="756" y="536" type="line"/>
      <point x="555" y="536" type="line"/>
      <point x="555" y="526" type="line"/>
      <point x="589" y="526" type="line" smooth="yes"/>
      <point x="652" y="526"/>
      <point x="664" y="513"/>
      <point x="664" y="468" type="curve" smooth="yes"/>
      <point x="664" y="159" type="line"/>
      <point x="340" y="536" type="line"/>
      <point x="16" y="536" type="line"/>
      <point x="16" y="526" type="line"/>
      <point x="29" y="526" type="line" smooth="yes"/>
      <point x="86" y="526"/>
      <point x="95" y="513"/>
      <point x="95" y="492" type="curve" smooth="yes"/>
      <point x="95" y="45" type="line" smooth="yes"/>
      <point x="95" y="24"/>
      <point x="84" y="10"/>
      <point x="30" y="10" type="curve" smooth="yes"/>
      <point x="16" y="10" type="line"/>
    </contour>
  </outline>
</glyph>
<glyph name="omegaclosed" format="2">
  <advance width="961"/>
  <unicode hex="0277"/>
  <anchor x="480" y="0" name="bottom"/>
  <anchor x="480" y="536" name="top"/>
  <outline>
    <contour>
      <point x="282" y="-10" type="curve" smooth="yes"/>
      <point x="407" y="-10"/>
      <point x="436" y="42"/>
      <point x="480" y="67" type="curve"/>
      <point x="480" y="67" type="line"/>
      <point x="525" y="42"/>
      <point x="554" y="-10"/>
      <point x="679" y="-10" type="curve" smooth="yes"/>
      <point x="822" y="-10"/>
      <point x="912" y="93"/>
      <point x="912" y="227" type="curve" smooth="yes"/>
      <point x="912" y="420"/>
      <point x="815" y="553"/>
      <point x="477" y="553" type="curve" smooth="yes"/>
      <point x="176" y="553"/>
      <point x="48" y="420"/>
      <point x="48" y="227" type="curve" smooth="yes"/>
      <point x="48" y="93"/>
      <point x="137" y="-10"/>
    </contour>
    <contour>
      <point x="348" y="14" type="curve" smooth="yes"/>
      <point x="283" y="14"/>
      <point x="270" y="72"/>
      <point x="270" y="229" type="curve" smooth="yes"/>
      <point x="270" y="444"/>
      <point x="336" y="543"/>
      <point x="483" y="543" type="curve" smooth="yes"/>
      <point x="627" y="543"/>
      <point x="691" y="444"/>
      <point x="691" y="229" type="curve" smooth="yes"/>
      <point x="691" y="73"/>
      <point x="680" y="15"/>
      <point x="615" y="15" type="curve" smooth="yes"/>
      <point x="578" y="15"/>
      <point x="545" y="11"/>
      <point x="530" y="54" type="curve"/>
      <point x="530" y="365" type="line"/>
      <point x="432" y="365" type="line"/>
      <point x="432" y="54" type="line"/>
      <point x="415" y="11"/>
      <point x="384" y="14"/>
    </contour>
  </outline>
</glyph>
<glyph name="uni027A" format="2">
  <advance width="654"/>
  <unicode hex="027A"/>
  <anchor x="328" y="0" name="bottom"/>
  <anchor x="328" y="760" name="top"/>
  <outline>
    <contour>
      <point x="147" y="-14" type="curve" smooth="yes"/>
      <point x="231" y="-14"/>
      <point x="302" y="32"/>
      <point x="324" y="117" type="curve"/>
      <point x="326" y="117" type="line"/>
      <point x="326" y="0" type="line"/>
      <point x="628" y="0" type="line"/>
      <point x="628" y="10" type="line"/>
      <point x="622" y="10" type="line" smooth="yes"/>
      <point x="575" y="10"/>
      <point x="550" y="13"/>
      <point x="550" y="85" type="curve" smooth="yes"/>
      <point x="550" y="760" type="line"/>
      <point x="212" y="760" type="line"/>
      <point x="212" y="750" type="line"/>
      <point x="273" y="750" type="line" smooth="yes"/>
      <point x="293" y="750"/>
      <point x="324" y="750"/>
      <point x="324" y="681" type="curve" smooth="yes"/>
      <point x="324" y="234" type="line" smooth="yes"/>
      <point x="324" y="126"/>
      <point x="310" y="53"/>
      <point x="245" y="53" type="curve" smooth="yes"/>
      <point x="202" y="53"/>
      <point x="188" y="95"/>
      <point x="188" y="205" type="curve"/>
      <point x="88" y="205"/>
      <point x="14" y="163"/>
      <point x="14" y="90" type="curve" smooth="yes"/>
      <point x="14" y="35"/>
      <point x="58" y="-14"/>
    </contour>
  </outline>
</glyph>
<glyph name="rlongleg" format="2">
  <advance width="654"/>
  <unicode hex="027C"/>
  <anchor x="328" y="-217" name="bottom"/>
  <anchor x="328" y="536" name="top"/>
  <outline>
    <contour>
      <point x="12" y="-217" type="line"/>
      <point x="439" y="-217" type="line"/>
      <point x="439" y="-207" type="line"/>
      <point x="378" y="-207" type="line" smooth="yes"/>
      <point x="358" y="-207"/>
      <point x="327" y="-207"/>
      <point x="327" y="-138" type="curve" smooth="yes"/>
      <point x="327" y="302" type="line" smooth="yes"/>
      <point x="327" y="410"/>
      <point x="341" y="483"/>
      <point x="406" y="483" type="curve" smooth="yes"/>
      <point x="449" y="483"/>
      <point x="463" y="441"/>
      <point x="463" y="331" type="curve"/>
      <point x="563" y="331"/>
      <point x="637" y="373"/>
      <point x="637" y="446" type="curve" smooth="yes"/>
      <point x="637" y="501"/>
      <point x="593" y="550"/>
      <point x="504" y="550" type="curve" smooth="yes"/>
      <point x="420" y="550"/>
      <point x="349" y="504"/>
      <point x="327" y="419" type="curve"/>
      <point x="325" y="419" type="line"/>
      <point x="325" y="536" type="line"/>
      <point x="23" y="536" type="line"/>
      <point x="23" y="526" type="line"/>
      <point x="29" y="526" type="line" smooth="yes"/>
      <point x="76" y="526"/>
      <point x="101" y="523"/>
      <point x="101" y="451" type="curve" smooth="yes"/>
      <point x="101" y="-128" type="line" smooth="yes"/>
      <point x="101" y="-205"/>
      <point x="64" y="-207"/>
      <point x="20" y="-207" type="curve" smooth="yes"/>
      <point x="12" y="-207" type="line"/>
    </contour>
  </outline>
</glyph>
<glyph name="uni027E" format="2">
  <advance width="671"/>
  <unicode hex="027E"/>
  <anchor x="335" y="0" name="bottom"/>
  <anchor x="335" y="536" name="top"/>
  <outline>
    <contour>
      <point x="2" y="0" type="line"/>
      <point x="430" y="0" type="line"/>
      <point x="430" y="10" type="line"/>
      <point x="389" y="10" type="line" smooth="yes"/>
      <point x="348" y="10"/>
      <point x="318" y="17"/>
      <point x="318" y="75" type="curve" smooth="yes"/>
      <point x="318" y="444" type="line" smooth="yes"/>
      <point x="318" y="518"/>
      <point x="333" y="542"/>
      <point x="383" y="542" type="curve" smooth="yes"/>
      <point x="441" y="542"/>
      <point x="458" y="487"/>
      <point x="458" y="311" type="curve"/>
      <point x="563" y="311"/>
      <point x="635" y="333"/>
      <point x="635" y="416" type="curve" smooth="yes"/>
      <point x="635" y="481"/>
      <point x="580" y="552"/>
      <point x="398" y="552" type="curve" smooth="yes"/>
      <point x="198" y="552"/>
      <point x="91" y="490"/>
      <point x="91" y="297" type="curve" smooth="yes"/>
      <point x="91" y="81" type="line" smooth="yes"/>
      <point x="91" y="26"/>
      <point x="66" y="10"/>
      <point x="16" y="10" type="curve" smooth="yes"/>
      <point x="2" y="10" type="line"/>
    </contour>
  </outline>
</glyph>
<glyph name="uni0283" format="2">
  <advance width="674"/>
  <unicode hex="0283"/>
  <anchor x="338" y="-232" name="bottom"/>
  <anchor x="338" y="764" name="top"/>
  <outline>
    <contour>
      <point x="144" y="-232" type="curve" smooth="yes"/>
      <point x="344" y="-232"/>
      <point x="451" y="-169"/>
      <point x="451" y="22" type="curve" smooth="yes"/>
      <point x="451" y="655" type="line" smooth="yes"/>
      <point x="451" y="730"/>
      <point x="469" y="754"/>
      <point x="519" y="754" type="curve" smooth="yes"/>
      <point x="578" y="754"/>
      <point x="590" y="698"/>
      <point x="590" y="545" type="curve"/>
      <point x="695" y="545"/>
      <point x="767" y="564"/>
      <point x="767" y="627" type="curve" smooth="yes"/>
      <point x="767" y="692"/>
      <point x="712" y="764"/>
      <point x="530" y="764" type="curve" smooth="yes"/>
      <point x="331" y="764"/>
      <point x="223" y="701"/>
      <point x="223" y="510" type="curve" smooth="yes"/>
      <point x="223" y="-141" type="line" smooth="yes"/>
      <point x="223" y="-202"/>
      <point x="211" y="-222"/>
      <point x="163" y="-222" type="curve" smooth="yes"/>
      <point x="104" y="-222"/>
      <point x="84" y="-166"/>
      <point x="84" y="-12" type="curve"/>
      <point x="-21" y="-12"/>
      <point x="-93" y="-32"/>
      <point x="-93" y="-94" type="curve" smooth="yes"/>
      <point x="-93" y="-160"/>
      <point x="-39" y="-232"/>
    </contour>
  </outline>
</glyph>
<glyph name="uni0284" format="2">
  <advance width="625"/>
  <unicode hex="0284"/>
  <anchor x="313" y="-240" name="bottom"/>
  <anchor x="313" y="764" name="top"/>
  <outline>
    <contour>
      <point x="10" y="-240" type="line"/>
      <point x="57" y="-240" type="line" smooth="yes"/>
      <point x="237" y="-240"/>
      <point x="402" y="-181"/>
      <point x="402" y="-2" type="curve" smooth="yes"/>
      <point x="402" y="228" type="line"/>
      <point x="544" y="228" type="line"/>
      <point x="544" y="238" type="line"/>
      <point x="402" y="238" type="line"/>
      <point x="402" y="655" type="line" smooth="yes"/>
      <point x="402" y="728"/>
      <point x="426" y="754"/>
      <point x="472" y="754" type="curve" smooth="yes"/>
      <point x="525" y="754"/>
      <point x="542" y="720"/>
      <point x="542" y="545" type="curve"/>
      <point x="646" y="545"/>
      <point x="718" y="564"/>
      <point x="718" y="627" type="curve" smooth="yes"/>
      <point x="718" y="692"/>
      <point x="664" y="764"/>
      <point x="481" y="764" type="curve" smooth="yes"/>
      <point x="282" y="764"/>
      <point x="175" y="701"/>
      <point x="175" y="510" type="curve" smooth="yes"/>
      <point x="175" y="238" type="line"/>
      <point x="39" y="238" type="line"/>
      <point x="39" y="228" type="line"/>
      <point x="175" y="228" type="line"/>
      <point x="175" y="-59" type="line" smooth="yes"/>
      <point x="175" y="-189"/>
      <point x="147" y="-230"/>
      <point x="38" y="-230" type="curve" smooth="yes"/>
      <point x="10" y="-230" type="line"/>
    </contour>
  </outline>
</glyph>
<glyph name="uni0288" format="2">
  <advance width="517"/>
  <unicode hex="0288"/>
  <anchor x="258" y="-240" name="bottom"/>
  <anchor x="258" y="662" name="top"/>
  <outline>
    <contour>
      <point x="307" y="-240" type="curve" smooth="yes"/>
      <point x="404" y="-240"/>
      <point x="468" y="-217"/>
      <point x="496" y="-204" type="curve"/>
      <point x="496" y="-194" type="line"/>
      <point x="469" y="-208"/>
      <point x="442" y="-217"/>
      <point x="417" y="-217" type="curve" smooth="yes"/>
      <point x="372" y="-217"/>
      <point x="338" y="-189"/>
      <point x="338" y="-132" type="curve" smooth="yes"/>
      <point x="338" y="526" type="line"/>
      <point x="486" y="526" type="line"/>
      <point x="486" y="536" type="line"/>
      <point x="338" y="536" type="line"/>
      <point x="338" y="662" type="line"/>
      <point x="328" y="662" type="line"/>
      <point x="293" y="618"/>
      <point x="252" y="586"/>
      <point x="200" y="565" type="curve" smooth="yes"/>
      <point x="153" y="545"/>
      <point x="94" y="536"/>
      <point x="25" y="536" type="curve"/>
      <point x="25" y="526" type="line"/>
      <point x="112" y="526" type="line"/>
      <point x="112" y="-79" type="line" smooth="yes"/>
      <point x="112" y="-197"/>
      <point x="187" y="-240"/>
    </contour>
  </outline>
</glyph>
<glyph name="ezhcurl" format="2">
  <advance width="662"/>
  <unicode hex="0293"/>
  <anchor x="331" y="-244" name="bottom"/>
  <anchor x="331" y="536" name="top"/>
  <outline>
    <contour>
      <point x="245" y="-240" type="curve" smooth="yes"/>
      <point x="434" y="-240"/>
      <point x="524" y="-206"/>
      <point x="575" y="-151" type="curve"/>
      <point x="592" y="-172"/>
      <point x="607" y="-195"/>
      <point x="624" y="-221" type="curve"/>
      <point x="632" y="-215" type="line"/>
      <point x="614" y="-188"/>
      <point x="600" y="-166"/>
      <point x="582" y="-143" type="curve"/>
      <point x="613" y="-102"/>
      <point x="627" y="-70"/>
      <point x="627" y="-20" type="curve" smooth="yes"/>
      <point x="627" y="87"/>
      <point x="510" y="151"/>
      <point x="267" y="151" type="curve"/>
      <point x="606" y="420" type="line"/>
      <point x="606" y="536" type="line"/>
      <point x="84" y="536" type="line"/>
      <point x="55" y="283" type="line"/>
      <point x="66" y="283" type="line"/>
      <point x="75" y="319" type="line" smooth="yes"/>
      <point x="91" y="378"/>
      <point x="114" y="397"/>
      <point x="172" y="397" type="curve" smooth="yes"/>
      <point x="561" y="397" type="line"/>
      <point x="250" y="151" type="line"/>
      <point x="250" y="141" type="line"/>
      <point x="257" y="141" type="line" smooth="yes"/>
      <point x="364" y="141"/>
      <point x="399" y="103"/>
      <point x="399" y="-20" type="curve" smooth="yes"/>
      <point x="399" y="-27"/>
      <point x="399" y="-36"/>
      <point x="399" y="-43" type="curve"/>
      <point x="335" y="3"/>
      <point x="291" y="23"/>
      <point x="217" y="23" type="curve" smooth="yes"/>
      <point x="93" y="23"/>
      <point x="16" y="-26"/>
      <point x="16" y="-106" type="curve" smooth="yes"/>
      <point x="16" y="-189"/>
      <point x="103" y="-240"/>
    </contour>
    <contour>
      <point x="250" y="-225" type="curve" smooth="yes"/>
      <point x="105" y="-225"/>
      <point x="29" y="-181"/>
      <point x="29" y="-108" type="curve" smooth="yes"/>
      <point x="29" y="-33"/>
      <point x="102" y="13"/>
      <point x="219" y="13" type="curve" smooth="yes"/>
      <point x="291" y="13"/>
      <point x="335" y="-8"/>
      <point x="397" y="-57" type="curve"/>
      <point x="388" y="-163"/>
      <point x="352" y="-225"/>
    </contour>
  </outline>
</glyph>
<glyph name="uni0294" format="2">
  <advance width="637"/>
  <unicode hex="0294"/>
  <anchor x="318" y="0" name="bottom"/>
  <anchor x="318" y="766" name="top"/>
  <outline>
    <contour>
      <point x="124" y="0" type="line"/>
      <point x="506" y="0" type="line"/>
      <point x="506" y="10" type="line"/>
      <point x="474" y="10" type="line" smooth="yes"/>
      <point x="455" y="10"/>
      <point x="423" y="10"/>
      <point x="423" y="75" type="curve" smooth="yes"/>
      <point x="423" y="348" type="line"/>
      <point x="552" y="395"/>
      <point x="609" y="455"/>
      <point x="609" y="565" type="curve" smooth="yes"/>
      <point x="609" y="695"/>
      <point x="507" y="766"/>
      <point x="272" y="766" type="curve" smooth="yes"/>
      <point x="84" y="766"/>
      <point x="30" y="667"/>
      <point x="30" y="619" type="curve" smooth="yes"/>
      <point x="30" y="535"/>
      <point x="66" y="508"/>
      <point x="227" y="508" type="curve"/>
      <point x="227" y="708"/>
      <point x="248" y="756"/>
      <point x="300" y="756" type="curve" smooth="yes"/>
      <point x="350" y="756"/>
      <point x="364" y="717"/>
      <point x="364" y="594" type="curve" smooth="yes"/>
      <point x="364" y="438"/>
      <point x="317" y="368"/>
      <point x="204" y="333" type="curve"/>
      <point x="204" y="75" type="line" smooth="yes"/>
      <point x="204" y="10"/>
      <point x="172" y="10"/>
      <point x="153" y="10" type="curve" smooth="yes"/>
      <point x="124" y="10" type="line"/>
    </contour>
  </outline>
</glyph>
<glyph name="cstretched" format="2">
  <advance width="645"/>
  <unicode hex="0297"/>
  <anchor x="323" y="-242" name="bottom"/>
  <anchor x="323" y="536" name="top"/>
  <outline>
    <contour>
      <point x="366" y="-242" type="curve" smooth="yes"/>
      <point x="562" y="-242"/>
      <point x="609" y="-182"/>
      <point x="609" y="-137" type="curve" smooth="yes"/>
      <point x="609" y="-98"/>
      <point x="580" y="-81"/>
      <point x="555" y="-83" type="curve"/>
      <point x="539" y="-172"/>
      <point x="504" y="-230"/>
      <point x="420" y="-230" type="curve" smooth="yes"/>
      <point x="297" y="-230"/>
      <point x="276" y="-111"/>
      <point x="276" y="149" type="curve" smooth="yes"/>
      <point x="276" y="488"/>
      <point x="298" y="542"/>
      <point x="363" y="542" type="curve" smooth="yes"/>
      <point x="416" y="542"/>
      <point x="430" y="528"/>
      <point x="430" y="314" type="curve"/>
      <point x="555" y="314"/>
      <point x="612" y="346"/>
      <point x="612" y="413" type="curve" smooth="yes"/>
      <point x="612" y="481"/>
      <point x="552" y="552"/>
      <point x="384" y="552" type="curve" smooth="yes"/>
      <point x="183" y="552"/>
      <point x="48" y="454"/>
      <point x="48" y="153" type="curve" smooth="yes"/>
      <point x="48" y="-133"/>
      <point x="156" y="-242"/>
    </contour>
  </outline>
</glyph>
<glyph name="uni02A4" format="2">
  <advance width="1207"/>
  <unicode hex="02A4"/>
  <anchor x="603" y="-240" name="bottom"/>
  <anchor x="603" y="760" name="top"/>
  <outline>
    <contour>
      <point x="838" y="-240" type="curve" smooth="yes"/>
      <point x="1041" y="-240"/>
      <point x="1173" y="-170"/>
      <point x="1173" y="-62" type="curve" smooth="yes"/>
      <point x="1173" y="79"/>
      <point x="1057" y="151"/>
      <point x="813" y="151" type="curve"/>
      <point x="1151" y="420" type="line"/>
      <point x="1151" y="536" type="line"/>
      <point x="675" y="536" type="line"/>
      <point x="675" y="760" type="line"/>
      <point x="346" y="760" type="line"/>
      <point x="346" y="750" type="line"/>
      <point x="366" y="750" type="line" smooth="yes"/>
      <point x="414" y="750"/>
      <point x="448" y="735"/>
      <point x="448" y="679" type="curve" smooth="yes"/>
      <point x="448" y="610" type="line" smooth="yes"/>
      <point x="448" y="563"/>
      <point x="448" y="451"/>
      <point x="449" y="356" type="curve"/>
      <point x="447" y="356" type="line"/>
      <point x="424" y="491"/>
      <point x="351" y="550"/>
      <point x="254" y="550" type="curve" smooth="yes"/>
      <point x="118" y="550"/>
      <point x="46" y="448"/>
      <point x="46" y="275" type="curve" smooth="yes"/>
      <point x="46" y="97"/>
      <point x="118" y="-10"/>
      <point x="267" y="-10" type="curve" smooth="yes"/>
      <point x="368" y="-10"/>
      <point x="421" y="42"/>
      <point x="447" y="177" type="curve"/>
      <point x="449" y="177" type="line"/>
      <point x="449" y="0" type="line"/>
      <point x="764" y="0" type="line"/>
      <point x="764" y="10" type="line"/>
      <point x="759" y="10" type="line" smooth="yes"/>
      <point x="734" y="10"/>
      <point x="675" y="11"/>
      <point x="675" y="69" type="curve" smooth="yes"/>
      <point x="675" y="397" type="line"/>
      <point x="1106" y="397" type="line"/>
      <point x="795" y="151" type="line"/>
      <point x="795" y="141" type="line"/>
      <point x="802" y="141" type="line" smooth="yes"/>
      <point x="909" y="141"/>
      <point x="944" y="103"/>
      <point x="944" y="-20" type="curve" smooth="yes"/>
      <point x="944" y="-179"/>
      <point x="919" y="-230"/>
      <point x="825" y="-230" type="curve" smooth="yes"/>
      <point x="736" y="-230"/>
      <point x="694" y="-166"/>
      <point x="694" y="-18" type="curve"/>
      <point x="587" y="-18"/>
      <point x="558" y="-42"/>
      <point x="558" y="-93" type="curve" smooth="yes"/>
      <point x="558" y="-151"/>
      <point x="601" y="-240"/>
    </contour>
    <contour>
      <point x="352" y="30" type="curve" smooth="yes"/>
      <point x="302" y="30"/>
      <point x="274" y="154"/>
      <point x="274" y="282" type="curve" smooth="yes"/>
      <point x="274" y="381"/>
      <point x="306" y="490"/>
      <point x="353" y="490" type="curve" smooth="yes"/>
      <point x="399" y="490"/>
      <point x="448" y="401"/>
      <point x="448" y="277" type="curve" smooth="yes"/>
      <point x="448" y="127"/>
      <point x="393" y="30"/>
    </contour>
  </outline>
</glyph>
<glyph name="uni02A7" format="2">
  <advance width="953"/>
  <unicode hex="02A7"/>
  <anchor x="476" y="-232" name="bottom"/>
  <anchor x="476" y="764" name="top"/>
  <outline>
    <contour>
      <point x="430" y="-232" type="curve" smooth="yes"/>
      <point x="630" y="-232"/>
      <point x="737" y="-169"/>
      <point x="737" y="22" type="curve" smooth="yes"/>
      <point x="737" y="655" type="line" smooth="yes"/>
      <point x="737" y="730"/>
      <point x="755" y="754"/>
      <point x="805" y="754" type="curve" smooth="yes"/>
      <point x="864" y="754"/>
      <point x="876" y="698"/>
      <point x="876" y="545" type="curve"/>
      <point x="981" y="545"/>
      <point x="1053" y="564"/>
      <point x="1053" y="627" type="curve" smooth="yes"/>
      <point x="1053" y="692"/>
      <point x="998" y="764"/>
      <point x="816" y="764" type="curve" smooth="yes"/>
      <point x="598" y="764"/>
      <point x="507" y="677"/>
      <point x="509" y="536" type="curve" smooth="yes"/>
      <point x="509" y="536" type="line"/>
      <point x="338" y="536" type="line"/>
      <point x="338" y="662" type="line"/>
      <point x="328" y="662" type="line"/>
      <point x="293" y="618"/>
      <point x="252" y="586"/>
      <point x="200" y="565" type="curve" smooth="yes"/>
      <point x="153" y="545"/>
      <point x="94" y="536"/>
      <point x="25" y="536" type="curve"/>
      <point x="25" y="526" type="line"/>
      <point x="112" y="526" type="line"/>
      <point x="112" y="151" type="line" smooth="yes"/>
      <point x="112" y="51"/>
      <point x="161" y="-10"/>
      <point x="303" y="-10" type="curve" smooth="yes"/>
      <point x="397" y="-10"/>
      <point x="470" y="2"/>
      <point x="509" y="13" type="curve"/>
      <point x="509" y="-141" type="line" smooth="yes"/>
      <point x="509" y="-202"/>
      <point x="497" y="-222"/>
      <point x="449" y="-222" type="curve" smooth="yes"/>
      <point x="390" y="-222"/>
      <point x="370" y="-166"/>
      <point x="370" y="-12" type="curve"/>
      <point x="265" y="-12"/>
      <point x="193" y="-32"/>
      <point x="193" y="-94" type="curve" smooth="yes"/>
      <point x="193" y="-160"/>
      <point x="247" y="-232"/>
    </contour>
    <contour>
      <point x="435" y="12" type="curve" smooth="yes"/>
      <point x="383" y="12"/>
      <point x="346" y="39"/>
      <point x="338" y="102" type="curve" smooth="yes"/>
      <point x="338" y="526" type="line"/>
      <point x="509" y="526" type="line"/>
      <point x="509" y="24" type="line"/>
      <point x="481" y="16"/>
      <point x="457" y="12"/>
    </contour>
  </outline>
</glyph>
<glyph name="uni02AB" format="2">
  <advance width="942"/>
  <unicode hex="02AB"/>
  <anchor x="471" y="0" name="bottom"/>
  <anchor x="471" y="760" name="top"/>
  <outline>
    <contour>
      <point x="24" y="0" type="line"/>
      <point x="918" y="0" type="line"/>
      <point x="926" y="209" type="line"/>
      <point x="916" y="209" type="line"/>
      <point x="913" y="179" type="line" smooth="yes"/>
      <point x="900" y="41"/>
      <point x="864" y="10"/>
      <point x="743" y="10" type="curve" smooth="yes"/>
      <point x="518" y="10" type="line"/>
      <point x="907" y="526" type="line"/>
      <point x="907" y="536" type="line"/>
      <point x="337" y="536" type="line"/>
      <point x="337" y="760" type="line"/>
      <point x="24" y="760" type="line"/>
      <point x="24" y="750" type="line"/>
      <point x="36" y="750" type="line" smooth="yes"/>
      <point x="55" y="750"/>
      <point x="110" y="743"/>
      <point x="110" y="697" type="curve" smooth="yes"/>
      <point x="110" y="79" type="line" smooth="yes"/>
      <point x="110" y="29"/>
      <point x="80" y="10"/>
      <point x="36" y="10" type="curve" smooth="yes"/>
      <point x="24" y="10" type="line"/>
    </contour>
    <contour>
      <point x="337" y="50" type="line"/>
      <point x="337" y="526" type="line"/>
      <point x="696" y="526" type="line"/>
    </contour>
  </outline>
</glyph>
<glyph name="uni02AF" format="2">
  <advance width="954"/>
  <unicode hex="02AF"/>
  <anchor x="477" y="-240" name="bottom"/>
  <anchor x="477" y="536" name="top"/>
  <outline>
    <contour>
      <point x="837" y="-240" type="curve" smooth="yes"/>
      <point x="919" y="-240"/>
      <point x="970" y="-230"/>
      <point x="1006" y="-224" type="curve"/>
      <point x="1006" y="-214" type="line"/>
      <point x="976" y="-218"/>
      <point x="952" y="-219"/>
      <point x="936" y="-219" type="curve" smooth="yes"/>
      <point x="881" y="-219"/>
      <point x="845" y="-210"/>
      <point x="845" y="-147" type="curve" smooth="yes"/>
      <point x="845" y="460" type="line" smooth="yes"/>
      <point x="845" y="524"/>
      <point x="879" y="526"/>
      <point x="926" y="526" type="curve" smooth="yes"/>
      <point x="931" y="526" type="line"/>
      <point x="931" y="536" type="line"/>
      <point x="540" y="536" type="line"/>
      <point x="540" y="526" type="line"/>
      <point x="545" y="526" type="line"/>
      <point x="593" y="526"/>
      <point x="618" y="522"/>
      <point x="618" y="463" type="curve" smooth="yes"/>
      <point x="618" y="204" type="line" smooth="yes"/>
      <point x="618" y="151"/>
      <point x="611" y="44"/>
      <point x="546" y="44" type="curve" smooth="yes"/>
      <point x="490" y="44"/>
      <point x="478" y="90"/>
      <point x="478" y="157" type="curve" smooth="yes"/>
      <point x="478" y="296" type="line" smooth="yes"/>
      <point x="478" y="487"/>
      <point x="372" y="552"/>
      <point x="173" y="552" type="curve" smooth="yes"/>
      <point x="-10" y="552"/>
      <point x="-65" y="480"/>
      <point x="-65" y="415" type="curve" smooth="yes"/>
      <point x="-65" y="352"/>
      <point x="7" y="333"/>
      <point x="112" y="333" type="curve"/>
      <point x="112" y="509"/>
      <point x="128" y="542"/>
      <point x="188" y="542" type="curve" smooth="yes"/>
      <point x="222" y="542"/>
      <point x="252" y="512"/>
      <point x="252" y="443" type="curve" smooth="yes"/>
      <point x="252" y="173" type="line" smooth="yes"/>
      <point x="252" y="40"/>
      <point x="316" y="-16"/>
      <point x="441" y="-16" type="curve" smooth="yes"/>
      <point x="544" y="-16"/>
      <point x="600" y="24"/>
      <point x="619" y="115" type="curve"/>
      <point x="621" y="115" type="line"/>
      <point x="619" y="50"/>
      <point x="619" y="3"/>
      <point x="619" y="-62" type="curve" smooth="yes"/>
      <point x="619" y="-56" type="line" smooth="yes"/>
      <point x="619" y="-188"/>
      <point x="673" y="-240"/>
    </contour>
  </outline>
</glyph>
<glyph name="uni02BF" format="2">
  <advance width="211"/>
  <unicode hex="02BF"/>
  <outline>
    <contour>
      <point x="181" y="588" type="curve"/>
      <point x="181" y="598" type="line"/>
      <point x="116" y="598"/>
      <point x="42" y="621"/>
      <point x="42" y="712" type="curve" smooth="yes"/>
      <point x="42" y="806"/>
      <point x="116" y="832"/>
      <point x="181" y="832" type="curve"/>
      <point x="181" y="842" type="line"/>
      <point x="94" y="842"/>
      <point x="30" y="800"/>
      <point x="30" y="712" type="curve" smooth="yes"/>
      <point x="30" y="627"/>
      <point x="94" y="588"/>
    </contour>
  </outline>
</glyph>
<glyph name="uni02C3" format="2">
  <advance width="305"/>
  <unicode hex="02C3"/>
  <outline>
    <contour>
      <point x="35" y="526" type="line"/>
      <point x="41" y="526" type="line"/>
      <point x="114" y="575"/>
      <point x="197" y="613"/>
      <point x="266" y="637" type="curve"/>
      <point x="266" y="672" type="line"/>
      <point x="197" y="696"/>
      <point x="114" y="736"/>
      <point x="41" y="785" type="curve"/>
      <point x="35" y="785" type="line"/>
      <point x="35" y="771" type="line"/>
      <point x="80" y="721"/>
      <point x="120" y="688"/>
      <point x="179" y="655" type="curve"/>
      <point x="120" y="622"/>
      <point x="80" y="590"/>
      <point x="35" y="540" type="curve"/>
    </contour>
  </outline>
</glyph>
<glyph name="dotaccent" format="2">
  <advance width="293"/>
  <unicode hex="02D9"/>
  <outline>
    <contour>
      <point x="146" y="613" type="curve" smooth="yes"/>
      <point x="202" y="613"/>
      <point x="253" y="645"/>
      <point x="253" y="698" type="curve" smooth="yes"/>
      <point x="253" y="755"/>
      <point x="202" y="783"/>
      <point x="146" y="783" type="curve" smooth="yes"/>
      <point x="85" y="783"/>
      <point x="40" y="755"/>
      <point x="40" y="698" type="curve" smooth="yes"/>
      <point x="40" y="645"/>
      <point x="85" y="613"/>
    </contour>
  </outline>
</glyph>
<glyph name="ring" format="2">
  <advance width="389"/>
  <unicode hex="02DA"/>
  <outline>
    <contour>
      <point x="194" y="596" type="curve" smooth="yes"/>
      <point x="267" y="596"/>
      <point x="325" y="634"/>
      <point x="325" y="705" type="curve" smooth="yes"/>
      <point x="325" y="776"/>
      <point x="267" y="814"/>
      <point x="194" y="814" type="curve" smooth="yes"/>
      <point x="121" y="814"/>
      <point x="63" y="776"/>
      <point x="63" y="705" type="curve" smooth="yes"/>
      <point x="63" y="634"/>
      <point x="121" y="596"/>
    </contour>
    <contour>
      <point x="194" y="606" type="curve" smooth="yes"/>
      <point x="124" y="606"/>
      <point x="75" y="639"/>
      <point x="75" y="705" type="curve" smooth="yes"/>
      <point x="75" y="771"/>
      <point x="124" y="804"/>
      <point x="194" y="804" type="curve" smooth="yes"/>
      <point x="264" y="804"/>
      <point x="313" y="771"/>
      <point x="313" y="705" type="curve" smooth="yes"/>
      <point x="313" y="639"/>
      <point x="264" y="606"/>
    </contour>
  </outline>
</glyph>
<glyph name="ogonek" format="2">
  <advance width="365"/>
  <unicode hex="02DB"/>
  <outline>
    <contour>
      <point x="210" y="-240" type="curve" smooth="yes"/>
      <point x="261" y="-240"/>
      <point x="288" y="-234"/>
      <point x="325" y="-224" type="curve"/>
      <point x="325" y="-215" type="line"/>
      <point x="311" y="-221"/>
      <point x="296" y="-226"/>
      <point x="277" y="-226" type="curve" smooth="yes"/>
      <point x="215" y="-226"/>
      <point x="188" y="-174"/>
      <point x="188" y="-140" type="curve" smooth="yes"/>
      <point x="188" y="-107"/>
      <point x="217" y="-26"/>
      <point x="283" y="0" type="curve"/>
      <point x="251" y="0" type="line"/>
      <point x="136" y="-2"/>
      <point x="40" y="-46"/>
      <point x="40" y="-139" type="curve" smooth="yes"/>
      <point x="40" y="-214"/>
      <point x="97" y="-240"/>
    </contour>
  </outline>
</glyph>
<glyph name="tilde" format="2">
  <advance width="575"/>
  <unicode hex="02DC"/>
  <outline>
    <contour>
      <point x="399" y="606" type="curve" smooth="yes"/>
      <point x="498" y="606"/>
      <point x="538" y="685"/>
      <point x="535" y="790" type="curve"/>
      <point x="525" y="790" type="line"/>
      <point x="532" y="784"/>
      <point x="498" y="727"/>
      <point x="429" y="727" type="curve" smooth="yes"/>
      <point x="356" y="727"/>
      <point x="270" y="800"/>
      <point x="176" y="800" type="curve" smooth="yes"/>
      <point x="79" y="800"/>
      <point x="36" y="723"/>
      <point x="40" y="616" type="curve"/>
      <point x="50" y="616" type="line"/>
      <point x="43" y="622"/>
      <point x="75" y="679"/>
      <point x="146" y="679" type="curve" smooth="yes"/>
      <point x="222" y="679"/>
      <point x="305" y="606"/>
    </contour>
  </outline>
</glyph>
<glyph name="uni02F1" format="2">
  <advance width="311"/>
  <unicode hex="02F1"/>
  <outline>
    <contour>
      <point x="265" y="-241" type="curve"/>
      <point x="271" y="-241" type="line"/>
      <point x="271" y="-227" type="line"/>
      <point x="226" y="-177"/>
      <point x="186" y="-143"/>
      <point x="127" y="-110" type="curve"/>
      <point x="186" y="-77"/>
      <point x="226" y="-46"/>
      <point x="271" y="4" type="curve"/>
      <point x="271" y="18" type="line"/>
      <point x="265" y="18" type="line"/>
      <point x="192" y="-31"/>
      <point x="109" y="-67"/>
      <point x="40" y="-91" type="curve"/>
      <point x="40" y="-126" type="line"/>
      <point x="109" y="-150"/>
      <point x="192" y="-192"/>
    </contour>
  </outline>
</glyph>
<glyph name="uni02F4" format="2">
  <advance width="361"/>
  <unicode hex="02F4"/>
  <outline>
    <contour>
      <point x="311" y="266" type="curve"/>
      <point x="326" y="266" type="line"/>
      <point x="326" y="283" type="line"/>
      <point x="301" y="316"/>
      <point x="251" y="383"/>
      <point x="222" y="428" type="curve"/>
      <point x="40" y="428" type="line"/>
      <point x="40" y="418" type="line"/>
      <point x="80" y="383"/>
      <point x="227" y="302"/>
    </contour>
  </outline>
</glyph>
<glyph name="uni02F8" format="2">
  <advance width="370"/>
  <unicode hex="02F8"/>
  <outline>
    <contour>
      <point x="185" y="571" type="curve" smooth="yes"/>
      <point x="236" y="571"/>
      <point x="282" y="591"/>
      <point x="282" y="666" type="curve" smooth="yes"/>
      <point x="282" y="739"/>
      <point x="236" y="760"/>
      <point x="185" y="760" type="curve" smooth="yes"/>
      <point x="130" y="760"/>
      <point x="87" y="739"/>
      <point x="87" y="666" type="curve" smooth="yes"/>
      <point x="87" y="591"/>
      <point x="130" y="571"/>
    </contour>
    <contour>
      <point x="185" y="223" type="curve" smooth="yes"/>
      <point x="236" y="223"/>
      <point x="282" y="243"/>
      <point x="282" y="318" type="curve" smooth="yes"/>
      <point x="282" y="390"/>
      <point x="236" y="412"/>
      <point x="185" y="412" type="curve" smooth="yes"/>
      <point x="130" y="412"/>
      <point x="87" y="390"/>
      <point x="87" y="318" type="curve" smooth="yes"/>
      <point x="87" y="243"/>
      <point x="130" y="223"/>
    </contour>
  </outline>
</glyph>
<glyph name="uni02FF" format="2">
  <advance width="619"/>
  <unicode hex="02FF"/>
  <outline>
    <contour>
      <point x="235" y="-215" type="curve"/>
      <point x="240" y="-215" type="line"/>
      <point x="240" y="-201" type="line"/>
      <point x="212" y="-178"/>
      <point x="172" y="-150"/>
      <point x="102" y="-121" type="curve"/>
      <point x="579" y="-121" type="line"/>
      <point x="579" y="-101" type="line"/>
      <point x="101" y="-101" type="line"/>
      <point x="172" y="-74"/>
      <point x="212" y="-45"/>
      <point x="240" y="-22" type="curve"/>
      <point x="240" y="-8" type="line"/>
      <point x="235" y="-8" type="line"/>
      <point x="173" y="-48"/>
      <point x="121" y="-77"/>
      <point x="40" y="-102" type="curve"/>
      <point x="40" y="-121" type="line"/>
      <point x="121" y="-146"/>
      <point x="173" y="-175"/>
    </contour>
  </outline>
</glyph>
<glyph name="candraBinducomb" format="2">
  <unicode hex="0310"/>
  <anchor x="1" y="536" name="_top"/>
  <anchor x="1" y="938" name="top"/>
  <outline>
    <contour>
      <point x="0" y="618" type="curve" smooth="yes"/>
      <point x="113" y="618"/>
      <point x="191" y="661"/>
      <point x="214" y="778" type="curve"/>
      <point x="204" y="778" type="line"/>
      <point x="181" y="740"/>
      <point x="141" y="716"/>
      <point x="0" y="716" type="curve" smooth="yes"/>
      <point x="-143" y="716"/>
      <point x="-183" y="740"/>
      <point x="-205" y="778" type="curve"/>
      <point x="-215" y="778" type="line"/>
      <point x="-193" y="661"/>
      <point x="-113" y="618"/>
    </contour>
    <contour>
      <point x="0" y="783" type="curve" smooth="yes"/>
      <point x="51" y="783"/>
      <point x="92" y="811"/>
      <point x="92" y="861" type="curve" smooth="yes"/>
      <point x="92" y="916"/>
      <point x="51" y="938"/>
      <point x="0" y="938" type="curve" smooth="yes"/>
      <point x="-56" y="938"/>
      <point x="-93" y="916"/>
      <point x="-93" y="861" type="curve" smooth="yes"/>
      <point x="-93" y="811"/>
      <point x="-56" y="783"/>
    </contour>
  </outline>
</glyph>
<glyph name="horncomb" format="2">
  <unicode hex="031B"/>
  <anchor x="11" y="536" name="_topright"/>
  <outline>
    <contour>
      <point x="-102" y="532" type="line"/>
      <point x="43" y="532"/>
      <point x="122" y="565"/>
      <point x="122" y="653" type="curve" smooth="yes"/>
      <point x="122" y="729"/>
      <point x="76" y="773"/>
      <point x="-4" y="773" type="curve" smooth="yes"/>
      <point x="-54" y="773"/>
      <point x="-102" y="756"/>
      <point x="-102" y="695" type="curve" smooth="yes"/>
      <point x="-102" y="598"/>
      <point x="33" y="670"/>
      <point x="33" y="602" type="curve" smooth="yes"/>
      <point x="33" y="553"/>
      <point x="-31" y="539"/>
      <point x="-102" y="542" type="curve"/>
    </contour>
  </outline>
</glyph>
<glyph name="ringbelowcomb" format="2">
  <unicode hex="0325"/>
  <anchor x="1" y="0" name="_bottom"/>
  <anchor x="1" y="-277" name="bottom"/>
  <outline>
    <contour>
      <point x="0" y="-277" type="curve" smooth="yes"/>
      <point x="92" y="-277"/>
      <point x="147" y="-217"/>
      <point x="147" y="-120" type="curve" smooth="yes"/>
      <point x="147" y="-23"/>
      <point x="92" y="37"/>
      <point x="0" y="37" type="curve" smooth="yes"/>
      <point x="-90" y="37"/>
      <point x="-146" y="-23"/>
      <point x="-146" y="-120" type="curve" smooth="yes"/>
      <point x="-146" y="-217"/>
      <point x="-90" y="-277"/>
    </contour>
    <contour>
      <point x="2" y="-267" type="curve" smooth="yes"/>
      <point x="-82" y="-267"/>
      <point x="-134" y="-212"/>
      <point x="-134" y="-120" type="curve" smooth="yes"/>
      <point x="-134" y="-29"/>
      <point x="-82" y="27"/>
      <point x="2" y="27" type="curve" smooth="yes"/>
      <point x="85" y="27"/>
      <point x="135" y="-29"/>
      <point x="135" y="-120" type="curve" smooth="yes"/>
      <point x="135" y="-212"/>
      <point x="85" y="-267"/>
    </contour>
  </outline>
</glyph>
<glyph name="bridgebelowcomb" format="2">
  <unicode hex="032A"/>
  <anchor x="0" y="0" name="_bottom"/>
  <anchor x="0" y="-226" name="bottom"/>
  <outline>
    <contour>
      <point x="-224" y="-226" type="line"/>
      <point x="-214" y="-226" type="line"/>
      <point x="-214" y="-254" type="line" smooth="yes"/>
      <point x="-214" y="-123"/>
      <point x="-189" y="-92"/>
      <point x="-104" y="-92" type="curve" smooth="yes"/>
      <point x="105" y="-92" type="line" smooth="yes"/>
      <point x="190" y="-92"/>
      <point x="214" y="-120"/>
      <point x="214" y="-254" type="curve" smooth="yes"/>
      <point x="214" y="-226" type="line"/>
      <point x="224" y="-226" type="line"/>
      <point x="224" y="-72" type="line"/>
      <point x="-224" y="-72" type="line"/>
    </contour>
  </outline>
</glyph>
<glyph name="caronbelowcomb" format="2">
  <unicode hex="032C"/>
  <anchor x="1" y="0" name="_bottom"/>
  <anchor x="1" y="-207" name="bottom"/>
  <outline>
    <contour>
      <point x="-79" y="-206" type="curve"/>
      <point x="80" y="-206" type="line"/>
      <point x="113" y="-161"/>
      <point x="176" y="-101"/>
      <point x="238" y="-63" type="curve"/>
      <point x="238" y="-46" type="line"/>
      <point x="222" y="-46" type="line"/>
      <point x="143" y="-75"/>
      <point x="38" y="-123"/>
      <point x="2" y="-140" type="curve"/>
      <point x="-37" y="-123"/>
      <point x="-142" y="-75"/>
      <point x="-221" y="-46" type="curve"/>
      <point x="-237" y="-46" type="line"/>
      <point x="-237" y="-63" type="line"/>
      <point x="-175" y="-101"/>
      <point x="-112" y="-161"/>
    </contour>
  </outline>
</glyph>
<glyph name="macronbelowcomb" format="2">
  <unicode hex="0331"/>
  <anchor x="1" y="0" name="_bottom"/>
  <anchor x="1" y="-150" name="bottom"/>
  <outline>
    <contour>
      <point x="-169" y="-115" type="line"/>
      <point x="170" y="-115" type="line"/>
      <point x="170" y="-95" type="line"/>
      <point x="-169" y="-95" type="line"/>
    </contour>
  </outline>
</glyph>
<glyph name="seagullbelowcomb" format="2">
  <unicode hex="033C"/>
  <anchor x="0" y="0" name="_bottom"/>
  <anchor x="0" y="-183" name="bottom"/>
  <outline>
    <contour>
      <point x="-187" y="-183" type="curve"/>
      <point x="-177" y="-183" type="line"/>
      <point x="-176" y="-134"/>
      <point x="-151" y="-113"/>
      <point x="-93" y="-113" type="curve" smooth="yes"/>
      <point x="-30" y="-113"/>
      <point x="-5" y="-134"/>
      <point x="-5" y="-183" type="curve"/>
      <point x="5" y="-183" type="line"/>
      <point x="5" y="-134"/>
      <point x="32" y="-113"/>
      <point x="88" y="-113" type="curve" smooth="yes"/>
      <point x="149" y="-113"/>
      <point x="176" y="-134"/>
      <point x="177" y="-183" type="curve"/>
      <point x="187" y="-183" type="line"/>
      <point x="185" y="-100"/>
      <point x="156" y="-65"/>
      <point x="91" y="-65" type="curve" smooth="yes"/>
      <point x="38" y="-65"/>
      <point x="11" y="-81"/>
      <point x="0" y="-119" type="curve"/>
      <point x="-11" y="-81"/>
      <point x="-38" y="-65"/>
      <point x="-91" y="-65" type="curve" smooth="yes"/>
      <point x="-156" y="-65"/>
      <point x="-185" y="-100"/>
    </contour>
  </outline>
</glyph>
<glyph name="tildeverticalcomb" format="2">
  <unicode hex="033E"/>
  <anchor x="0" y="536" name="_top"/>
  <anchor x="0" y="872" name="top"/>
  <outline>
    <contour>
      <point x="-67" y="577" type="line"/>
      <point x="12" y="577"/>
      <point x="66" y="610"/>
      <point x="66" y="665" type="curve" smooth="yes"/>
      <point x="66" y="722"/>
      <point x="9" y="745"/>
      <point x="9" y="797" type="curve" smooth="yes"/>
      <point x="9" y="831"/>
      <point x="33" y="857"/>
      <point x="67" y="857" type="curve"/>
      <point x="67" y="867" type="line"/>
      <point x="-12" y="867"/>
      <point x="-66" y="834"/>
      <point x="-66" y="780" type="curve" smooth="yes"/>
      <point x="-66" y="725"/>
      <point x="-8" y="705"/>
      <point x="-8" y="647" type="curve" smooth="yes"/>
      <point x="-8" y="605"/>
      <point x="-39" y="587"/>
      <point x="-67" y="587" type="curve"/>
    </contour>
  </outline>
</glyph>
<glyph name="nottildeabovecomb" format="2">
  <unicode hex="034A"/>
  <anchor x="3" y="536" name="_top"/>
  <anchor x="3" y="836" name="top"/>
  <outline>
    <contour>
      <point x="-42" y="583" type="line"/>
      <point x="-12" y="638" type="line"/>
      <point x="23" y="627"/>
      <point x="64" y="620"/>
      <point x="103" y="620" type="curve" smooth="yes"/>
      <point x="211" y="620"/>
      <point x="235" y="695"/>
      <point x="250" y="798" type="curve"/>
      <point x="239" y="798" type="line"/>
      <point x="225" y="744"/>
      <point x="191" y="735"/>
      <point x="163" y="735" type="curve" smooth="yes"/>
      <point x="134" y="735"/>
      <point x="95" y="750"/>
      <point x="52" y="765" type="curve"/>
      <point x="81" y="822" type="line"/>
      <point x="72" y="825" type="line"/>
      <point x="42" y="767" type="line"/>
      <point x="-2" y="781"/>
      <point x="-47" y="794"/>
      <point x="-93" y="794" type="curve" smooth="yes"/>
      <point x="-194" y="794"/>
      <point x="-227" y="727"/>
      <point x="-242" y="616" type="curve"/>
      <point x="-231" y="616" type="line"/>
      <point x="-221" y="653"/>
      <point x="-195" y="679"/>
      <point x="-154" y="679" type="curve" smooth="yes"/>
      <point x="-118" y="679"/>
      <point x="-73" y="659"/>
      <point x="-22" y="640" type="curve"/>
      <point x="-51" y="586" type="line"/>
    </contour>
  </outline>
</glyph>
<glyph name="homotheticabovecomb" format="2">
  <unicode hex="034B"/>
  <anchor x="2" y="536" name="_top"/>
  <anchor x="2" y="1159" name="top"/>
  <outline>
    <contour>
      <point x="-244" y="707" type="curve"/>
      <point x="-233" y="707" type="line"/>
      <point x="-218" y="720"/>
      <point x="-215" y="775"/>
      <point x="-144" y="775" type="curve" smooth="yes"/>
      <point x="-98" y="775"/>
      <point x="32" y="748"/>
      <point x="98" y="748" type="curve" smooth="yes"/>
      <point x="192" y="748"/>
      <point x="229" y="805"/>
      <point x="246" y="926" type="curve"/>
      <point x="235" y="926" type="line"/>
      <point x="222" y="916"/>
      <point x="212" y="858"/>
      <point x="151" y="858" type="curve" smooth="yes"/>
      <point x="116" y="858"/>
      <point x="-19" y="885"/>
      <point x="-86" y="885" type="curve" smooth="yes"/>
      <point x="-196" y="885"/>
      <point x="-228" y="805"/>
    </contour>
    <contour>
      <point x="0" y="572" type="curve" smooth="yes"/>
      <point x="54" y="572"/>
      <point x="102" y="598"/>
      <point x="102" y="649" type="curve" smooth="yes"/>
      <point x="102" y="701"/>
      <point x="54" y="723"/>
      <point x="0" y="723" type="curve" smooth="yes"/>
      <point x="-55" y="723"/>
      <point x="-96" y="701"/>
      <point x="-96" y="649" type="curve" smooth="yes"/>
      <point x="-96" y="598"/>
      <point x="-55" y="572"/>
    </contour>
    <contour>
      <point x="0" y="911" type="curve" smooth="yes"/>
      <point x="54" y="911"/>
      <point x="102" y="937"/>
      <point x="102" y="987" type="curve" smooth="yes"/>
      <point x="102" y="1042"/>
      <point x="54" y="1064"/>
      <point x="0" y="1064" type="curve" smooth="yes"/>
      <point x="-55" y="1064"/>
      <point x="-96" y="1042"/>
      <point x="-96" y="987" type="curve" smooth="yes"/>
      <point x="-96" y="937"/>
      <point x="-55" y="911"/>
    </contour>
  </outline>
</glyph>
<glyph name="arrowheadrightbelowcomb" format="2">
  <unicode hex="0355"/>
  <anchor x="0" y="0" name="_bottom"/>
  <anchor x="0" y="-240" name="bottom"/>
  <outline>
    <contour>
      <point x="-100" y="-240" type="line"/>
      <point x="-95" y="-240" type="line"/>
      <point x="-33" y="-200"/>
      <point x="19" y="-171"/>
      <point x="100" y="-146" type="curve"/>
      <point x="100" y="-127" type="line"/>
      <point x="19" y="-102"/>
      <point x="-33" y="-73"/>
      <point x="-95" y="-33" type="curve"/>
      <point x="-100" y="-33" type="line"/>
      <point x="-100" y="-47" type="line"/>
      <point x="-68" y="-72"/>
      <point x="-21" y="-107"/>
      <point x="66" y="-136" type="curve"/>
      <point x="-21" y="-166"/>
      <point x="-68" y="-201"/>
      <point x="-100" y="-226" type="curve"/>
    </contour>
  </outline>
</glyph>
<glyph name="righthalfringabovecomb" format="2">
  <unicode hex="0357"/>
  <anchor x="1" y="536" name="_top"/>
  <anchor x="1" y="816" name="top"/>
  <outline>
    <contour>
      <point x="-73" y="588" type="line"/>
      <point x="3" y="588"/>
      <point x="74" y="624"/>
      <point x="74" y="702" type="curve" smooth="yes"/>
      <point x="74" y="780"/>
      <point x="3" y="816"/>
      <point x="-73" y="816" type="curve" smooth="yes"/>
      <point x="-73" y="806" type="line"/>
      <point x="10" y="806"/>
      <point x="62" y="766"/>
      <point x="62" y="702" type="curve" smooth="yes"/>
      <point x="62" y="638"/>
      <point x="10" y="598"/>
      <point x="-73" y="598" type="curve"/>
    </contour>
  </outline>
</glyph>
<glyph name="tildedoublecomb" format="2">
  <unicode hex="0360"/>
  <anchor x="1" y="536" name="_top"/>
  <anchor x="1" y="863" name="top"/>
  <outline>
    <contour>
      <point x="-475" y="632" type="curve"/>
      <point x="-464" y="632" type="line"/>
      <point x="-451" y="691"/>
      <point x="-404" y="727"/>
      <point x="-341" y="727" type="curve" smooth="yes"/>
      <point x="-159" y="727"/>
      <point x="58" y="620"/>
      <point x="291" y="620" type="curve" smooth="yes"/>
      <point x="385" y="620"/>
      <point x="460" y="701"/>
      <point x="475" y="812" type="curve"/>
      <point x="464" y="812" type="line"/>
      <point x="453" y="755"/>
      <point x="425" y="717"/>
      <point x="345" y="717" type="curve" smooth="yes"/>
      <point x="125" y="717"/>
      <point x="-97" y="821"/>
      <point x="-293" y="821" type="curve" smooth="yes"/>
      <point x="-421" y="821"/>
      <point x="-464" y="710"/>
    </contour>
  </outline>
</glyph>
<glyph name="Heta" format="2">
  <advance width="692"/>
  <unicode hex="0370"/>
  <anchor x="347" y="0" name="bottom"/>
  <anchor x="347" y="714" name="top"/>
  <outline>
    <contour>
      <point x="24" y="0" type="line"/>
      <point x="450" y="0" type="line"/>
      <point x="450" y="10" type="line"/>
      <point x="407" y="10" type="line" smooth="yes"/>
      <point x="381" y="10"/>
      <point x="364" y="43"/>
      <point x="364" y="55" type="curve" smooth="yes"/>
      <point x="364" y="368" type="line"/>
      <point x="637" y="368" type="line"/>
      <point x="637" y="378" type="line"/>
      <point x="364" y="378" type="line"/>
      <point x="364" y="661" type="line" smooth="yes"/>
      <point x="364" y="683"/>
      <point x="381" y="704"/>
      <point x="407" y="704" type="curve" smooth="yes"/>
      <point x="450" y="704" type="line"/>
      <point x="450" y="714" type="line"/>
      <point x="24" y="714" type="line"/>
      <point x="24" y="704" type="line"/>
      <point x="76" y="704" type="line" smooth="yes"/>
      <point x="100" y="704"/>
      <point x="132" y="684"/>
      <point x="132" y="655" type="curve" smooth="yes"/>
      <point x="132" y="55" type="line" smooth="yes"/>
      <point x="132" y="43"/>
      <point x="108" y="10"/>
      <point x="86" y="10" type="curve" smooth="yes"/>
      <point x="24" y="10" type="line"/>
    </contour>
  </outline>
</glyph>
<glyph name="heta" format="2">
  <advance width="547"/>
  <unicode hex="0371"/>
  <anchor x="274" y="0" name="bottom"/>
  <anchor x="274" y="536" name="top"/>
  <outline>
    <contour>
      <point x="110" y="0" type="line"/>
      <point x="337" y="0" type="line"/>
      <point x="337" y="271" type="line"/>
      <point x="535" y="271" type="line"/>
      <point x="535" y="281" type="line"/>
      <point x="337" y="281" type="line"/>
      <point x="337" y="536" type="line"/>
      <point x="19" y="536" type="line"/>
      <point x="19" y="526" type="line"/>
      <point x="37" y="526" type="line" smooth="yes"/>
      <point x="81" y="526"/>
      <point x="110" y="511"/>
      <point x="110" y="452" type="curve" smooth="yes"/>
    </contour>
  </outline>
</glyph>
<glyph name="Archaicsampi" format="2">
  <advance width="797"/>
  <unicode hex="0372"/>
  <anchor x="399" y="0" name="bottom"/>
  <anchor x="399" y="714" name="top"/>
  <outline>
    <contour>
      <point x="172" y="0" type="line"/>
      <point x="626" y="0" type="line"/>
      <point x="626" y="10" type="line"/>
      <point x="589" y="10" type="line" smooth="yes"/>
      <point x="555" y="10"/>
      <point x="517" y="9"/>
      <point x="517" y="67" type="curve" smooth="yes"/>
      <point x="517" y="704" type="line"/>
      <point x="558" y="704" type="line" smooth="yes"/>
      <point x="709" y="704"/>
      <point x="760" y="653"/>
      <point x="771" y="486" type="curve" smooth="yes"/>
      <point x="783" y="325" type="line"/>
      <point x="793" y="325" type="line"/>
      <point x="780" y="714" type="line"/>
      <point x="17" y="714" type="line"/>
      <point x="4" y="325" type="line"/>
      <point x="14" y="325" type="line"/>
      <point x="23" y="495" type="line" smooth="yes"/>
      <point x="32" y="654"/>
      <point x="83" y="704"/>
      <point x="240" y="704" type="curve" smooth="yes"/>
      <point x="282" y="704" type="line"/>
      <point x="282" y="73" type="line" smooth="yes"/>
      <point x="282" y="10"/>
      <point x="246" y="10"/>
      <point x="209" y="10" type="curve" smooth="yes"/>
      <point x="172" y="10" type="line"/>
    </contour>
  </outline>
</glyph>
<glyph name="pamphyliandigamma" format="2">
  <advance width="959"/>
  <unicode hex="0377"/>
  <anchor x="480" y="0" name="bottom"/>
  <anchor x="480" y="536" name="top"/>
  <outline>
    <contour>
      <point x="672" y="1" type="curve" smooth="yes"/>
      <point x="736" y="1"/>
      <point x="797" y="12"/>
      <point x="828" y="89" type="curve"/>
      <point x="754" y="89"/>
      <point x="716" y="121"/>
      <point x="716" y="243" type="curve" smooth="yes"/>
      <point x="716" y="337"/>
      <point x="765" y="457"/>
      <point x="807" y="536" type="curve"/>
      <point x="708" y="536" type="line"/>
      <point x="329" y="200" type="line"/>
      <point x="329" y="536" type="line"/>
      <point x="15" y="536" type="line"/>
      <point x="15" y="526" type="line"/>
      <point x="28" y="526" type="line" smooth="yes"/>
      <point x="64" y="526"/>
      <point x="102" y="518"/>
      <point x="102" y="458" type="curve" smooth="yes"/>
      <point x="102" y="0" type="line"/>
      <point x="138" y="0" type="line"/>
      <point x="640" y="445" type="line"/>
      <point x="577" y="413"/>
      <point x="491" y="249"/>
      <point x="491" y="148" type="curve" smooth="yes"/>
      <point x="491" y="71"/>
      <point x="558" y="1"/>
    </contour>
  </outline>
</glyph>
<glyph name="Pi" format="2">
  <advance width="983"/>
  <unicode hex="03A0"/>
  <anchor x="492" y="0" name="bottom"/>
  <anchor x="492" y="714" name="top"/>
  <outline>
    <contour>
      <point x="24" y="0" type="line"/>
      <point x="450" y="0" type="line"/>
      <point x="450" y="10" type="line"/>
      <point x="428" y="10" type="line" smooth="yes"/>
      <point x="389" y="10"/>
      <point x="364" y="9"/>
      <point x="364" y="67" type="curve" smooth="yes"/>
      <point x="364" y="704" type="line"/>
      <point x="619" y="704" type="line"/>
      <point x="619" y="67" type="line" smooth="yes"/>
      <point x="619" y="9"/>
      <point x="585" y="10"/>
      <point x="551" y="10" type="curve" smooth="yes"/>
      <point x="534" y="10" type="line"/>
      <point x="534" y="0" type="line"/>
      <point x="959" y="0" type="line"/>
      <point x="959" y="10" type="line"/>
      <point x="920" y="10" type="line" smooth="yes"/>
      <point x="888" y="10"/>
      <point x="852" y="8"/>
      <point x="852" y="62" type="curve" smooth="yes"/>
      <point x="852" y="647" type="line" smooth="yes"/>
      <point x="852" y="705"/>
      <point x="883" y="704"/>
      <point x="917" y="704" type="curve" smooth="yes"/>
      <point x="959" y="704" type="line"/>
      <point x="959" y="714" type="line"/>
      <point x="24" y="714" type="line"/>
      <point x="24" y="704" type="line"/>
      <point x="63" y="704" type="line" smooth="yes"/>
      <point x="96" y="704"/>
      <point x="132" y="704"/>
      <point x="132" y="651" type="curve" smooth="yes"/>
      <point x="132" y="67" type="line" smooth="yes"/>
      <point x="132" y="9"/>
      <point x="98" y="10"/>
      <point x="63" y="10" type="curve" smooth="yes"/>
      <point x="24" y="10" type="line"/>
    </contour>
  </outline>
</glyph>
<glyph name="zeta" format="2">
  <advance width="612"/>
  <unicode hex="03B6"/>
  <anchor x="307" y="-203" name="bottom"/>
  <anchor x="307" y="814" name="top"/>
  <outline>
    <contour>
      <point x="297" y="-203" type="line"/>
      <point x="494" y="-194"/>
      <point x="597" y="-130"/>
      <point x="597" y="-11" type="curve" smooth="yes"/>
      <point x="597" y="86"/>
      <point x="519" y="111"/>
      <point x="429" y="132" type="curve" smooth="yes"/>
      <point x="261" y="174"/>
      <point x="189" y="193"/>
      <point x="189" y="349" type="curve" smooth="yes"/>
      <point x="189" y="462"/>
      <point x="238" y="593"/>
      <point x="326" y="677" type="curve"/>
      <point x="327" y="680"/>
      <point x="364" y="679"/>
      <point x="402" y="679" type="curve" smooth="yes"/>
      <point x="583" y="679"/>
      <point x="595" y="735"/>
      <point x="595" y="756" type="curve" smooth="yes"/>
      <point x="595" y="780"/>
      <point x="576" y="788"/>
      <point x="546" y="788" type="curve" smooth="yes"/>
      <point x="489" y="788"/>
      <point x="406" y="749"/>
      <point x="323" y="686" type="curve"/>
      <point x="202" y="692"/>
      <point x="163" y="727"/>
      <point x="79" y="786" type="curve"/>
      <point x="72" y="776" type="line"/>
      <point x="142" y="720"/>
      <point x="227" y="676"/>
      <point x="311" y="677" type="curve"/>
      <point x="179" y="567"/>
      <point x="49" y="403"/>
      <point x="49" y="186" type="curve" smooth="yes"/>
      <point x="49" y="76"/>
      <point x="111" y="25"/>
      <point x="276" y="-15" type="curve" smooth="yes"/>
      <point x="397" y="-44"/>
      <point x="444" y="-56"/>
      <point x="444" y="-109" type="curve" smooth="yes"/>
      <point x="444" y="-177"/>
      <point x="369" y="-195"/>
      <point x="297" y="-193" type="curve"/>
    </contour>
  </outline>
</glyph>
<glyph name="theta" format="2">
  <advance width="744"/>
  <unicode hex="03B8"/>
  <anchor x="372" y="0" name="bottom"/>
  <anchor x="372" y="764" name="top"/>
  <anchor x="724" y="764" name="topright"/>
  <outline>
    <contour>
      <point x="372" y="-10" type="curve" smooth="yes"/>
      <point x="590" y="-10"/>
      <point x="696" y="137"/>
      <point x="696" y="378" type="curve" smooth="yes"/>
      <point x="696" y="620"/>
      <point x="590" y="764"/>
      <point x="373" y="764" type="curve" smooth="yes"/>
      <point x="144" y="764"/>
      <point x="48" y="620"/>
      <point x="48" y="379" type="curve" smooth="yes"/>
      <point x="48" y="137"/>
      <point x="144" y="-10"/>
    </contour>
    <contour>
      <point x="372" y="0" type="curve" smooth="yes"/>
      <point x="302" y="0"/>
      <point x="279" y="53"/>
      <point x="279" y="382" type="curve"/>
      <point x="463" y="382" type="line"/>
      <point x="463" y="52"/>
      <point x="441" y="0"/>
    </contour>
    <contour>
      <point x="279" y="392" type="line"/>
      <point x="279" y="707"/>
      <point x="300" y="754"/>
      <point x="373" y="754" type="curve" smooth="yes"/>
      <point x="443" y="754"/>
      <point x="463" y="707"/>
      <point x="463" y="392" type="curve"/>
    </contour>
  </outline>
</glyph>
<glyph name="iota" format="2">
  <advance width="509"/>
  <unicode hex="03B9"/>
  <anchor x="254" y="0" name="bottom"/>
  <anchor x="254" y="536" name="top"/>
  <outline>
    <contour>
      <point x="318" y="-10" type="curve" smooth="yes"/>
      <point x="402" y="-10"/>
      <point x="468" y="13"/>
      <point x="492" y="23" type="curve"/>
      <point x="492" y="33" type="line"/>
      <point x="459" y="22"/>
      <point x="432" y="15"/>
      <point x="408" y="15" type="curve" smooth="yes"/>
      <point x="358" y="15"/>
      <point x="329" y="45"/>
      <point x="329" y="110" type="curve" smooth="yes"/>
      <point x="329" y="536" type="line"/>
      <point x="104" y="536" type="line"/>
      <point x="104" y="145" type="line" smooth="yes"/>
      <point x="104" y="30"/>
      <point x="187" y="-10"/>
    </contour>
  </outline>
</glyph>
<glyph name="pi" format="2">
  <advance width="812"/>
  <unicode hex="03C0"/>
  <anchor x="406" y="0" name="bottom"/>
  <anchor x="406" y="536" name="top"/>
  <outline>
    <contour>
      <point x="614" y="-8" type="curve" smooth="yes"/>
      <point x="680" y="-8"/>
      <point x="721" y="17"/>
      <point x="729" y="25" type="curve"/>
      <point x="729" y="35" type="line"/>
      <point x="715" y="29"/>
      <point x="701" y="26"/>
      <point x="685" y="26" type="curve" smooth="yes"/>
      <point x="644" y="26"/>
      <point x="600" y="57"/>
      <point x="600" y="194" type="curve" smooth="yes"/>
      <point x="600" y="215"/>
      <point x="601" y="221"/>
      <point x="620" y="351" type="curve"/>
      <point x="776" y="351" type="line"/>
      <point x="776" y="536" type="line"/>
      <point x="275" y="536" type="line" smooth="yes"/>
      <point x="77" y="536"/>
      <point x="38" y="383"/>
      <point x="38" y="276" type="curve"/>
      <point x="47" y="276" type="line"/>
      <point x="51" y="328"/>
      <point x="67" y="351"/>
      <point x="74" y="351" type="curve" smooth="yes"/>
      <point x="300" y="351" type="line"/>
      <point x="286" y="220" type="line" smooth="yes"/>
      <point x="278" y="142"/>
      <point x="266" y="66"/>
      <point x="104" y="66" type="curve"/>
      <point x="104" y="0" type="line"/>
      <point x="141" y="0" type="line" smooth="yes"/>
      <point x="284" y="0"/>
      <point x="289" y="126"/>
      <point x="296" y="194" type="curve" smooth="yes"/>
      <point x="310" y="351" type="line"/>
      <point x="518" y="351" type="line"/>
      <point x="500" y="300"/>
      <point x="472" y="227"/>
      <point x="472" y="138" type="curve" smooth="yes"/>
      <point x="472" y="33"/>
      <point x="524" y="-8"/>
    </contour>
  </outline>
</glyph>
<glyph name="sigma" format="2">
  <advance width="787"/>
  <unicode hex="03C3"/>
  <anchor x="394" y="0" name="bottom"/>
  <anchor x="394" y="536" name="top"/>
  <outline>
    <contour>
      <point x="372" y="-10" type="curve" smooth="yes"/>
      <point x="615" y="-10"/>
      <point x="697" y="105"/>
      <point x="697" y="185" type="curve" smooth="yes"/>
      <point x="697" y="260"/>
      <point x="653" y="365"/>
      <point x="464" y="385" type="curve"/>
      <point x="766" y="385" type="line"/>
      <point x="766" y="536" type="line"/>
      <point x="447" y="536" type="line" smooth="yes"/>
      <point x="188" y="536"/>
      <point x="48" y="420"/>
      <point x="48" y="254" type="curve" smooth="yes"/>
      <point x="48" y="92"/>
      <point x="159" y="-10"/>
    </contour>
    <contour>
      <point x="384" y="0" type="curve" smooth="yes"/>
      <point x="317" y="0"/>
      <point x="278" y="65"/>
      <point x="278" y="216" type="curve" smooth="yes"/>
      <point x="278" y="319"/>
      <point x="325" y="385"/>
      <point x="411" y="385" type="curve" smooth="yes"/>
      <point x="437" y="385" type="line"/>
      <point x="458" y="357"/>
      <point x="476" y="332"/>
      <point x="476" y="176" type="curve" smooth="yes"/>
      <point x="476" y="53"/>
      <point x="456" y="0"/>
    </contour>
  </outline>
</glyph>
<glyph name="uni03D7" format="2">
  <advance width="819"/>
  <unicode hex="03D7"/>
  <outline>
    <contour>
      <point x="689" y="-209" type="curve" smooth="yes"/>
      <point x="773" y="-209"/>
      <point x="805" y="-176"/>
      <point x="805" y="-115" type="curve" smooth="yes"/>
      <point x="805" y="89" type="line"/>
      <point x="732" y="89"/>
      <point x="702" y="124"/>
      <point x="702" y="191" type="curve" smooth="yes"/>
      <point x="702" y="336"/>
      <point x="743" y="448"/>
      <point x="785" y="536" type="curve"/>
      <point x="679" y="536" type="line"/>
      <point x="188" y="60" type="line"/>
      <point x="295" y="242"/>
      <point x="353" y="280"/>
      <point x="353" y="382" type="curve" smooth="yes"/>
      <point x="353" y="485"/>
      <point x="304" y="546"/>
      <point x="175" y="546" type="curve" smooth="yes"/>
      <point x="51" y="546"/>
      <point x="13" y="483"/>
      <point x="10" y="432" type="curve"/>
      <point x="86" y="432"/>
      <point x="117" y="411"/>
      <point x="117" y="313" type="curve" smooth="yes"/>
      <point x="117" y="188"/>
      <point x="68" y="91"/>
      <point x="26" y="0" type="curve"/>
      <point x="150" y="0" type="line"/>
      <point x="620" y="456" type="line"/>
      <point x="536" y="347"/>
      <point x="469" y="235"/>
      <point x="469" y="176" type="curve" smooth="yes"/>
      <point x="469" y="51"/>
      <point x="537" y="1"/>
      <point x="649" y="1" type="curve" smooth="yes"/>
      <point x="694" y="1"/>
      <point x="743" y="0"/>
      <point x="795" y="78" type="curve"/>
      <point x="795" y="-24" type="line" smooth="yes"/>
      <point x="795" y="-84"/>
      <point x="766" y="-108"/>
      <point x="689" y="-108" type="curve" smooth="yes"/>
      <point x="653" y="-108"/>
      <point x="623" y="-102"/>
      <point x="585" y="-90" type="curve"/>
      <point x="574" y="-105"/>
      <point x="568" y="-120"/>
      <point x="568" y="-138" type="curve" smooth="yes"/>
      <point x="568" y="-182"/>
      <point x="619" y="-209"/>
    </contour>
  </outline>
</glyph>
<glyph name="uni03D8" format="2">
  <advance width="956"/>
  <unicode hex="03D8"/>
  <anchor x="478" y="0" name="bottom"/>
  <anchor x="478" y="714" name="top"/>
  <outline>
    <contour>
      <point x="254" y="0" type="line"/>
      <point x="703" y="0" type="line"/>
      <point x="703" y="10" type="line"/>
      <point x="663" y="10" type="line" smooth="yes"/>
      <point x="608" y="10"/>
      <point x="595" y="29"/>
      <point x="595" y="67" type="curve" smooth="yes"/>
      <point x="595" y="183" type="line"/>
      <point x="788" y="218"/>
      <point x="893" y="315"/>
      <point x="893" y="448" type="curve" smooth="yes"/>
      <point x="893" y="621"/>
      <point x="753" y="725"/>
      <point x="480" y="725" type="curve" smooth="yes"/>
      <point x="199" y="725"/>
      <point x="63" y="616"/>
      <point x="63" y="449" type="curve" smooth="yes"/>
      <point x="63" y="313"/>
      <point x="161" y="216"/>
      <point x="360" y="182" type="curve"/>
      <point x="360" y="67" type="line" smooth="yes"/>
      <point x="360" y="29"/>
      <point x="348" y="10"/>
      <point x="293" y="10" type="curve" smooth="yes"/>
      <point x="254" y="10" type="line"/>
    </contour>
    <contour>
      <point x="479" y="184" type="curve" smooth="yes"/>
      <point x="355" y="184"/>
      <point x="307" y="258"/>
      <point x="307" y="448" type="curve" smooth="yes"/>
      <point x="307" y="639"/>
      <point x="355" y="715"/>
      <point x="480" y="715" type="curve" smooth="yes"/>
      <point x="602" y="715"/>
      <point x="648" y="639"/>
      <point x="648" y="448" type="curve" smooth="yes"/>
      <point x="648" y="258"/>
      <point x="600" y="184"/>
    </contour>
  </outline>
</glyph>
<glyph name="uni03DC" format="2">
  <advance width="750"/>
  <unicode hex="03DC"/>
  <anchor x="375" y="0" name="bottom"/>
  <anchor x="375" y="714" name="top"/>
  <outline>
    <contour>
      <point x="24" y="0" type="line"/>
      <point x="497" y="0" type="line"/>
      <point x="497" y="10" type="line"/>
      <point x="420" y="10" type="line" smooth="yes"/>
      <point x="369" y="10"/>
      <point x="363" y="40"/>
      <point x="363" y="43" type="curve" smooth="yes"/>
      <point x="363" y="378" type="line"/>
      <point x="468" y="378" type="line" smooth="yes"/>
      <point x="584" y="378"/>
      <point x="623" y="341"/>
      <point x="632" y="229" type="curve"/>
      <point x="642" y="229" type="line"/>
      <point x="637" y="388" type="line"/>
      <point x="363" y="388" type="line"/>
      <point x="363" y="704" type="line"/>
      <point x="544" y="704" type="line" smooth="yes"/>
      <point x="651" y="704"/>
      <point x="683" y="671"/>
      <point x="704" y="544" type="curve" smooth="yes"/>
      <point x="709" y="516" type="line"/>
      <point x="719" y="516" type="line"/>
      <point x="711" y="714" type="line"/>
      <point x="24" y="714" type="line"/>
      <point x="24" y="704" type="line"/>
      <point x="99" y="704" type="line" smooth="yes"/>
      <point x="116" y="704"/>
      <point x="132" y="682"/>
      <point x="132" y="669" type="curve" smooth="yes"/>
      <point x="132" y="46" type="line" smooth="yes"/>
      <point x="132" y="31"/>
      <point x="125" y="10"/>
      <point x="69" y="10" type="curve" smooth="yes"/>
      <point x="24" y="10" type="line"/>
    </contour>
  </outline>
</glyph>
<glyph name="afii10051" format="2">
  <advance width="1012"/>
  <unicode hex="0402"/>
  <anchor x="506" y="0" name="bottom"/>
  <anchor x="506" y="714" name="top"/>
  <outline>
    <contour>
      <point x="169" y="0" type="line"/>
      <point x="579" y="0" type="line"/>
      <point x="579" y="10" type="line"/>
      <point x="566" y="10" type="line" smooth="yes"/>
      <point x="531" y="10"/>
      <point x="493" y="8"/>
      <point x="493" y="65" type="curve" smooth="yes"/>
      <point x="493" y="392" type="line"/>
      <point x="517" y="401"/>
      <point x="567" y="414"/>
      <point x="618" y="414" type="curve" smooth="yes"/>
      <point x="710" y="414"/>
      <point x="739" y="371"/>
      <point x="739" y="238" type="curve" smooth="yes"/>
      <point x="739" y="65"/>
      <point x="720" y="10"/>
      <point x="658" y="10" type="curve" smooth="yes"/>
      <point x="658" y="10" type="line"/>
      <point x="658" y="0" type="line"/>
      <point x="688" y="0" type="line" smooth="yes"/>
      <point x="868" y="0"/>
      <point x="975" y="50"/>
      <point x="975" y="222" type="curve"/>
      <point x="975" y="350"/>
      <point x="888" y="438"/>
      <point x="712" y="438" type="curve" smooth="yes"/>
      <point x="589" y="438"/>
      <point x="528" y="415"/>
      <point x="493" y="403" type="curve"/>
      <point x="493" y="704" type="line"/>
      <point x="574" y="704" type="line" smooth="yes"/>
      <point x="684" y="704"/>
      <point x="721" y="666"/>
      <point x="734" y="544" type="curve" smooth="yes"/>
      <point x="739" y="492" type="line"/>
      <point x="749" y="492" type="line"/>
      <point x="742" y="714" type="line"/>
      <point x="11" y="714" type="line"/>
      <point x="4" y="492" type="line"/>
      <point x="14" y="492" type="line"/>
      <point x="17" y="544" type="line" smooth="yes"/>
      <point x="24" y="666"/>
      <point x="69" y="704"/>
      <point x="179" y="704" type="curve" smooth="yes"/>
      <point x="258" y="704" type="line"/>
      <point x="258" y="73" type="line" smooth="yes"/>
      <point x="258" y="10"/>
      <point x="222" y="10"/>
      <point x="185" y="10" type="curve" smooth="yes"/>
      <point x="169" y="10" type="line"/>
    </contour>
  </outline>
</glyph>
<glyph name="afii10045" format="2">
  <advance width="1222"/>
  <unicode hex="042B"/>
  <anchor x="611" y="0" name="bottom"/>
  <anchor x="611" y="714" name="top"/>
  <outline>
    <contour>
      <point x="24" y="0" type="line"/>
      <point x="422" y="0" type="line"/>
      <point x="663" y="0"/>
      <point x="758" y="89"/>
      <point x="758" y="212" type="curve" smooth="yes"/>
      <point x="758" y="336"/>
      <point x="677" y="410"/>
      <point x="456" y="410" type="curve" smooth="yes"/>
      <point x="364" y="410" type="line"/>
      <point x="364" y="652" type="line" smooth="yes"/>
      <point x="364" y="683"/>
      <point x="381" y="704"/>
      <point x="416" y="704" type="curve" smooth="yes"/>
      <point x="497" y="704" type="line"/>
      <point x="497" y="714" type="line"/>
      <point x="24" y="714" type="line"/>
      <point x="24" y="704" type="line"/>
      <point x="82" y="704" type="line" smooth="yes"/>
      <point x="112" y="704"/>
      <point x="132" y="692"/>
      <point x="132" y="647" type="curve" smooth="yes"/>
      <point x="132" y="74" type="line" smooth="yes"/>
      <point x="132" y="35"/>
      <point x="116" y="10"/>
      <point x="73" y="10" type="curve" smooth="yes"/>
      <point x="24" y="10" type="line"/>
    </contour>
    <contour>
      <point x="364" y="10" type="line"/>
      <point x="364" y="400" type="line"/>
      <point x="397" y="400" type="line" smooth="yes"/>
      <point x="485" y="400"/>
      <point x="510" y="359"/>
      <point x="510" y="216" type="curve" smooth="yes"/>
      <point x="510" y="55"/>
      <point x="484" y="10"/>
      <point x="398" y="10" type="curve" smooth="yes"/>
    </contour>
    <contour>
      <point x="760" y="0" type="line"/>
      <point x="1209" y="0" type="line"/>
      <point x="1209" y="10" type="line"/>
      <point x="1144" y="10" type="line" smooth="yes"/>
      <point x="1128" y="10"/>
      <point x="1100" y="37"/>
      <point x="1100" y="54" type="curve" smooth="yes"/>
      <point x="1100" y="654" type="line" smooth="yes"/>
      <point x="1100" y="684"/>
      <point x="1120" y="704"/>
      <point x="1144" y="704" type="curve" smooth="yes"/>
      <point x="1209" y="704" type="line"/>
      <point x="1209" y="714" type="line"/>
      <point x="760" y="714" type="line"/>
      <point x="760" y="704" type="line"/>
      <point x="821" y="704" type="line" smooth="yes"/>
      <point x="833" y="704"/>
      <point x="867" y="684"/>
      <point x="867" y="655" type="curve" smooth="yes"/>
      <point x="867" y="51" type="line" smooth="yes"/>
      <point x="867" y="31"/>
      <point x="833" y="10"/>
      <point x="821" y="10" type="curve" smooth="yes"/>
      <point x="760" y="10" type="line"/>
    </contour>
  </outline>
</glyph>
<glyph name="afii10047" format="2">
  <advance width="855"/>
  <unicode hex="042D"/>
  <anchor x="428" y="0" name="bottom"/>
  <anchor x="428" y="714" name="top"/>
  <outline>
    <contour>
      <point x="361" y="-10" type="curve" smooth="yes"/>
      <point x="636" y="-10"/>
      <point x="792" y="139"/>
      <point x="792" y="390" type="curve" smooth="yes"/>
      <point x="792" y="568"/>
      <point x="674" y="724"/>
      <point x="372" y="724" type="curve" smooth="yes"/>
      <point x="140" y="724"/>
      <point x="62" y="654"/>
      <point x="62" y="593" type="curve" smooth="yes"/>
      <point x="62" y="515"/>
      <point x="137" y="491"/>
      <point x="247" y="491" type="curve"/>
      <point x="247" y="655"/>
      <point x="284" y="714"/>
      <point x="391" y="714" type="curve" smooth="yes"/>
      <point x="508" y="714"/>
      <point x="548" y="622"/>
      <point x="548" y="359" type="curve"/>
      <point x="268" y="359" type="line"/>
      <point x="268" y="349" type="line"/>
      <point x="548" y="349" type="line"/>
      <point x="546" y="92"/>
      <point x="500" y="0"/>
      <point x="361" y="0" type="curve" smooth="yes"/>
      <point x="240" y="0"/>
      <point x="179" y="72"/>
      <point x="170" y="278" type="curve"/>
      <point x="88" y="278"/>
      <point x="36" y="231"/>
      <point x="36" y="162" type="curve" smooth="yes"/>
      <point x="36" y="68"/>
      <point x="133" y="-10"/>
    </contour>
  </outline>
</glyph>
<glyph name="afii10049" format="2">
  <advance width="865"/>
  <unicode hex="042F"/>
  <anchor x="435" y="0" name="bottom"/>
  <anchor x="435" y="714" name="top"/>
  <outline>
    <contour>
      <point x="-6" y="0" type="line"/>
      <point x="59" y="0" type="line" smooth="yes"/>
      <point x="218" y="0"/>
      <point x="284" y="22"/>
      <point x="338" y="136" type="curve" smooth="yes"/>
      <point x="452" y="335" type="line"/>
      <point x="503" y="335" type="line"/>
      <point x="503" y="62" type="line" smooth="yes"/>
      <point x="503" y="8"/>
      <point x="473" y="10"/>
      <point x="445" y="10" type="curve" smooth="yes"/>
      <point x="417" y="10" type="line"/>
      <point x="417" y="0" type="line"/>
      <point x="841" y="0" type="line"/>
      <point x="841" y="10" type="line"/>
      <point x="797" y="10" type="line" smooth="yes"/>
      <point x="780" y="10"/>
      <point x="733" y="8"/>
      <point x="733" y="62" type="curve" smooth="yes"/>
      <point x="733" y="651" type="line" smooth="yes"/>
      <point x="733" y="704"/>
      <point x="790" y="704"/>
      <point x="797" y="704" type="curve" smooth="yes"/>
      <point x="841" y="704" type="line"/>
      <point x="841" y="714" type="line"/>
      <point x="422" y="714" type="line" smooth="yes"/>
      <point x="230" y="714"/>
      <point x="86" y="645"/>
      <point x="86" y="521" type="curve" smooth="yes"/>
      <point x="86" y="453"/>
      <point x="124" y="383"/>
      <point x="235" y="342" type="curve"/>
      <point x="54" y="49" type="line" smooth="yes"/>
      <point x="28" y="26"/>
      <point x="10" y="10"/>
      <point x="-4" y="10" type="curve" smooth="yes"/>
      <point x="-6" y="10" type="line"/>
    </contour>
    <contour>
      <point x="465" y="345" type="line" smooth="yes"/>
      <point x="366" y="345"/>
      <point x="334" y="395"/>
      <point x="334" y="496" type="curve" smooth="yes"/>
      <point x="334" y="653"/>
      <point x="367" y="704"/>
      <point x="467" y="704" type="curve" smooth="yes"/>
      <point x="503" y="704" type="line"/>
      <point x="503" y="345" type="line"/>
    </contour>
  </outline>
</glyph>
<glyph name="afii10067" format="2">
  <advance width="746"/>
  <unicode hex="0432"/>
  <anchor x="373" y="0" name="bottom"/>
  <anchor x="373" y="536" name="top"/>
  <outline>
    <contour>
      <point x="15" y="0" type="line"/>
      <point x="448" y="0" type="line" smooth="yes"/>
      <point x="628" y="0"/>
      <point x="706" y="60"/>
      <point x="706" y="141" type="curve" smooth="yes"/>
      <point x="706" y="242"/>
      <point x="610" y="270"/>
      <point x="413" y="272" type="curve"/>
      <point x="413" y="274" type="line"/>
      <point x="607" y="283"/>
      <point x="673" y="330"/>
      <point x="673" y="408" type="curve" smooth="yes"/>
      <point x="673" y="493"/>
      <point x="598" y="536"/>
      <point x="415" y="536" type="curve" smooth="yes"/>
      <point x="15" y="536" type="line"/>
      <point x="15" y="526" type="line"/>
      <point x="28" y="526" type="line" smooth="yes"/>
      <point x="70" y="526"/>
      <point x="102" y="507"/>
      <point x="102" y="461" type="curve" smooth="yes"/>
      <point x="102" y="73" type="line" smooth="yes"/>
      <point x="102" y="22"/>
      <point x="72" y="10"/>
      <point x="28" y="10" type="curve" smooth="yes"/>
      <point x="15" y="10" type="line"/>
    </contour>
    <contour>
      <point x="327" y="10" type="line"/>
      <point x="327" y="272" type="line"/>
      <point x="367" y="272" type="line" smooth="yes"/>
      <point x="448" y="272"/>
      <point x="472" y="239"/>
      <point x="472" y="127" type="curve" smooth="yes"/>
      <point x="472" y="34"/>
      <point x="448" y="10"/>
      <point x="368" y="10" type="curve" smooth="yes"/>
    </contour>
    <contour>
      <point x="327" y="282" type="line"/>
      <point x="327" y="526" type="line"/>
      <point x="369" y="526" type="line" smooth="yes"/>
      <point x="434" y="526"/>
      <point x="452" y="497"/>
      <point x="452" y="406" type="curve" smooth="yes"/>
      <point x="452" y="307"/>
      <point x="431" y="282"/>
      <point x="363" y="282" type="curve" smooth="yes"/>
    </contour>
  </outline>
</glyph>
<glyph name="afii10074" format="2">
  <advance width="831"/>
  <unicode hex="0438"/>
  <anchor x="415" y="0" name="bottom"/>
  <anchor x="415" y="536" name="top"/>
  <outline>
    <contour>
      <point x="15" y="0" type="line"/>
      <point x="380" y="0" type="line"/>
      <point x="380" y="10" type="line"/>
      <point x="371" y="10" type="line" smooth="yes"/>
      <point x="343" y="10"/>
      <point x="328" y="24"/>
      <point x="328" y="56" type="curve" smooth="yes"/>
      <point x="328" y="176" type="line"/>
      <point x="502" y="355" type="line"/>
      <point x="502" y="61" type="line" smooth="yes"/>
      <point x="502" y="30"/>
      <point x="490" y="10"/>
      <point x="462" y="10" type="curve" smooth="yes"/>
      <point x="449" y="10" type="line"/>
      <point x="449" y="0" type="line"/>
      <point x="815" y="0" type="line"/>
      <point x="815" y="10" type="line"/>
      <point x="803" y="10" type="line" smooth="yes"/>
      <point x="758" y="10"/>
      <point x="729" y="30"/>
      <point x="729" y="85" type="curve" smooth="yes"/>
      <point x="729" y="455" type="line" smooth="yes"/>
      <point x="729" y="511"/>
      <point x="758" y="526"/>
      <point x="803" y="526" type="curve" smooth="yes"/>
      <point x="815" y="526" type="line"/>
      <point x="815" y="536" type="line"/>
      <point x="449" y="536" type="line"/>
      <point x="449" y="526" type="line"/>
      <point x="461" y="526" type="line" smooth="yes"/>
      <point x="489" y="526"/>
      <point x="502" y="507"/>
      <point x="502" y="487" type="curve" smooth="yes"/>
      <point x="502" y="368" type="line"/>
      <point x="328" y="189" type="line"/>
      <point x="328" y="487" type="line" smooth="yes"/>
      <point x="328" y="514"/>
      <point x="345" y="526"/>
      <point x="373" y="526" type="curve" smooth="yes"/>
      <point x="382" y="526" type="line"/>
      <point x="382" y="536" type="line"/>
      <point x="15" y="536" type="line"/>
      <point x="15" y="526" type="line"/>
      <point x="28" y="526" type="line" smooth="yes"/>
      <point x="72" y="526"/>
      <point x="102" y="513"/>
      <point x="102" y="458" type="curve" smooth="yes"/>
      <point x="102" y="78" type="line" smooth="yes"/>
      <point x="102" y="23"/>
      <point x="72" y="10"/>
      <point x="28" y="10" type="curve" smooth="yes"/>
      <point x="15" y="10" type="line"/>
    </contour>
  </outline>
</glyph>
<glyph name="afii10079" format="2">
  <advance width="824"/>
  <unicode hex="043D"/>
  <anchor x="412" y="0" name="bottom"/>
  <anchor x="412" y="536" name="top"/>
  <outline>
    <contour>
      <point x="18" y="0" type="line"/>
      <point x="388" y="0" type="line"/>
      <point x="388" y="10" type="line"/>
      <point x="384" y="10" type="line" smooth="yes"/>
      <point x="345" y="10"/>
      <point x="328" y="24"/>
      <point x="328" y="73" type="curve" smooth="yes"/>
      <point x="328" y="272" type="line"/>
      <point x="493" y="272" type="line"/>
      <point x="493" y="73" type="line" smooth="yes"/>
      <point x="493" y="24"/>
      <point x="478" y="10"/>
      <point x="438" y="10" type="curve" smooth="yes"/>
      <point x="433" y="10" type="line"/>
      <point x="433" y="0" type="line"/>
      <point x="806" y="0" type="line"/>
      <point x="806" y="10" type="line"/>
      <point x="793" y="10" type="line" smooth="yes"/>
      <point x="749" y="10"/>
      <point x="720" y="30"/>
      <point x="720" y="73" type="curve" smooth="yes"/>
      <point x="720" y="463" type="line" smooth="yes"/>
      <point x="720" y="509"/>
      <point x="749" y="526"/>
      <point x="793" y="526" type="curve" smooth="yes"/>
      <point x="806" y="526" type="line"/>
      <point x="806" y="536" type="line"/>
      <point x="433" y="536" type="line"/>
      <point x="433" y="526" type="line"/>
      <point x="438" y="526" type="line" smooth="yes"/>
      <point x="478" y="526"/>
      <point x="493" y="511"/>
      <point x="493" y="464" type="curve" smooth="yes"/>
      <point x="493" y="282" type="line"/>
      <point x="328" y="282" type="line"/>
      <point x="328" y="463" type="line" smooth="yes"/>
      <point x="328" y="509"/>
      <point x="343" y="526"/>
      <point x="382" y="526" type="curve" smooth="yes"/>
      <point x="388" y="526" type="line"/>
      <point x="388" y="536" type="line"/>
      <point x="18" y="536" type="line"/>
      <point x="18" y="526" type="line"/>
      <point x="30" y="526" type="line" smooth="yes"/>
      <point x="75" y="526"/>
      <point x="102" y="511"/>
      <point x="102" y="464" type="curve" smooth="yes"/>
      <point x="102" y="73" type="line" smooth="yes"/>
      <point x="102" y="24"/>
      <point x="76" y="10"/>
      <point x="30" y="10" type="curve" smooth="yes"/>
      <point x="18" y="10" type="line"/>
    </contour>
  </outline>
</glyph>
<glyph name="afii10081" format="2">
  <advance width="810"/>
  <unicode hex="043F"/>
  <anchor x="405" y="0" name="bottom"/>
  <anchor x="405" y="536" name="top"/>
  <outline>
    <contour>
      <point x="17" y="0" type="line"/>
      <point x="387" y="0" type="line"/>
      <point x="387" y="10" type="line"/>
      <point x="383" y="10" type="line" smooth="yes"/>
      <point x="344" y="10"/>
      <point x="327" y="24"/>
      <point x="327" y="73" type="curve" smooth="yes"/>
      <point x="327" y="526" type="line"/>
      <point x="480" y="526" type="line"/>
      <point x="480" y="73" type="line" smooth="yes"/>
      <point x="480" y="24"/>
      <point x="465" y="10"/>
      <point x="425" y="10" type="curve" smooth="yes"/>
      <point x="420" y="10" type="line"/>
      <point x="420" y="0" type="line"/>
      <point x="793" y="0" type="line"/>
      <point x="793" y="10" type="line"/>
      <point x="780" y="10" type="line" smooth="yes"/>
      <point x="736" y="10"/>
      <point x="707" y="30"/>
      <point x="707" y="73" type="curve" smooth="yes"/>
      <point x="707" y="463" type="line" smooth="yes"/>
      <point x="707" y="509"/>
      <point x="736" y="526"/>
      <point x="780" y="526" type="curve" smooth="yes"/>
      <point x="793" y="526" type="line"/>
      <point x="793" y="536" type="line"/>
      <point x="17" y="536" type="line"/>
      <point x="17" y="526" type="line"/>
      <point x="29" y="526" type="line" smooth="yes"/>
      <point x="74" y="526"/>
      <point x="101" y="511"/>
      <point x="101" y="465" type="curve" smooth="yes"/>
      <point x="101" y="73" type="line" smooth="yes"/>
      <point x="101" y="24"/>
      <point x="75" y="10"/>
      <point x="29" y="10" type="curve" smooth="yes"/>
      <point x="17" y="10" type="line"/>
    </contour>
  </outline>
</glyph>
<glyph name="afii10088" format="2">
  <advance width="843"/>
  <unicode hex="0446"/>
  <anchor x="422" y="0" name="bottom"/>
  <anchor x="422" y="536" name="top"/>
  <outline>
    <contour>
      <point x="795" y="-210" type="line"/>
      <point x="805" y="-210" type="line"/>
      <point x="805" y="10" type="line"/>
      <point x="731" y="10" type="line" smooth="yes"/>
      <point x="693" y="10"/>
      <point x="700" y="32"/>
      <point x="700" y="28" type="curve" smooth="yes"/>
      <point x="700" y="463" type="line" smooth="yes"/>
      <point x="700" y="512"/>
      <point x="726" y="526"/>
      <point x="772" y="526" type="curve" smooth="yes"/>
      <point x="784" y="526" type="line"/>
      <point x="784" y="536" type="line"/>
      <point x="414" y="536" type="line"/>
      <point x="414" y="526" type="line"/>
      <point x="418" y="526" type="line" smooth="yes"/>
      <point x="457" y="526"/>
      <point x="474" y="512"/>
      <point x="474" y="463" type="curve" smooth="yes"/>
      <point x="474" y="10" type="line"/>
      <point x="330" y="10" type="line"/>
      <point x="330" y="463" type="line" smooth="yes"/>
      <point x="330" y="512"/>
      <point x="345" y="526"/>
      <point x="385" y="526" type="curve" smooth="yes"/>
      <point x="390" y="526" type="line"/>
      <point x="390" y="536" type="line"/>
      <point x="17" y="536" type="line"/>
      <point x="17" y="526" type="line"/>
      <point x="30" y="526" type="line" smooth="yes"/>
      <point x="74" y="526"/>
      <point x="103" y="506"/>
      <point x="103" y="463" type="curve" smooth="yes"/>
      <point x="103" y="73" type="line" smooth="yes"/>
      <point x="103" y="27"/>
      <point x="74" y="10"/>
      <point x="30" y="10" type="curve" smooth="yes"/>
      <point x="17" y="10" type="line"/>
      <point x="17" y="0" type="line"/>
      <point x="586" y="0" type="line" smooth="yes"/>
      <point x="735" y="0"/>
      <point x="789" y="-47"/>
      <point x="794" y="-187" type="curve" smooth="yes"/>
    </contour>
  </outline>
</glyph>
<glyph name="afii10193" format="2">
  <advance width="809"/>
  <unicode hex="045F"/>
  <anchor x="405" y="-210" name="bottom"/>
  <anchor x="405" y="536" name="top"/>
  <outline>
    <contour>
      <point x="383" y="-210" type="curve"/>
      <point x="393" y="-210" type="line"/>
      <point x="393" y="-49"/>
      <point x="418" y="0"/>
      <point x="529" y="0" type="curve" smooth="yes"/>
      <point x="793" y="0" type="line"/>
      <point x="793" y="10" type="line"/>
      <point x="781" y="10" type="line" smooth="yes"/>
      <point x="736" y="10"/>
      <point x="709" y="25"/>
      <point x="709" y="71" type="curve" smooth="yes"/>
      <point x="709" y="463" type="line" smooth="yes"/>
      <point x="709" y="512"/>
      <point x="735" y="526"/>
      <point x="781" y="526" type="curve" smooth="yes"/>
      <point x="793" y="526" type="line"/>
      <point x="793" y="536" type="line"/>
      <point x="423" y="536" type="line"/>
      <point x="423" y="526" type="line"/>
      <point x="427" y="526" type="line" smooth="yes"/>
      <point x="466" y="526"/>
      <point x="483" y="512"/>
      <point x="483" y="463" type="curve" smooth="yes"/>
      <point x="483" y="10" type="line"/>
      <point x="330" y="10" type="line"/>
      <point x="330" y="463" type="line" smooth="yes"/>
      <point x="330" y="512"/>
      <point x="345" y="526"/>
      <point x="385" y="526" type="curve" smooth="yes"/>
      <point x="390" y="526" type="line"/>
      <point x="390" y="536" type="line"/>
      <point x="17" y="536" type="line"/>
      <point x="17" y="526" type="line"/>
      <point x="30" y="526" type="line" smooth="yes"/>
      <point x="74" y="526"/>
      <point x="103" y="506"/>
      <point x="103" y="463" type="curve" smooth="yes"/>
      <point x="103" y="73" type="line" smooth="yes"/>
      <point x="103" y="27"/>
      <point x="74" y="10"/>
      <point x="30" y="10" type="curve" smooth="yes"/>
      <point x="17" y="10" type="line"/>
      <point x="17" y="0" type="line"/>
      <point x="227" y="0" type="line" smooth="yes"/>
      <point x="354" y="0"/>
      <point x="383" y="-49"/>
    </contour>
  </outline>
</glyph>
<glyph name="uni0465" format="2">
  <advance width="1024"/>
  <unicode hex="0465"/>
  <anchor x="512" y="0" name="bottom"/>
  <anchor x="512" y="536" name="top"/>
  <outline>
    <contour>
      <point x="732" y="-10" type="curve" smooth="yes"/>
      <point x="914" y="-10"/>
      <point x="973" y="53"/>
      <point x="973" y="109" type="curve" smooth="yes"/>
      <point x="973" y="158"/>
      <point x="930" y="158"/>
      <point x="899" y="164" type="curve"/>
      <point x="894" y="59"/>
      <point x="875" y="3"/>
      <point x="796" y="3" type="curve" smooth="yes"/>
      <point x="700" y="3"/>
      <point x="652" y="89"/>
      <point x="654" y="265" type="curve"/>
      <point x="844" y="265" type="line"/>
      <point x="844" y="275" type="line"/>
      <point x="654" y="275" type="line"/>
      <point x="653" y="491"/>
      <point x="690" y="542"/>
      <point x="754" y="542" type="curve" smooth="yes"/>
      <point x="820" y="542"/>
      <point x="828" y="489"/>
      <point x="828" y="373" type="curve"/>
      <point x="944" y="373"/>
      <point x="979" y="388"/>
      <point x="979" y="426" type="curve" smooth="yes"/>
      <point x="979" y="497"/>
      <point x="899" y="552"/>
      <point x="751" y="552" type="curve" smooth="yes"/>
      <point x="568" y="552"/>
      <point x="429" y="494"/>
      <point x="427" y="275" type="curve"/>
      <point x="328" y="275" type="line"/>
      <point x="328" y="463" type="line" smooth="yes"/>
      <point x="328" y="512"/>
      <point x="342" y="526"/>
      <point x="380" y="526" type="curve" smooth="yes"/>
      <point x="388" y="526" type="line"/>
      <point x="388" y="536" type="line"/>
      <point x="18" y="536" type="line"/>
      <point x="18" y="526" type="line"/>
      <point x="31" y="526" type="line" smooth="yes"/>
      <point x="76" y="526"/>
      <point x="102" y="512"/>
      <point x="102" y="464" type="curve" smooth="yes"/>
      <point x="102" y="73" type="line" smooth="yes"/>
      <point x="102" y="23"/>
      <point x="77" y="10"/>
      <point x="31" y="10" type="curve" smooth="yes"/>
      <point x="18" y="10" type="line"/>
      <point x="18" y="0" type="line"/>
      <point x="388" y="0" type="line"/>
      <point x="388" y="10" type="line"/>
      <point x="382" y="10" type="line" smooth="yes"/>
      <point x="346" y="10"/>
      <point x="328" y="20"/>
      <point x="328" y="73" type="curve" smooth="yes"/>
      <point x="328" y="265" type="line"/>
      <point x="427" y="265" type="line"/>
      <point x="428" y="52"/>
      <point x="554" y="-10"/>
    </contour>
  </outline>
</glyph>
<glyph name="uni0467" format="2">
  <advance width="844"/>
  <unicode hex="0467"/>
  <anchor x="422" y="0" name="bottom"/>
  <anchor x="422" y="536" name="top"/>
  <outline>
    <contour>
      <point x="8" y="0" type="line"/>
      <point x="210" y="0" type="line"/>
      <point x="210" y="10" type="line"/>
      <point x="147" y="10"/>
      <point x="127" y="23"/>
      <point x="127" y="49" type="curve" smooth="yes"/>
      <point x="127" y="64"/>
      <point x="132" y="85"/>
      <point x="143" y="108" type="curve" smooth="yes"/>
      <point x="223" y="272" type="line"/>
      <point x="252" y="272" type="line"/>
      <point x="252" y="0" type="line"/>
      <point x="411" y="0" type="line"/>
      <point x="411" y="272" type="line"/>
      <point x="438" y="272" type="line"/>
      <point x="536" y="72" type="line" smooth="yes"/>
      <point x="544" y="58"/>
      <point x="545" y="46"/>
      <point x="545" y="38" type="curve" smooth="yes"/>
      <point x="545" y="12"/>
      <point x="527" y="10"/>
      <point x="477" y="10" type="curve"/>
      <point x="477" y="0" type="line"/>
      <point x="832" y="0" type="line"/>
      <point x="832" y="10" type="line"/>
      <point x="807" y="10"/>
      <point x="795" y="23"/>
      <point x="779" y="54" type="curve" smooth="yes"/>
      <point x="526" y="536" type="line"/>
      <point x="339" y="536" type="line"/>
      <point x="127" y="102" type="line" smooth="yes"/>
      <point x="95" y="30"/>
      <point x="86" y="10"/>
      <point x="62" y="10" type="curve" smooth="yes"/>
      <point x="8" y="10" type="line"/>
    </contour>
    <contour>
      <point x="230" y="282" type="line"/>
      <point x="331" y="525" type="line" smooth="yes"/>
      <point x="329" y="512"/>
      <point x="330" y="500"/>
      <point x="328" y="490" type="curve"/>
      <point x="322" y="516"/>
      <point x="320" y="539"/>
      <point x="324" y="538" type="curve" smooth="yes"/>
      <point x="433" y="282" type="line"/>
    </contour>
  </outline>
</glyph>
